  0
SECTION
  2
HEADER
  9
$ACADVER
  1
AC1009
  9
$FILLMODE
 70
0
  9
$EXTMIN
 10
-91.5761
 20
-91.5162
 30
0.0000
  9
$EXTMAX
 10
94.1070
 20
87.7062
 30
0.0000
  0
ENDSEC
  0
SECTION
  2
TABLES
  0
TABLE
  2
LTYPE
 70
1
  0
LTYPE
  2
CONTINUOUS
 70
64
  3
Solid line
 72
65
 73
0
 40
0
  0
ENDTAB
  0
TABLE
  2
LAYER
 70
255
  0
LAYER
  2
20
 70
64
 62
178
  6
CONTINUOUS
  0
ENDTAB
  0
ENDSEC
  0
SECTION
  2
BLOCKS
  0
BLOCK
  8
0
  2
RECT
 70
64
 10
0.0000
 20
0.0000
 30
0.0000
  3
RECT
  0
SOLID
  8
0
 10
-0.5000
 20
-0.5000
 30
0.0000
 11
0.5000
 21
-0.5000
 31
0.0000
 12
-0.5000
 22
0.5000
 32
0.0000
 13
0.5000
 23
0.5000
 33
0.0000
  0
ENDBLK
  8
0
  0
BLOCK
  8
0
  2
PIE
 70
64
 10
0.0000
 20
0.0000
 30
0.0000
  3
PIE
  0
CIRCLE
  8
0
 10
0.0000
 20
0.0000
 30
0.0000
 40
0.5000
  0
ENDBLK
  8
0
  0
BLOCK
  8
0
  2
OCTAGONP
 70
64
 10
0.0000
 20
0.0000
 30
0.0000
  3
OCTAGONP
  0
POLYLINE
  8
0
 66
1
 10
0.0000
 20
0.0000
 30
0.0000
 40
0.0000
 41
0.0000
 70
1
  0
VERTEX
  8
0
 10
-0.5000
 20
-0.2071
 30
0.0000
  0
VERTEX
  8
0
 10
-0.5000
 20
0.2071
 30
0.0000
  0
VERTEX
  8
0
 10
-0.2071
 20
0.5000
 30
0.0000
  0
VERTEX
  8
0
 10
0.2071
 20
0.5000
 30
0.0000
  0
VERTEX
  8
0
 10
0.5000
 20
0.2071
 30
0.0000
  0
VERTEX
  8
0
 10
0.5000
 20
-0.2071
 30
0.0000
  0
VERTEX
  8
0
 10
0.2071
 20
-0.5000
 30
0.0000
  0
VERTEX
  8
0
 10
-0.2071
 20
-0.5000
 30
0.0000
  0
SEQEND
  8
0
  0
ENDBLK
  8
0
  0
BLOCK
  8
0
  2
SQUAREP
 70
64
 10
0.0000
 20
0.0000
 30
0.0000
  3
SQUAREP
  0
SOLID
  8
0
 10
-0.5000
 20
-0.5000
 30
0.0000
 11
0.5000
 21
-0.5000
 31
0.0000
 12
-0.5000
 22
0.5000
 32
0.0000
 13
0.5000
 23
0.5000
 33
0.0000
  0
ENDBLK
  8
0
  0
BLOCK
  8
0
  2
ROUNDP
 70
64
 10
0.0000
 20
0.0000
 30
0.0000
  3
ROUNDP
  0
CIRCLE
  8
0
 10
0.0000
 20
0.0000
 30
0.0000
 40
0.5000
  0
ENDBLK
  8
0
  0
BLOCK
  8
0
  2
ANNULUSP
 70
64
 10
0.0000
 20
0.0000
 30
0.0000
  3
ANNULUSP
  0
CIRCLE
  8
0
 10
0.0000
 20
0.0000
 30
0.0000
 40
0.5000
  0
ENDBLK
  8
0
  0
BLOCK
  8
0
  2
THERMALP
 70
64
 10
0.0000
 20
0.0000
 30
0.0000
  3
THERMALP
  0
LINE
  8
0
 10
-0.2379
 20
0.4500
 30
0.0000
 11
0.2379
 21
0.4500
 31
0.0000
  0
LINE
  8
0
 10
0.4500
 20
0.2379
 30
0.0000
 11
0.4500
 21
-0.2379
 31
0.0000
  0
LINE
  8
0
 10
0.2379
 20
-0.4500
 30
0.0000
 11
-0.2379
 21
-0.4500
 31
0.0000
  0
LINE
  8
0
 10
-0.4500
 20
-0.2379
 30
0.0000
 11
-0.4500
 21
0.2379
 31
0.0000
  0
ENDBLK
  8
0
  0
BLOCK
  8
0
  2
OCTAGONV
 70
64
 10
0.0000
 20
0.0000
 30
0.0000
  3
OCTAGONV
  0
POLYLINE
  8
0
 66
1
 10
0.0000
 20
0.0000
 30
0.0000
 40
0.0000
 41
0.0000
 70
1
  0
VERTEX
  8
0
 10
-0.5000
 20
-0.2071
 30
0.0000
  0
VERTEX
  8
0
 10
-0.5000
 20
0.2071
 30
0.0000
  0
VERTEX
  8
0
 10
-0.2071
 20
0.5000
 30
0.0000
  0
VERTEX
  8
0
 10
0.2071
 20
0.5000
 30
0.0000
  0
VERTEX
  8
0
 10
0.5000
 20
0.2071
 30
0.0000
  0
VERTEX
  8
0
 10
0.5000
 20
-0.2071
 30
0.0000
  0
VERTEX
  8
0
 10
0.2071
 20
-0.5000
 30
0.0000
  0
VERTEX
  8
0
 10
-0.2071
 20
-0.5000
 30
0.0000
  0
SEQEND
  8
0
  0
ENDBLK
  8
0
  0
BLOCK
  8
0
  2
SQUAREV
 70
64
 10
0.0000
 20
0.0000
 30
0.0000
  3
SQUAREV
  0
SOLID
  8
0
 10
-0.5000
 20
-0.5000
 30
0.0000
 11
0.5000
 21
-0.5000
 31
0.0000
 12
-0.5000
 22
0.5000
 32
0.0000
 13
0.5000
 23
0.5000
 33
0.0000
  0
ENDBLK
  8
0
  0
BLOCK
  8
0
  2
ROUNDV
 70
64
 10
0.0000
 20
0.0000
 30
0.0000
  3
ROUNDV
  0
CIRCLE
  8
0
 10
0.0000
 20
0.0000
 30
0.0000
 40
0.5000
  0
ENDBLK
  8
0
  0
BLOCK
  8
0
  2
ANNULUSV
 70
64
 10
0.0000
 20
0.0000
 30
0.0000
  3
ANNULUSV
  0
CIRCLE
  8
0
 10
0.0000
 20
0.0000
 30
0.0000
 40
0.5000
  0
ENDBLK
  8
0
  0
BLOCK
  8
0
  2
THERMALV
 70
64
 10
0.0000
 20
0.0000
 30
0.0000
  3
THERMALV
  0
LINE
  8
0
 10
-0.2379
 20
0.4500
 30
0.0000
 11
0.2379
 21
0.4500
 31
0.0000
  0
LINE
  8
0
 10
0.4500
 20
0.2379
 30
0.0000
 11
0.4500
 21
-0.2379
 31
0.0000
  0
LINE
  8
0
 10
0.2379
 20
-0.4500
 30
0.0000
 11
-0.2379
 21
-0.4500
 31
0.0000
  0
LINE
  8
0
 10
-0.4500
 20
-0.2379
 30
0.0000
 11
-0.4500
 21
0.2379
 31
0.0000
  0
ENDBLK
  8
0
  0
BLOCK
  8
0
  2
OFFSETP100
 70
64
 10
0.0000
 20
0.0000
 30
0.0000
  3
OFFSETP100
  0
POLYLINE
  8
0
 66
1
 10
0.0000
 20
0.0000
 30
0.0000
 40
0.0000
 41
0.0000
 70
1
  0
VERTEX
  8
0
 10
0.0000
 20
-0.5000
 30
0.0000
  0
VERTEX
  8
0
 10
1.0000
 20
-0.5000
 30
0.0000
 42
1.0000
  0
VERTEX
  8
0
 10
1.0000
 20
0.5000
 30
0.0000
  0
VERTEX
  8
0
 10
0.0000
 20
0.5000
 30
0.0000
 42
1.0000
  0
SEQEND
  8
0
  0
ENDBLK
  8
0
  0
BLOCK
  8
0
  2
LONGP60
 70
64
 10
0.0000
 20
0.0000
 30
0.0000
  3
LONGP60
  0
POLYLINE
  8
0
 66
1
 10
0.0000
 20
0.0000
 30
0.0000
 40
0.0000
 41
0.0000
 70
1
  0
VERTEX
  8
0
 10
-0.3000
 20
-0.5000
 30
0.0000
  0
VERTEX
  8
0
 10
0.3000
 20
-0.5000
 30
0.0000
 42
1.0000
  0
VERTEX
  8
0
 10
0.3000
 20
0.5000
 30
0.0000
  0
VERTEX
  8
0
 10
-0.3000
 20
0.5000
 30
0.0000
 42
1.0000
  0
SEQEND
  8
0
  0
ENDBLK
  8
0
  0
ENDSEC
  0
SECTION
  2
ENTITIES
  0
CIRCLE
  8
20
 10
41.1390
 20
4.8850
 30
0.0000
 40
1.6000
  0
CIRCLE
  8
20
 10
50.6974
 20
-34.8120
 30
0.0000
 40
1.6000
  0
CIRCLE
  8
20
 10
50.6974
 20
-24.8044
 30
0.0000
 40
1.6000
  0
CIRCLE
  8
20
 10
50.7100
 20
4.6500
 30
0.0000
 40
1.6000
  0
CIRCLE
  8
20
 10
-8.0000
 20
66.0400
 30
0.0000
 40
1.0000
  0
CIRCLE
  8
20
 10
8.0000
 20
66.0400
 30
0.0000
 40
1.0000
  0
CIRCLE
  8
20
 10
-8.0000
 20
-81.7700
 30
0.0000
 40
1.0000
  0
CIRCLE
  8
20
 10
8.0000
 20
-81.7700
 30
0.0000
 40
1.0000
  0
CIRCLE
  8
20
 10
21.9540
 20
19.5580
 30
0.0000
 40
1.6000
  0
CIRCLE
  8
20
 10
-22.4960
 20
19.5580
 30
0.0000
 40
1.6000
  0
CIRCLE
  8
20
 10
-41.2390
 20
4.8850
 30
0.0000
 40
1.6000
  0
CIRCLE
  8
20
 10
-50.7974
 20
-34.7120
 30
0.0000
 40
1.6000
  0
CIRCLE
  8
20
 10
-50.8100
 20
-24.5600
 30
0.0000
 40
1.6000
  0
CIRCLE
  8
20
 10
-50.8100
 20
4.6500
 30
0.0000
 40
1.6000
  0
ARC
  8
20
 10
0.0000
 20
121.2850
 30
0.0000
 40
46.3550
 50
228.8879
 51
311.1121
  0
ARC
  8
20
 10
0.0000
 20
0.0726
 30
0.0000
 40
91.5126
 50
109.4552
 51
70.5448
  0
CIRCLE
  8
20
 10
-86.3600
 20
0.0000
 30
0.0000
 40
1.6000
  0
CIRCLE
  8
20
 10
60.9600
 20
60.9600
 30
0.0000
 40
1.6000
  0
CIRCLE
  8
20
 10
-60.9600
 20
60.9600
 30
0.0000
 40
1.6000
  0
CIRCLE
  8
20
 10
86.3600
 20
0.0000
 30
0.0000
 40
1.6000
  0
CIRCLE
  8
20
 10
-60.9600
 20
-60.9600
 30
0.0000
 40
1.6000
  0
CIRCLE
  8
20
 10
60.9600
 20
-60.9600
 30
0.0000
 40
1.6000
  0
CIRCLE
  8
20
 10
-33.0200
 20
80.0100
 30
0.0000
 40
1.6000
  0
CIRCLE
  8
20
 10
33.0200
 20
80.0100
 30
0.0000
 40
1.6000
  0
CIRCLE
  8
20
 10
-33.0200
 20
-80.0100
 30
0.0000
 40
1.6000
  0
CIRCLE
  8
20
 10
33.0200
 20
-80.0100
 30
0.0000
 40
1.6000
  0
CIRCLE
  8
20
 10
-66.0400
 20
48.2600
 30
0.0000
 40
1.6000
  0
CIRCLE
  8
20
 10
-66.0400
 20
-48.2600
 30
0.0000
 40
1.6000
  0
CIRCLE
  8
20
 10
66.0400
 20
48.2600
 30
0.0000
 40
1.6000
  0
CIRCLE
  8
20
 10
66.0400
 20
-48.2600
 30
0.0000
 40
1.6000
  0
ARC
  8
20
 10
74.9300
 20
33.0200
 30
0.0000
 40
2.5400
 50
0.0000
 51
90.0000
  0
ARC
  8
20
 10
74.9300
 20
-33.0200
 30
0.0000
 40
2.5400
 50
270.0000
 51
0.0000
  0
ARC
  8
20
 10
64.7700
 20
-33.0200
 30
0.0000
 40
2.5400
 50
180.0000
 51
270.0000
  0
ARC
  8
20
 10
64.7700
 20
33.0200
 30
0.0000
 40
2.5400
 50
90.0000
 51
180.0000
  0
ARC
  8
20
 10
74.9300
 20
33.0200
 30
0.0000
 40
2.5400
 50
0.0000
 51
90.0000
  0
ARC
  8
20
 10
74.9300
 20
-33.0200
 30
0.0000
 40
2.5400
 50
270.0000
 51
0.0000
  0
ARC
  8
20
 10
64.7700
 20
-33.0200
 30
0.0000
 40
2.5400
 50
180.0000
 51
270.0000
  0
ARC
  8
20
 10
64.7700
 20
33.0200
 30
0.0000
 40
2.5400
 50
90.0000
 51
180.0000
  0
LINE
  8
20
 10
62.2300
 20
-33.0200
 30
0.0000
 11
62.2300
 21
33.0200
 31
0.0000
  0
ARC
  8
20
 10
64.7700
 20
33.0200
 30
0.0000
 40
2.5400
 50
90.0000
 51
180.0000
  0
LINE
  8
20
 10
64.7700
 20
35.5600
 30
0.0000
 11
74.9300
 21
35.5600
 31
0.0000
  0
ARC
  8
20
 10
74.9300
 20
33.0200
 30
0.0000
 40
2.5400
 50
0.0000
 51
90.0000
  0
LINE
  8
20
 10
77.4700
 20
33.0200
 30
0.0000
 11
77.4700
 21
-33.0200
 31
0.0000
  0
ARC
  8
20
 10
74.9300
 20
-33.0200
 30
0.0000
 40
2.5400
 50
270.0000
 51
0.0000
  0
LINE
  8
20
 10
74.9300
 20
-35.5600
 30
0.0000
 11
64.7700
 21
-35.5600
 31
0.0000
  0
ARC
  8
20
 10
64.7700
 20
-33.0200
 30
0.0000
 40
2.5400
 50
180.0000
 51
270.0000
  0
ARC
  8
20
 10
-64.7700
 20
33.0200
 30
0.0000
 40
2.5400
 50
0.0000
 51
90.0000
  0
ARC
  8
20
 10
-64.7700
 20
-33.0200
 30
0.0000
 40
2.5400
 50
270.0000
 51
0.0000
  0
ARC
  8
20
 10
-74.9300
 20
-33.0200
 30
0.0000
 40
2.5400
 50
180.0000
 51
270.0000
  0
ARC
  8
20
 10
-74.9300
 20
33.0200
 30
0.0000
 40
2.5400
 50
90.0000
 51
180.0000
  0
ARC
  8
20
 10
-64.7700
 20
33.0200
 30
0.0000
 40
2.5400
 50
0.0000
 51
90.0000
  0
ARC
  8
20
 10
-64.7700
 20
-33.0200
 30
0.0000
 40
2.5400
 50
270.0000
 51
0.0000
  0
ARC
  8
20
 10
-74.9300
 20
-33.0200
 30
0.0000
 40
2.5400
 50
180.0000
 51
270.0000
  0
ARC
  8
20
 10
-74.9300
 20
33.0200
 30
0.0000
 40
2.5400
 50
90.0000
 51
180.0000
  0
LINE
  8
20
 10
-77.4700
 20
-33.0200
 30
0.0000
 11
-77.4700
 21
33.0200
 31
0.0000
  0
ARC
  8
20
 10
-74.9300
 20
33.0200
 30
0.0000
 40
2.5400
 50
90.0000
 51
180.0000
  0
LINE
  8
20
 10
-74.9300
 20
35.5600
 30
0.0000
 11
-64.7700
 21
35.5600
 31
0.0000
  0
ARC
  8
20
 10
-64.7700
 20
33.0200
 30
0.0000
 40
2.5400
 50
0.0000
 51
90.0000
  0
LINE
  8
20
 10
-62.2300
 20
33.0200
 30
0.0000
 11
-62.2300
 21
-33.0200
 31
0.0000
  0
ARC
  8
20
 10
-64.7700
 20
-33.0200
 30
0.0000
 40
2.5400
 50
270.0000
 51
0.0000
  0
LINE
  8
20
 10
-64.7700
 20
-35.5600
 30
0.0000
 11
-74.9300
 21
-35.5600
 31
0.0000
  0
ARC
  8
20
 10
-74.9300
 20
-33.0200
 30
0.0000
 40
2.5400
 50
180.0000
 51
270.0000
  0
ENDSEC
  0
EOF
