  0
SECTION
  2
HEADER
  9
$ACADVER
  1
AC1009
  9
$FILLMODE
 70
0
  9
$EXTMIN
 10
-91.5761
 20
-116.9162
 30
0.0000
  9
$EXTMAX
 10
94.1070
 20
111.8362
 30
0.0000
  0
ENDSEC
  0
SECTION
  2
TABLES
  0
TABLE
  2
LTYPE
 70
1
  0
LTYPE
  2
CONTINUOUS
 70
64
  3
Solid line
 72
65
 73
0
 40
0
  0
ENDTAB
  0
TABLE
  2
LAYER
 70
255
  0
LAYER
  2
20
 70
64
 62
178
  6
CONTINUOUS
  0
LAYER
  2
21
 70
64
 62
6
  6
CONTINUOUS
  0
LAYER
  2
22
 70
64
 62
4
  6
CONTINUOUS
  0
LAYER
  2
51
 70
64
 62
251
  6
CONTINUOUS
  0
ENDTAB
  0
ENDSEC
  0
SECTION
  2
BLOCKS
  0
BLOCK
  8
0
  2
RECT
 70
64
 10
0.0000
 20
0.0000
 30
0.0000
  3
RECT
  0
SOLID
  8
0
 10
-0.5000
 20
-0.5000
 30
0.0000
 11
0.5000
 21
-0.5000
 31
0.0000
 12
-0.5000
 22
0.5000
 32
0.0000
 13
0.5000
 23
0.5000
 33
0.0000
  0
ENDBLK
  8
0
  0
BLOCK
  8
0
  2
PIE
 70
64
 10
0.0000
 20
0.0000
 30
0.0000
  3
PIE
  0
CIRCLE
  8
0
 10
0.0000
 20
0.0000
 30
0.0000
 40
0.5000
  0
ENDBLK
  8
0
  0
BLOCK
  8
0
  2
OCTAGONP
 70
64
 10
0.0000
 20
0.0000
 30
0.0000
  3
OCTAGONP
  0
POLYLINE
  8
0
 66
1
 10
0.0000
 20
0.0000
 30
0.0000
 40
0.0000
 41
0.0000
 70
1
  0
VERTEX
  8
0
 10
-0.5000
 20
-0.2071
 30
0.0000
  0
VERTEX
  8
0
 10
-0.5000
 20
0.2071
 30
0.0000
  0
VERTEX
  8
0
 10
-0.2071
 20
0.5000
 30
0.0000
  0
VERTEX
  8
0
 10
0.2071
 20
0.5000
 30
0.0000
  0
VERTEX
  8
0
 10
0.5000
 20
0.2071
 30
0.0000
  0
VERTEX
  8
0
 10
0.5000
 20
-0.2071
 30
0.0000
  0
VERTEX
  8
0
 10
0.2071
 20
-0.5000
 30
0.0000
  0
VERTEX
  8
0
 10
-0.2071
 20
-0.5000
 30
0.0000
  0
SEQEND
  8
0
  0
ENDBLK
  8
0
  0
BLOCK
  8
0
  2
SQUAREP
 70
64
 10
0.0000
 20
0.0000
 30
0.0000
  3
SQUAREP
  0
SOLID
  8
0
 10
-0.5000
 20
-0.5000
 30
0.0000
 11
0.5000
 21
-0.5000
 31
0.0000
 12
-0.5000
 22
0.5000
 32
0.0000
 13
0.5000
 23
0.5000
 33
0.0000
  0
ENDBLK
  8
0
  0
BLOCK
  8
0
  2
ROUNDP
 70
64
 10
0.0000
 20
0.0000
 30
0.0000
  3
ROUNDP
  0
CIRCLE
  8
0
 10
0.0000
 20
0.0000
 30
0.0000
 40
0.5000
  0
ENDBLK
  8
0
  0
BLOCK
  8
0
  2
ANNULUSP
 70
64
 10
0.0000
 20
0.0000
 30
0.0000
  3
ANNULUSP
  0
CIRCLE
  8
0
 10
0.0000
 20
0.0000
 30
0.0000
 40
0.5000
  0
ENDBLK
  8
0
  0
BLOCK
  8
0
  2
THERMALP
 70
64
 10
0.0000
 20
0.0000
 30
0.0000
  3
THERMALP
  0
LINE
  8
0
 10
-0.2379
 20
0.4500
 30
0.0000
 11
0.2379
 21
0.4500
 31
0.0000
  0
LINE
  8
0
 10
0.4500
 20
0.2379
 30
0.0000
 11
0.4500
 21
-0.2379
 31
0.0000
  0
LINE
  8
0
 10
0.2379
 20
-0.4500
 30
0.0000
 11
-0.2379
 21
-0.4500
 31
0.0000
  0
LINE
  8
0
 10
-0.4500
 20
-0.2379
 30
0.0000
 11
-0.4500
 21
0.2379
 31
0.0000
  0
ENDBLK
  8
0
  0
BLOCK
  8
0
  2
OCTAGONV
 70
64
 10
0.0000
 20
0.0000
 30
0.0000
  3
OCTAGONV
  0
POLYLINE
  8
0
 66
1
 10
0.0000
 20
0.0000
 30
0.0000
 40
0.0000
 41
0.0000
 70
1
  0
VERTEX
  8
0
 10
-0.5000
 20
-0.2071
 30
0.0000
  0
VERTEX
  8
0
 10
-0.5000
 20
0.2071
 30
0.0000
  0
VERTEX
  8
0
 10
-0.2071
 20
0.5000
 30
0.0000
  0
VERTEX
  8
0
 10
0.2071
 20
0.5000
 30
0.0000
  0
VERTEX
  8
0
 10
0.5000
 20
0.2071
 30
0.0000
  0
VERTEX
  8
0
 10
0.5000
 20
-0.2071
 30
0.0000
  0
VERTEX
  8
0
 10
0.2071
 20
-0.5000
 30
0.0000
  0
VERTEX
  8
0
 10
-0.2071
 20
-0.5000
 30
0.0000
  0
SEQEND
  8
0
  0
ENDBLK
  8
0
  0
BLOCK
  8
0
  2
SQUAREV
 70
64
 10
0.0000
 20
0.0000
 30
0.0000
  3
SQUAREV
  0
SOLID
  8
0
 10
-0.5000
 20
-0.5000
 30
0.0000
 11
0.5000
 21
-0.5000
 31
0.0000
 12
-0.5000
 22
0.5000
 32
0.0000
 13
0.5000
 23
0.5000
 33
0.0000
  0
ENDBLK
  8
0
  0
BLOCK
  8
0
  2
ROUNDV
 70
64
 10
0.0000
 20
0.0000
 30
0.0000
  3
ROUNDV
  0
CIRCLE
  8
0
 10
0.0000
 20
0.0000
 30
0.0000
 40
0.5000
  0
ENDBLK
  8
0
  0
BLOCK
  8
0
  2
ANNULUSV
 70
64
 10
0.0000
 20
0.0000
 30
0.0000
  3
ANNULUSV
  0
CIRCLE
  8
0
 10
0.0000
 20
0.0000
 30
0.0000
 40
0.5000
  0
ENDBLK
  8
0
  0
BLOCK
  8
0
  2
THERMALV
 70
64
 10
0.0000
 20
0.0000
 30
0.0000
  3
THERMALV
  0
LINE
  8
0
 10
-0.2379
 20
0.4500
 30
0.0000
 11
0.2379
 21
0.4500
 31
0.0000
  0
LINE
  8
0
 10
0.4500
 20
0.2379
 30
0.0000
 11
0.4500
 21
-0.2379
 31
0.0000
  0
LINE
  8
0
 10
0.2379
 20
-0.4500
 30
0.0000
 11
-0.2379
 21
-0.4500
 31
0.0000
  0
LINE
  8
0
 10
-0.4500
 20
-0.2379
 30
0.0000
 11
-0.4500
 21
0.2379
 31
0.0000
  0
ENDBLK
  8
0
  0
BLOCK
  8
0
  2
OFFSETP100
 70
64
 10
0.0000
 20
0.0000
 30
0.0000
  3
OFFSETP100
  0
POLYLINE
  8
0
 66
1
 10
0.0000
 20
0.0000
 30
0.0000
 40
0.0000
 41
0.0000
 70
1
  0
VERTEX
  8
0
 10
0.0000
 20
-0.5000
 30
0.0000
  0
VERTEX
  8
0
 10
1.0000
 20
-0.5000
 30
0.0000
 42
1.0000
  0
VERTEX
  8
0
 10
1.0000
 20
0.5000
 30
0.0000
  0
VERTEX
  8
0
 10
0.0000
 20
0.5000
 30
0.0000
 42
1.0000
  0
SEQEND
  8
0
  0
ENDBLK
  8
0
  0
BLOCK
  8
0
  2
LONGP60
 70
64
 10
0.0000
 20
0.0000
 30
0.0000
  3
LONGP60
  0
POLYLINE
  8
0
 66
1
 10
0.0000
 20
0.0000
 30
0.0000
 40
0.0000
 41
0.0000
 70
1
  0
VERTEX
  8
0
 10
-0.3000
 20
-0.5000
 30
0.0000
  0
VERTEX
  8
0
 10
0.3000
 20
-0.5000
 30
0.0000
 42
1.0000
  0
VERTEX
  8
0
 10
0.3000
 20
0.5000
 30
0.0000
  0
VERTEX
  8
0
 10
-0.3000
 20
0.5000
 30
0.0000
 42
1.0000
  0
SEQEND
  8
0
  0
ENDBLK
  8
0
  0
ENDSEC
  0
SECTION
  2
ENTITIES
  0
LINE
  8
51
 10
88.9000
 20
0.0000
 30
0.0000
 11
89.9267
 21
0.0000
 31
0.0000
  0
LINE
  8
51
 10
90.9267
 20
0.0000
 30
0.0000
 11
91.9533
 21
0.0000
 31
0.0000
  0
LINE
  8
51
 10
92.9533
 20
0.0000
 30
0.0000
 11
93.9800
 21
0.0000
 31
0.0000
  0
CIRCLE
  8
22
 10
0.0000
 20
0.0000
 30
0.0000
 40
16.1005
  0
LINE
  8
21
 10
26.7716
 20
-59.7916
 30
0.0000
 11
26.7716
 21
-66.3956
 31
0.0000
  0
LINE
  8
21
 10
7.2136
 20
-66.3956
 30
0.0000
 11
7.2136
 21
-59.7916
 31
0.0000
  0
LINE
  8
21
 10
7.2136
 20
-66.3956
 30
0.0000
 11
26.7716
 21
-66.3956
 31
0.0000
  0
LINE
  8
21
 10
23.1206
 20
-65.1446
 30
0.0000
 11
22.1046
 21
-65.1446
 31
0.0000
  0
ARC
  8
21
 10
16.6770
 20
-65.1716
 30
0.0000
 40
0.3302
 50
0.0000
 51
180.0000
  0
ARC
  8
21
 10
17.3374
 20
-65.1716
 30
0.0000
 40
0.3302
 50
180.0000
 51
0.0000
  0
LINE
  8
21
 10
22.6126
 20
-64.6366
 30
0.0000
 11
22.6126
 21
-65.6526
 31
0.0000
  0
LINE
  8
21
 10
11.8806
 20
-65.1446
 30
0.0000
 11
10.8646
 21
-65.1446
 31
0.0000
  0
LINE
  8
21
 10
26.7926
 20
-59.7666
 30
0.0000
 11
26.1926
 21
-59.7666
 31
0.0000
  0
LINE
  8
21
 10
7.1926
 20
-59.7666
 30
0.0000
 11
7.7926
 21
-59.7666
 31
0.0000
  0
LINE
  8
51
 10
26.7926
 20
-59.7666
 30
0.0000
 11
26.7926
 21
-66.3666
 31
0.0000
  0
LINE
  8
51
 10
26.7926
 20
-66.3666
 30
0.0000
 11
7.1926
 21
-66.3666
 31
0.0000
  0
LINE
  8
51
 10
7.1926
 20
-66.3666
 30
0.0000
 11
7.1926
 21
-59.7666
 31
0.0000
  0
LINE
  8
51
 10
7.1926
 20
-59.7666
 30
0.0000
 11
26.7926
 21
-59.7666
 31
0.0000
  0
LINE
  8
51
 10
-4.5470
 20
-55.4480
 30
0.0000
 11
-3.8350
 21
-55.4480
 31
0.0000
  0
LINE
  8
51
 10
-4.5470
 20
-56.2990
 30
0.0000
 11
-3.8350
 21
-56.2990
 31
0.0000
  0
INSERT
  8
51
  2
RECT
 10
-4.7792
 20
-55.8749
 30
0.0000
 41
0.5001
 42
0.9500
 43
1.0000
 50
0.0000
  0
INSERT
  8
51
  2
RECT
 10
-3.6108
 20
-55.8749
 30
0.0000
 41
0.5001
 42
0.9500
 43
1.0000
 50
0.0000
  0
LINE
  8
51
 10
-2.7430
 20
-59.5880
 30
0.0000
 11
-2.7430
 21
-60.3000
 31
0.0000
  0
LINE
  8
51
 10
-3.5940
 20
-59.5880
 30
0.0000
 11
-3.5940
 21
-60.3000
 31
0.0000
  0
INSERT
  8
51
  2
RECT
 10
-3.1699
 20
-59.3559
 30
0.0000
 41
0.5001
 42
0.9500
 43
1.0000
 50
270.0000
  0
INSERT
  8
51
  2
RECT
 10
-3.1699
 20
-60.5243
 30
0.0000
 41
0.5001
 42
0.9500
 43
1.0000
 50
270.0000
  0
LINE
  8
51
 10
23.1900
 20
50.0630
 30
0.0000
 11
23.1900
 21
50.7750
 31
0.0000
  0
LINE
  8
51
 10
24.0410
 20
50.0630
 30
0.0000
 11
24.0410
 21
50.7750
 31
0.0000
  0
INSERT
  8
51
  2
RECT
 10
23.6169
 20
49.8309
 30
0.0000
 41
0.5001
 42
0.9500
 43
1.0000
 50
90.0000
  0
INSERT
  8
51
  2
RECT
 10
23.6169
 20
50.9993
 30
0.0000
 41
0.5001
 42
0.9500
 43
1.0000
 50
90.0000
  0
LINE
  8
51
 10
3.6070
 20
-59.5880
 30
0.0000
 11
3.6070
 21
-60.3000
 31
0.0000
  0
LINE
  8
51
 10
2.7560
 20
-59.5880
 30
0.0000
 11
2.7560
 21
-60.3000
 31
0.0000
  0
INSERT
  8
51
  2
RECT
 10
3.1801
 20
-59.3559
 30
0.0000
 41
0.5001
 42
0.9500
 43
1.0000
 50
270.0000
  0
INSERT
  8
51
  2
RECT
 10
3.1801
 20
-60.5243
 30
0.0000
 41
0.5001
 42
0.9500
 43
1.0000
 50
270.0000
  0
LINE
  8
51
 10
-3.9620
 20
-36.3730
 30
0.0000
 11
-4.6740
 21
-36.3730
 31
0.0000
  0
LINE
  8
51
 10
-3.9620
 20
-35.5220
 30
0.0000
 11
-4.6740
 21
-35.5220
 31
0.0000
  0
INSERT
  8
51
  2
RECT
 10
-3.7299
 20
-35.9461
 30
0.0000
 41
0.5001
 42
0.9500
 43
1.0000
 50
180.0000
  0
INSERT
  8
51
  2
RECT
 10
-4.8982
 20
-35.9461
 30
0.0000
 41
0.5001
 42
0.9500
 43
1.0000
 50
180.0000
  0
LINE
  8
51
 10
-11.1510
 20
-40.9700
 30
0.0000
 11
-10.4390
 21
-40.9700
 31
0.0000
  0
LINE
  8
51
 10
-11.1510
 20
-41.8210
 30
0.0000
 11
-10.4390
 21
-41.8210
 31
0.0000
  0
INSERT
  8
51
  2
RECT
 10
-11.3832
 20
-41.3969
 30
0.0000
 41
0.5001
 42
0.9500
 43
1.0000
 50
0.0000
  0
INSERT
  8
51
  2
RECT
 10
-10.2148
 20
-41.3969
 30
0.0000
 41
0.5001
 42
0.9500
 43
1.0000
 50
0.0000
  0
LINE
  8
51
 10
-17.9580
 20
52.6030
 30
0.0000
 11
-17.9580
 21
53.3150
 31
0.0000
  0
LINE
  8
51
 10
-17.1070
 20
52.6030
 30
0.0000
 11
-17.1070
 21
53.3150
 31
0.0000
  0
INSERT
  8
51
  2
RECT
 10
-17.5311
 20
52.3709
 30
0.0000
 41
0.5001
 42
0.9500
 43
1.0000
 50
90.0000
  0
INSERT
  8
51
  2
RECT
 10
-17.5311
 20
53.5393
 30
0.0000
 41
0.5001
 42
0.9500
 43
1.0000
 50
90.0000
  0
LINE
  8
51
 10
-14.6300
 20
-39.0400
 30
0.0000
 11
-15.3420
 21
-39.0400
 31
0.0000
  0
LINE
  8
51
 10
-14.6300
 20
-38.1890
 30
0.0000
 11
-15.3420
 21
-38.1890
 31
0.0000
  0
INSERT
  8
51
  2
RECT
 10
-14.3979
 20
-38.6131
 30
0.0000
 41
0.5001
 42
0.9500
 43
1.0000
 50
180.0000
  0
INSERT
  8
51
  2
RECT
 10
-15.5663
 20
-38.6131
 30
0.0000
 41
0.5001
 42
0.9500
 43
1.0000
 50
180.0000
  0
LINE
  8
51
 10
-10.4390
 20
-46.9140
 30
0.0000
 11
-11.1510
 21
-46.9140
 31
0.0000
  0
LINE
  8
51
 10
-10.4390
 20
-46.0630
 30
0.0000
 11
-11.1510
 21
-46.0630
 31
0.0000
  0
INSERT
  8
51
  2
RECT
 10
-10.2069
 20
-46.4871
 30
0.0000
 41
0.5001
 42
0.9500
 43
1.0000
 50
180.0000
  0
INSERT
  8
51
  2
RECT
 10
-11.3753
 20
-46.4871
 30
0.0000
 41
0.5001
 42
0.9500
 43
1.0000
 50
180.0000
  0
LINE
  8
51
 10
7.4420
 20
52.6030
 30
0.0000
 11
7.4420
 21
53.3150
 31
0.0000
  0
LINE
  8
51
 10
8.2930
 20
52.6030
 30
0.0000
 11
8.2930
 21
53.3150
 31
0.0000
  0
INSERT
  8
51
  2
RECT
 10
7.8689
 20
52.3709
 30
0.0000
 41
0.5001
 42
0.9500
 43
1.0000
 50
90.0000
  0
INSERT
  8
51
  2
RECT
 10
7.8689
 20
53.5393
 30
0.0000
 41
0.5001
 42
0.9500
 43
1.0000
 50
90.0000
  0
LINE
  8
51
 10
-6.1720
 20
-19.0750
 30
0.0000
 11
-6.1720
 21
-19.7870
 31
0.0000
  0
LINE
  8
51
 10
-7.0230
 20
-19.0750
 30
0.0000
 11
-7.0230
 21
-19.7870
 31
0.0000
  0
INSERT
  8
51
  2
RECT
 10
-6.5989
 20
-18.8429
 30
0.0000
 41
0.5001
 42
0.9500
 43
1.0000
 50
270.0000
  0
INSERT
  8
51
  2
RECT
 10
-6.5989
 20
-20.0113
 30
0.0000
 41
0.5001
 42
0.9500
 43
1.0000
 50
270.0000
  0
LINE
  8
51
 10
-33.7060
 20
50.0630
 30
0.0000
 11
-33.7060
 21
50.7750
 31
0.0000
  0
LINE
  8
51
 10
-32.8550
 20
50.0630
 30
0.0000
 11
-32.8550
 21
50.7750
 31
0.0000
  0
INSERT
  8
51
  2
RECT
 10
-33.2791
 20
49.8309
 30
0.0000
 41
0.5001
 42
0.9500
 43
1.0000
 50
90.0000
  0
INSERT
  8
51
  2
RECT
 10
-33.2791
 20
50.9993
 30
0.0000
 41
0.5001
 42
0.9500
 43
1.0000
 50
90.0000
  0
LINE
  8
51
 10
-9.9950
 20
-12.6000
 30
0.0000
 11
-10.5450
 21
-12.1500
 31
0.0000
  0
LINE
  8
51
 10
-10.5450
 20
-12.1500
 30
0.0000
 11
-11.2450
 21
-11.8500
 31
0.0000
  0
LINE
  8
51
 10
-11.2450
 20
-11.8500
 30
0.0000
 11
-12.1450
 21
-11.7000
 31
0.0000
  0
LINE
  8
51
 10
-12.1450
 20
-11.7000
 30
0.0000
 11
-13.0950
 21
-11.8500
 31
0.0000
  0
LINE
  8
51
 10
-13.0950
 20
-11.8500
 30
0.0000
 11
-13.7950
 21
-12.2000
 31
0.0000
  0
LINE
  8
51
 10
-13.7950
 20
-12.2000
 30
0.0000
 11
-14.2950
 21
-12.6000
 31
0.0000
  0
LINE
  8
51
 10
-14.2950
 20
-12.6000
 30
0.0000
 11
-10.0450
 21
-12.6000
 31
0.0000
  0
LINE
  8
51
 10
-10.0450
 20
-12.6000
 30
0.0000
 11
-9.9950
 21
-12.6000
 31
0.0000
  0
LINE
  8
51
 10
-14.2786
 20
-12.5869
 30
0.0000
 11
-14.2786
 21
-12.6000
 31
0.0000
  0
LINE
  8
51
 10
-14.1770
 20
-12.5056
 30
0.0000
 11
-14.1770
 21
-12.6000
 31
0.0000
  0
LINE
  8
51
 10
-14.0754
 20
-12.4243
 30
0.0000
 11
-14.0754
 21
-12.6000
 31
0.0000
  0
LINE
  8
51
 10
-13.9738
 20
-12.3430
 30
0.0000
 11
-13.9738
 21
-12.6000
 31
0.0000
  0
LINE
  8
51
 10
-13.8722
 20
-12.2618
 30
0.0000
 11
-13.8722
 21
-12.6000
 31
0.0000
  0
LINE
  8
51
 10
-13.7706
 20
-12.1878
 30
0.0000
 11
-13.7706
 21
-12.6000
 31
0.0000
  0
LINE
  8
51
 10
-13.6690
 20
-12.1370
 30
0.0000
 11
-13.6690
 21
-12.6000
 31
0.0000
  0
LINE
  8
51
 10
-13.5674
 20
-12.0862
 30
0.0000
 11
-13.5674
 21
-12.6000
 31
0.0000
  0
LINE
  8
51
 10
-13.4658
 20
-12.0354
 30
0.0000
 11
-13.4658
 21
-12.6000
 31
0.0000
  0
LINE
  8
51
 10
-13.3642
 20
-11.9846
 30
0.0000
 11
-13.3642
 21
-12.6000
 31
0.0000
  0
LINE
  8
51
 10
-13.2626
 20
-11.9338
 30
0.0000
 11
-13.2626
 21
-12.6000
 31
0.0000
  0
LINE
  8
51
 10
-13.1610
 20
-11.8830
 30
0.0000
 11
-13.1610
 21
-12.6000
 31
0.0000
  0
LINE
  8
51
 10
-13.0594
 20
-11.8444
 30
0.0000
 11
-13.0594
 21
-12.6000
 31
0.0000
  0
LINE
  8
51
 10
-12.9578
 20
-11.8283
 30
0.0000
 11
-12.9578
 21
-12.6000
 31
0.0000
  0
LINE
  8
51
 10
-12.8562
 20
-11.8123
 30
0.0000
 11
-12.8562
 21
-12.6000
 31
0.0000
  0
LINE
  8
51
 10
-12.7546
 20
-11.7963
 30
0.0000
 11
-12.7546
 21
-12.6000
 31
0.0000
  0
LINE
  8
51
 10
-12.6530
 20
-11.7802
 30
0.0000
 11
-12.6530
 21
-12.6000
 31
0.0000
  0
LINE
  8
51
 10
-12.5514
 20
-11.7642
 30
0.0000
 11
-12.5514
 21
-12.6000
 31
0.0000
  0
LINE
  8
51
 10
-12.4498
 20
-11.7481
 30
0.0000
 11
-12.4498
 21
-12.6000
 31
0.0000
  0
LINE
  8
51
 10
-12.3482
 20
-11.7321
 30
0.0000
 11
-12.3482
 21
-12.6000
 31
0.0000
  0
LINE
  8
51
 10
-12.2466
 20
-11.7160
 30
0.0000
 11
-12.2466
 21
-12.6000
 31
0.0000
  0
LINE
  8
51
 10
-12.1450
 20
-11.7000
 30
0.0000
 11
-12.1450
 21
-12.6000
 31
0.0000
  0
LINE
  8
51
 10
-12.0434
 20
-11.7169
 30
0.0000
 11
-12.0434
 21
-12.6000
 31
0.0000
  0
LINE
  8
51
 10
-11.9418
 20
-11.7339
 30
0.0000
 11
-11.9418
 21
-12.6000
 31
0.0000
  0
LINE
  8
51
 10
-11.8402
 20
-11.7508
 30
0.0000
 11
-11.8402
 21
-12.6000
 31
0.0000
  0
LINE
  8
51
 10
-11.7386
 20
-11.7677
 30
0.0000
 11
-11.7386
 21
-12.6000
 31
0.0000
  0
LINE
  8
51
 10
-11.6370
 20
-11.7847
 30
0.0000
 11
-11.6370
 21
-12.6000
 31
0.0000
  0
LINE
  8
51
 10
-11.5354
 20
-11.8016
 30
0.0000
 11
-11.5354
 21
-12.6000
 31
0.0000
  0
LINE
  8
51
 10
-11.4338
 20
-11.8185
 30
0.0000
 11
-11.4338
 21
-12.6000
 31
0.0000
  0
LINE
  8
51
 10
-11.3322
 20
-11.8355
 30
0.0000
 11
-11.3322
 21
-12.6000
 31
0.0000
  0
LINE
  8
51
 10
-11.2306
 20
-11.8562
 30
0.0000
 11
-11.2306
 21
-12.6000
 31
0.0000
  0
LINE
  8
51
 10
-11.1290
 20
-11.8997
 30
0.0000
 11
-11.1290
 21
-12.6000
 31
0.0000
  0
LINE
  8
51
 10
-11.0274
 20
-11.9433
 30
0.0000
 11
-11.0274
 21
-12.6000
 31
0.0000
  0
LINE
  8
51
 10
-10.9258
 20
-11.9868
 30
0.0000
 11
-10.9258
 21
-12.6000
 31
0.0000
  0
LINE
  8
51
 10
-10.8242
 20
-12.0303
 30
0.0000
 11
-10.8242
 21
-12.6000
 31
0.0000
  0
LINE
  8
51
 10
-10.7226
 20
-12.0739
 30
0.0000
 11
-10.7226
 21
-12.6000
 31
0.0000
  0
LINE
  8
51
 10
-10.6210
 20
-12.1174
 30
0.0000
 11
-10.6210
 21
-12.6000
 31
0.0000
  0
LINE
  8
51
 10
-10.5194
 20
-12.1709
 30
0.0000
 11
-10.5194
 21
-12.6000
 31
0.0000
  0
LINE
  8
51
 10
-10.4178
 20
-12.2541
 30
0.0000
 11
-10.4178
 21
-12.6000
 31
0.0000
  0
LINE
  8
51
 10
-10.3162
 20
-12.3372
 30
0.0000
 11
-10.3162
 21
-12.6000
 31
0.0000
  0
LINE
  8
51
 10
-10.2146
 20
-12.4203
 30
0.0000
 11
-10.2146
 21
-12.6000
 31
0.0000
  0
LINE
  8
51
 10
-10.1130
 20
-12.5035
 30
0.0000
 11
-10.1130
 21
-12.6000
 31
0.0000
  0
LINE
  8
51
 10
-10.0114
 20
-12.5866
 30
0.0000
 11
-10.0114
 21
-12.6000
 31
0.0000
  0
LINE
  8
51
 10
-8.8950
 20
-11.5000
 30
0.0000
 11
-8.8950
 21
-16.3000
 31
0.0000
  0
LINE
  8
51
 10
-8.8950
 20
-16.3000
 30
0.0000
 11
-10.5950
 21
-18.0000
 31
0.0000
  0
LINE
  8
51
 10
-10.5950
 20
-18.0000
 30
0.0000
 11
-13.6950
 21
-18.0000
 31
0.0000
  0
LINE
  8
51
 10
-13.6950
 20
-18.0000
 30
0.0000
 11
-15.3950
 21
-16.3000
 31
0.0000
  0
LINE
  8
51
 10
-15.3950
 20
-16.3000
 30
0.0000
 11
-15.3950
 21
-11.5000
 31
0.0000
  0
LINE
  8
51
 10
-15.3950
 20
-11.5000
 30
0.0000
 11
-8.8950
 21
-11.5000
 31
0.0000
  0
LINE
  8
21
 10
-11.1950
 20
-11.5000
 30
0.0000
 11
-8.8950
 21
-11.5000
 31
0.0000
  0
LINE
  8
21
 10
-8.8950
 20
-11.5000
 30
0.0000
 11
-8.8950
 21
-16.3000
 31
0.0000
  0
LINE
  8
21
 10
-8.8950
 20
-16.3000
 30
0.0000
 11
-10.5950
 21
-18.0000
 31
0.0000
  0
LINE
  8
21
 10
-10.5950
 20
-18.0000
 30
0.0000
 11
-11.1950
 21
-18.0000
 31
0.0000
  0
LINE
  8
21
 10
-13.0950
 20
-18.0000
 30
0.0000
 11
-13.6950
 21
-18.0000
 31
0.0000
  0
LINE
  8
21
 10
-13.6950
 20
-18.0000
 30
0.0000
 11
-15.3950
 21
-16.3000
 31
0.0000
  0
LINE
  8
21
 10
-15.3950
 20
-16.3000
 30
0.0000
 11
-15.3950
 21
-11.5000
 31
0.0000
  0
LINE
  8
21
 10
-15.3950
 20
-11.5000
 30
0.0000
 11
-13.0950
 21
-11.5000
 31
0.0000
  0
ARC
  8
21
 10
-12.1450
 20
-14.7500
 30
0.0000
 40
3.0992
 50
287.8503
 51
72.1497
  0
ARC
  8
21
 10
-12.1450
 20
-14.7500
 30
0.0000
 40
3.0992
 50
107.8503
 51
252.1497
  0
LINE
  8
51
 10
-9.8950
 20
-12.6500
 30
0.0000
 11
-14.3450
 21
-12.6500
 31
0.0000
  0
CIRCLE
  8
51
 10
-12.1450
 20
-14.7500
 30
0.0000
 40
3.1000
  0
INSERT
  8
51
  2
RECT
 10
-12.1450
 20
-11.4000
 30
0.0000
 41
0.6000
 42
0.7000
 43
1.0000
 50
270.0000
  0
INSERT
  8
51
  2
RECT
 10
-12.1450
 20
-18.1000
 30
0.0000
 41
0.6000
 42
0.7000
 43
1.0000
 50
270.0000
  0
LINE
  8
51
 10
5.8770
 20
-20.1020
 30
0.0000
 11
5.8770
 21
-18.2520
 31
0.0000
  0
LINE
  8
51
 10
7.0770
 20
-18.2520
 30
0.0000
 11
7.0770
 21
-20.1020
 31
0.0000
  0
INSERT
  8
51
  2
RECT
 10
6.4770
 20
-19.9270
 30
0.0000
 41
0.5000
 42
1.3000
 43
1.0000
 50
90.0000
  0
INSERT
  8
51
  2
RECT
 10
6.4770
 20
-18.4270
 30
0.0000
 41
0.5000
 42
1.3000
 43
1.0000
 50
90.0000
  0
LINE
  8
51
 10
-5.2580
 20
52.6030
 30
0.0000
 11
-5.2580
 21
53.3150
 31
0.0000
  0
LINE
  8
51
 10
-4.4070
 20
52.6030
 30
0.0000
 11
-4.4070
 21
53.3150
 31
0.0000
  0
INSERT
  8
51
  2
RECT
 10
-4.8311
 20
52.3709
 30
0.0000
 41
0.5001
 42
0.9500
 43
1.0000
 50
90.0000
  0
INSERT
  8
51
  2
RECT
 10
-4.8311
 20
53.5393
 30
0.0000
 41
0.5001
 42
0.9500
 43
1.0000
 50
90.0000
  0
LINE
  8
51
 10
6.7820
 20
-29.6160
 30
0.0000
 11
6.7820
 21
-30.3280
 31
0.0000
  0
LINE
  8
51
 10
5.9310
 20
-29.6160
 30
0.0000
 11
5.9310
 21
-30.3280
 31
0.0000
  0
INSERT
  8
51
  2
RECT
 10
6.3551
 20
-29.3839
 30
0.0000
 41
0.5001
 42
0.9500
 43
1.0000
 50
270.0000
  0
INSERT
  8
51
  2
RECT
 10
6.3551
 20
-30.5523
 30
0.0000
 41
0.5001
 42
0.9500
 43
1.0000
 50
270.0000
  0
LINE
  8
51
 10
-6.7820
 20
-26.3910
 30
0.0000
 11
-6.7820
 21
-25.6790
 31
0.0000
  0
LINE
  8
51
 10
-5.9310
 20
-26.3910
 30
0.0000
 11
-5.9310
 21
-25.6790
 31
0.0000
  0
INSERT
  8
51
  2
RECT
 10
-6.3551
 20
-26.6232
 30
0.0000
 41
0.5001
 42
0.9500
 43
1.0000
 50
90.0000
  0
INSERT
  8
51
  2
RECT
 10
-6.3551
 20
-25.4548
 30
0.0000
 41
0.5001
 42
0.9500
 43
1.0000
 50
90.0000
  0
LINE
  8
51
 10
-58.2460
 20
34.4680
 30
0.0000
 11
-58.2460
 21
37.6680
 31
0.0000
  0
LINE
  8
51
 10
-58.2460
 20
37.6680
 30
0.0000
 11
-55.5460
 21
37.6680
 31
0.0000
  0
LINE
  8
51
 10
-55.5460
 20
37.6680
 30
0.0000
 11
-55.5460
 21
34.4680
 31
0.0000
  0
LINE
  8
51
 10
-55.5460
 20
34.4680
 30
0.0000
 11
-58.2460
 21
34.4680
 31
0.0000
  0
INSERT
  8
51
  2
RECT
 10
-56.8960
 20
34.4180
 30
0.0000
 41
0.2000
 42
2.2000
 43
1.0000
 50
90.0000
  0
INSERT
  8
51
  2
RECT
 10
-56.8960
 20
37.7180
 30
0.0000
 41
0.2000
 42
2.2000
 43
1.0000
 50
270.0000
  0
INSERT
  8
51
  2
RECT
 10
-56.8960
 20
34.7930
 30
0.0000
 41
0.6500
 42
2.7000
 43
1.0000
 50
90.0000
  0
LINE
  8
51
 10
-54.9440
 20
34.4680
 30
0.0000
 11
-54.9440
 21
37.6680
 31
0.0000
  0
LINE
  8
51
 10
-54.9440
 20
37.6680
 30
0.0000
 11
-52.2440
 21
37.6680
 31
0.0000
  0
LINE
  8
51
 10
-52.2440
 20
37.6680
 30
0.0000
 11
-52.2440
 21
34.4680
 31
0.0000
  0
LINE
  8
51
 10
-52.2440
 20
34.4680
 30
0.0000
 11
-54.9440
 21
34.4680
 31
0.0000
  0
INSERT
  8
51
  2
RECT
 10
-53.5940
 20
34.4180
 30
0.0000
 41
0.2000
 42
2.2000
 43
1.0000
 50
90.0000
  0
INSERT
  8
51
  2
RECT
 10
-53.5940
 20
37.7180
 30
0.0000
 41
0.2000
 42
2.2000
 43
1.0000
 50
270.0000
  0
INSERT
  8
51
  2
RECT
 10
-53.5940
 20
34.7930
 30
0.0000
 41
0.6500
 42
2.7000
 43
1.0000
 50
90.0000
  0
LINE
  8
51
 10
-51.4000
 20
35.6510
 30
0.0000
 11
-51.4000
 21
37.5010
 31
0.0000
  0
LINE
  8
51
 10
-50.2000
 20
37.5010
 30
0.0000
 11
-50.2000
 21
35.6510
 31
0.0000
  0
INSERT
  8
51
  2
RECT
 10
-50.8000
 20
35.8260
 30
0.0000
 41
0.5000
 42
1.3000
 43
1.0000
 50
90.0000
  0
INSERT
  8
51
  2
RECT
 10
-50.8000
 20
37.3260
 30
0.0000
 41
0.5000
 42
1.3000
 43
1.0000
 50
90.0000
  0
LINE
  8
51
 10
-44.4250
 20
23.6730
 30
0.0000
 11
-43.7130
 21
23.6730
 31
0.0000
  0
LINE
  8
51
 10
-44.4250
 20
22.8220
 30
0.0000
 11
-43.7130
 21
22.8220
 31
0.0000
  0
INSERT
  8
51
  2
RECT
 10
-44.6572
 20
23.2461
 30
0.0000
 41
0.5001
 42
0.9500
 43
1.0000
 50
0.0000
  0
INSERT
  8
51
  2
RECT
 10
-43.4888
 20
23.2461
 30
0.0000
 41
0.5001
 42
0.9500
 43
1.0000
 50
0.0000
  0
LINE
  8
51
 10
-39.3230
 20
27.7370
 30
0.0000
 11
-39.3230
 21
30.9370
 31
0.0000
  0
LINE
  8
51
 10
-39.3230
 20
30.9370
 30
0.0000
 11
-36.6230
 21
30.9370
 31
0.0000
  0
LINE
  8
51
 10
-36.6230
 20
30.9370
 30
0.0000
 11
-36.6230
 21
27.7370
 31
0.0000
  0
LINE
  8
51
 10
-36.6230
 20
27.7370
 30
0.0000
 11
-39.3230
 21
27.7370
 31
0.0000
  0
INSERT
  8
51
  2
RECT
 10
-37.9730
 20
27.6870
 30
0.0000
 41
0.2000
 42
2.2000
 43
1.0000
 50
90.0000
  0
INSERT
  8
51
  2
RECT
 10
-37.9730
 20
30.9870
 30
0.0000
 41
0.2000
 42
2.2000
 43
1.0000
 50
270.0000
  0
INSERT
  8
51
  2
RECT
 10
-37.9730
 20
28.0620
 30
0.0000
 41
0.6500
 42
2.7000
 43
1.0000
 50
90.0000
  0
LINE
  8
51
 10
-35.8940
 20
27.7370
 30
0.0000
 11
-35.8940
 21
30.9370
 31
0.0000
  0
LINE
  8
51
 10
-35.8940
 20
30.9370
 30
0.0000
 11
-33.1940
 21
30.9370
 31
0.0000
  0
LINE
  8
51
 10
-33.1940
 20
30.9370
 30
0.0000
 11
-33.1940
 21
27.7370
 31
0.0000
  0
LINE
  8
51
 10
-33.1940
 20
27.7370
 30
0.0000
 11
-35.8940
 21
27.7370
 31
0.0000
  0
INSERT
  8
51
  2
RECT
 10
-34.5440
 20
27.6870
 30
0.0000
 41
0.2000
 42
2.2000
 43
1.0000
 50
90.0000
  0
INSERT
  8
51
  2
RECT
 10
-34.5440
 20
30.9870
 30
0.0000
 41
0.2000
 42
2.2000
 43
1.0000
 50
270.0000
  0
INSERT
  8
51
  2
RECT
 10
-34.5440
 20
28.0620
 30
0.0000
 41
0.6500
 42
2.7000
 43
1.0000
 50
90.0000
  0
LINE
  8
51
 10
-41.4940
 20
28.4120
 30
0.0000
 11
-41.4940
 21
30.2620
 31
0.0000
  0
LINE
  8
51
 10
-40.2940
 20
30.2620
 30
0.0000
 11
-40.2940
 21
28.4120
 31
0.0000
  0
INSERT
  8
51
  2
RECT
 10
-40.8940
 20
28.5870
 30
0.0000
 41
0.5000
 42
1.3000
 43
1.0000
 50
90.0000
  0
INSERT
  8
51
  2
RECT
 10
-40.8940
 20
30.0870
 30
0.0000
 41
0.5000
 42
1.3000
 43
1.0000
 50
90.0000
  0
LINE
  8
51
 10
-28.9090
 20
-54.0510
 30
0.0000
 11
-28.9090
 21
-50.8510
 31
0.0000
  0
LINE
  8
51
 10
-28.9090
 20
-50.8510
 30
0.0000
 11
-26.2090
 21
-50.8510
 31
0.0000
  0
LINE
  8
51
 10
-26.2090
 20
-50.8510
 30
0.0000
 11
-26.2090
 21
-54.0510
 31
0.0000
  0
LINE
  8
51
 10
-26.2090
 20
-54.0510
 30
0.0000
 11
-28.9090
 21
-54.0510
 31
0.0000
  0
INSERT
  8
51
  2
RECT
 10
-27.5590
 20
-54.1010
 30
0.0000
 41
0.2000
 42
2.2000
 43
1.0000
 50
90.0000
  0
INSERT
  8
51
  2
RECT
 10
-27.5590
 20
-50.8010
 30
0.0000
 41
0.2000
 42
2.2000
 43
1.0000
 50
270.0000
  0
INSERT
  8
51
  2
RECT
 10
-27.5590
 20
-53.7260
 30
0.0000
 41
0.6500
 42
2.7000
 43
1.0000
 50
90.0000
  0
LINE
  8
51
 10
-26.2090
 20
-57.9630
 30
0.0000
 11
-26.2090
 21
-61.1630
 31
0.0000
  0
LINE
  8
51
 10
-26.2090
 20
-61.1630
 30
0.0000
 11
-28.9090
 21
-61.1630
 31
0.0000
  0
LINE
  8
51
 10
-28.9090
 20
-61.1630
 30
0.0000
 11
-28.9090
 21
-57.9630
 31
0.0000
  0
LINE
  8
51
 10
-28.9090
 20
-57.9630
 30
0.0000
 11
-26.2090
 21
-57.9630
 31
0.0000
  0
INSERT
  8
51
  2
RECT
 10
-27.5590
 20
-57.9130
 30
0.0000
 41
0.2000
 42
2.2000
 43
1.0000
 50
270.0000
  0
INSERT
  8
51
  2
RECT
 10
-27.5590
 20
-61.2130
 30
0.0000
 41
0.2000
 42
2.2000
 43
1.0000
 50
90.0000
  0
INSERT
  8
51
  2
RECT
 10
-27.5590
 20
-58.2880
 30
0.0000
 41
0.6500
 42
2.7000
 43
1.0000
 50
270.0000
  0
LINE
  8
51
 10
42.7900
 20
-58.5380
 30
0.0000
 11
43.2400
 21
-57.9880
 31
0.0000
  0
LINE
  8
51
 10
43.2400
 20
-57.9880
 30
0.0000
 11
43.5400
 21
-57.2880
 31
0.0000
  0
LINE
  8
51
 10
43.5400
 20
-57.2880
 30
0.0000
 11
43.6900
 21
-56.3880
 31
0.0000
  0
LINE
  8
51
 10
43.6900
 20
-56.3880
 30
0.0000
 11
43.5400
 21
-55.4380
 31
0.0000
  0
LINE
  8
51
 10
43.5400
 20
-55.4380
 30
0.0000
 11
43.1900
 21
-54.7380
 31
0.0000
  0
LINE
  8
51
 10
43.1900
 20
-54.7380
 30
0.0000
 11
42.7900
 21
-54.2380
 31
0.0000
  0
LINE
  8
51
 10
42.7900
 20
-54.2380
 30
0.0000
 11
42.7900
 21
-58.4880
 31
0.0000
  0
LINE
  8
51
 10
42.7900
 20
-58.4880
 30
0.0000
 11
42.7900
 21
-58.5380
 31
0.0000
  0
LINE
  8
51
 10
42.8031
 20
-54.2544
 30
0.0000
 11
42.7900
 21
-54.2544
 31
0.0000
  0
LINE
  8
51
 10
42.8844
 20
-54.3560
 30
0.0000
 11
42.7900
 21
-54.3560
 31
0.0000
  0
LINE
  8
51
 10
42.9657
 20
-54.4576
 30
0.0000
 11
42.7900
 21
-54.4576
 31
0.0000
  0
LINE
  8
51
 10
43.0470
 20
-54.5592
 30
0.0000
 11
42.7900
 21
-54.5592
 31
0.0000
  0
LINE
  8
51
 10
43.1282
 20
-54.6608
 30
0.0000
 11
42.7900
 21
-54.6608
 31
0.0000
  0
LINE
  8
51
 10
43.2022
 20
-54.7624
 30
0.0000
 11
42.7900
 21
-54.7624
 31
0.0000
  0
LINE
  8
51
 10
43.2530
 20
-54.8640
 30
0.0000
 11
42.7900
 21
-54.8640
 31
0.0000
  0
LINE
  8
51
 10
43.3038
 20
-54.9656
 30
0.0000
 11
42.7900
 21
-54.9656
 31
0.0000
  0
LINE
  8
51
 10
43.3546
 20
-55.0672
 30
0.0000
 11
42.7900
 21
-55.0672
 31
0.0000
  0
LINE
  8
51
 10
43.4054
 20
-55.1688
 30
0.0000
 11
42.7900
 21
-55.1688
 31
0.0000
  0
LINE
  8
51
 10
43.4562
 20
-55.2704
 30
0.0000
 11
42.7900
 21
-55.2704
 31
0.0000
  0
LINE
  8
51
 10
43.5070
 20
-55.3720
 30
0.0000
 11
42.7900
 21
-55.3720
 31
0.0000
  0
LINE
  8
51
 10
43.5456
 20
-55.4736
 30
0.0000
 11
42.7900
 21
-55.4736
 31
0.0000
  0
LINE
  8
51
 10
43.5617
 20
-55.5752
 30
0.0000
 11
42.7900
 21
-55.5752
 31
0.0000
  0
LINE
  8
51
 10
43.5777
 20
-55.6768
 30
0.0000
 11
42.7900
 21
-55.6768
 31
0.0000
  0
LINE
  8
51
 10
43.5938
 20
-55.7784
 30
0.0000
 11
42.7900
 21
-55.7784
 31
0.0000
  0
LINE
  8
51
 10
43.6098
 20
-55.8800
 30
0.0000
 11
42.7900
 21
-55.8800
 31
0.0000
  0
LINE
  8
51
 10
43.6258
 20
-55.9816
 30
0.0000
 11
42.7900
 21
-55.9816
 31
0.0000
  0
LINE
  8
51
 10
43.6419
 20
-56.0832
 30
0.0000
 11
42.7900
 21
-56.0832
 31
0.0000
  0
LINE
  8
51
 10
43.6579
 20
-56.1848
 30
0.0000
 11
42.7900
 21
-56.1848
 31
0.0000
  0
LINE
  8
51
 10
43.6740
 20
-56.2864
 30
0.0000
 11
42.7900
 21
-56.2864
 31
0.0000
  0
LINE
  8
51
 10
43.6900
 20
-56.3880
 30
0.0000
 11
42.7900
 21
-56.3880
 31
0.0000
  0
LINE
  8
51
 10
43.6731
 20
-56.4896
 30
0.0000
 11
42.7900
 21
-56.4896
 31
0.0000
  0
LINE
  8
51
 10
43.6561
 20
-56.5912
 30
0.0000
 11
42.7900
 21
-56.5912
 31
0.0000
  0
LINE
  8
51
 10
43.6392
 20
-56.6928
 30
0.0000
 11
42.7900
 21
-56.6928
 31
0.0000
  0
LINE
  8
51
 10
43.6223
 20
-56.7944
 30
0.0000
 11
42.7900
 21
-56.7944
 31
0.0000
  0
LINE
  8
51
 10
43.6053
 20
-56.8960
 30
0.0000
 11
42.7900
 21
-56.8960
 31
0.0000
  0
LINE
  8
51
 10
43.5884
 20
-56.9976
 30
0.0000
 11
42.7900
 21
-56.9976
 31
0.0000
  0
LINE
  8
51
 10
43.5715
 20
-57.0992
 30
0.0000
 11
42.7900
 21
-57.0992
 31
0.0000
  0
LINE
  8
51
 10
43.5545
 20
-57.2008
 30
0.0000
 11
42.7900
 21
-57.2008
 31
0.0000
  0
LINE
  8
51
 10
43.5338
 20
-57.3024
 30
0.0000
 11
42.7900
 21
-57.3024
 31
0.0000
  0
LINE
  8
51
 10
43.4903
 20
-57.4040
 30
0.0000
 11
42.7900
 21
-57.4040
 31
0.0000
  0
LINE
  8
51
 10
43.4467
 20
-57.5056
 30
0.0000
 11
42.7900
 21
-57.5056
 31
0.0000
  0
LINE
  8
51
 10
43.4032
 20
-57.6072
 30
0.0000
 11
42.7900
 21
-57.6072
 31
0.0000
  0
LINE
  8
51
 10
43.3597
 20
-57.7088
 30
0.0000
 11
42.7900
 21
-57.7088
 31
0.0000
  0
LINE
  8
51
 10
43.3161
 20
-57.8104
 30
0.0000
 11
42.7900
 21
-57.8104
 31
0.0000
  0
LINE
  8
51
 10
43.2726
 20
-57.9120
 30
0.0000
 11
42.7900
 21
-57.9120
 31
0.0000
  0
LINE
  8
51
 10
43.2191
 20
-58.0136
 30
0.0000
 11
42.7900
 21
-58.0136
 31
0.0000
  0
LINE
  8
51
 10
43.1359
 20
-58.1152
 30
0.0000
 11
42.7900
 21
-58.1152
 31
0.0000
  0
LINE
  8
51
 10
43.0528
 20
-58.2168
 30
0.0000
 11
42.7900
 21
-58.2168
 31
0.0000
  0
LINE
  8
51
 10
42.9697
 20
-58.3184
 30
0.0000
 11
42.7900
 21
-58.3184
 31
0.0000
  0
LINE
  8
51
 10
42.8865
 20
-58.4200
 30
0.0000
 11
42.7900
 21
-58.4200
 31
0.0000
  0
LINE
  8
51
 10
42.8034
 20
-58.5216
 30
0.0000
 11
42.7900
 21
-58.5216
 31
0.0000
  0
LINE
  8
51
 10
43.8900
 20
-59.6380
 30
0.0000
 11
39.0900
 21
-59.6380
 31
0.0000
  0
LINE
  8
51
 10
39.0900
 20
-59.6380
 30
0.0000
 11
37.3900
 21
-57.9380
 31
0.0000
  0
LINE
  8
51
 10
37.3900
 20
-57.9380
 30
0.0000
 11
37.3900
 21
-54.8380
 31
0.0000
  0
LINE
  8
51
 10
37.3900
 20
-54.8380
 30
0.0000
 11
39.0900
 21
-53.1380
 31
0.0000
  0
LINE
  8
51
 10
39.0900
 20
-53.1380
 30
0.0000
 11
43.8900
 21
-53.1380
 31
0.0000
  0
LINE
  8
51
 10
43.8900
 20
-53.1380
 30
0.0000
 11
43.8900
 21
-59.6380
 31
0.0000
  0
LINE
  8
21
 10
43.8900
 20
-57.3380
 30
0.0000
 11
43.8900
 21
-59.6380
 31
0.0000
  0
LINE
  8
21
 10
43.8900
 20
-59.6380
 30
0.0000
 11
39.0900
 21
-59.6380
 31
0.0000
  0
LINE
  8
21
 10
39.0900
 20
-59.6380
 30
0.0000
 11
37.3900
 21
-57.9380
 31
0.0000
  0
LINE
  8
21
 10
37.3900
 20
-57.9380
 30
0.0000
 11
37.3900
 21
-57.3380
 31
0.0000
  0
LINE
  8
21
 10
37.3900
 20
-55.4380
 30
0.0000
 11
37.3900
 21
-54.8380
 31
0.0000
  0
LINE
  8
21
 10
37.3900
 20
-54.8380
 30
0.0000
 11
39.0900
 21
-53.1380
 31
0.0000
  0
LINE
  8
21
 10
39.0900
 20
-53.1380
 30
0.0000
 11
43.8900
 21
-53.1380
 31
0.0000
  0
LINE
  8
21
 10
43.8900
 20
-53.1380
 30
0.0000
 11
43.8900
 21
-55.4380
 31
0.0000
  0
ARC
  8
21
 10
40.6400
 20
-56.3880
 30
0.0000
 40
3.0992
 50
197.8503
 51
342.1497
  0
ARC
  8
21
 10
40.6400
 20
-56.3880
 30
0.0000
 40
3.0992
 50
17.8503
 51
162.1497
  0
LINE
  8
51
 10
42.7400
 20
-58.6380
 30
0.0000
 11
42.7400
 21
-54.1880
 31
0.0000
  0
CIRCLE
  8
51
 10
40.6400
 20
-56.3880
 30
0.0000
 40
3.1000
  0
INSERT
  8
51
  2
RECT
 10
43.9900
 20
-56.3880
 30
0.0000
 41
0.6000
 42
0.7000
 43
1.0000
 50
180.0000
  0
INSERT
  8
51
  2
RECT
 10
37.2900
 20
-56.3880
 30
0.0000
 41
0.6000
 42
0.7000
 43
1.0000
 50
180.0000
  0
LINE
  8
51
 10
-39.1920
 20
49.3780
 30
0.0000
 11
-39.1920
 21
48.6660
 31
0.0000
  0
LINE
  8
51
 10
-40.0430
 20
49.3780
 30
0.0000
 11
-40.0430
 21
48.6660
 31
0.0000
  0
INSERT
  8
51
  2
RECT
 10
-39.6189
 20
49.6102
 30
0.0000
 41
0.5001
 42
0.9500
 43
1.0000
 50
270.0000
  0
INSERT
  8
51
  2
RECT
 10
-39.6189
 20
48.4417
 30
0.0000
 41
0.5001
 42
0.9500
 43
1.0000
 50
270.0000
  0
LINE
  8
51
 10
47.3960
 20
36.3730
 30
0.0000
 11
48.1080
 21
36.3730
 31
0.0000
  0
LINE
  8
51
 10
47.3960
 20
35.5220
 30
0.0000
 11
48.1080
 21
35.5220
 31
0.0000
  0
INSERT
  8
51
  2
RECT
 10
47.1639
 20
35.9461
 30
0.0000
 41
0.5001
 42
0.9500
 43
1.0000
 50
0.0000
  0
INSERT
  8
51
  2
RECT
 10
48.3323
 20
35.9461
 30
0.0000
 41
0.5001
 42
0.9500
 43
1.0000
 50
0.0000
  0
LINE
  8
51
 10
47.3960
 20
24.8160
 30
0.0000
 11
48.1080
 21
24.8160
 31
0.0000
  0
LINE
  8
51
 10
47.3960
 20
23.9650
 30
0.0000
 11
48.1080
 21
23.9650
 31
0.0000
  0
INSERT
  8
51
  2
RECT
 10
47.1639
 20
24.3891
 30
0.0000
 41
0.5001
 42
0.9500
 43
1.0000
 50
0.0000
  0
INSERT
  8
51
  2
RECT
 10
48.3323
 20
24.3891
 30
0.0000
 41
0.5001
 42
0.9500
 43
1.0000
 50
0.0000
  0
LINE
  8
51
 10
28.2960
 20
-27.8640
 30
0.0000
 11
27.5840
 21
-27.8640
 31
0.0000
  0
LINE
  8
51
 10
28.2960
 20
-27.0130
 30
0.0000
 11
27.5840
 21
-27.0130
 31
0.0000
  0
INSERT
  8
51
  2
RECT
 10
28.5282
 20
-27.4371
 30
0.0000
 41
0.5001
 42
0.9500
 43
1.0000
 50
180.0000
  0
INSERT
  8
51
  2
RECT
 10
27.3598
 20
-27.4371
 30
0.0000
 41
0.5001
 42
0.9500
 43
1.0000
 50
180.0000
  0
LINE
  8
51
 10
-11.1510
 20
-48.4630
 30
0.0000
 11
-10.4390
 21
-48.4630
 31
0.0000
  0
LINE
  8
51
 10
-11.1510
 20
-49.3140
 30
0.0000
 11
-10.4390
 21
-49.3140
 31
0.0000
  0
INSERT
  8
51
  2
RECT
 10
-11.3832
 20
-48.8899
 30
0.0000
 41
0.5001
 42
0.9500
 43
1.0000
 50
0.0000
  0
INSERT
  8
51
  2
RECT
 10
-10.2148
 20
-48.8899
 30
0.0000
 41
0.5001
 42
0.9500
 43
1.0000
 50
0.0000
  0
LINE
  8
51
 10
-4.6740
 20
-32.0800
 30
0.0000
 11
-3.9620
 21
-32.0800
 31
0.0000
  0
LINE
  8
51
 10
-4.6740
 20
-32.9310
 30
0.0000
 11
-3.9620
 21
-32.9310
 31
0.0000
  0
INSERT
  8
51
  2
RECT
 10
-4.9062
 20
-32.5069
 30
0.0000
 41
0.5001
 42
0.9500
 43
1.0000
 50
0.0000
  0
INSERT
  8
51
  2
RECT
 10
-3.7378
 20
-32.5069
 30
0.0000
 41
0.5001
 42
0.9500
 43
1.0000
 50
0.0000
  0
LINE
  8
51
 10
-57.2680
 20
32.1220
 30
0.0000
 11
-57.7180
 21
31.5720
 31
0.0000
  0
LINE
  8
51
 10
-57.7180
 20
31.5720
 30
0.0000
 11
-58.0180
 21
30.8720
 31
0.0000
  0
LINE
  8
51
 10
-58.0180
 20
30.8720
 30
0.0000
 11
-58.1680
 21
29.9720
 31
0.0000
  0
LINE
  8
51
 10
-58.1680
 20
29.9720
 30
0.0000
 11
-58.0180
 21
29.0220
 31
0.0000
  0
LINE
  8
51
 10
-58.0180
 20
29.0220
 30
0.0000
 11
-57.6680
 21
28.3220
 31
0.0000
  0
LINE
  8
51
 10
-57.6680
 20
28.3220
 30
0.0000
 11
-57.2680
 21
27.8220
 31
0.0000
  0
LINE
  8
51
 10
-57.2680
 20
27.8220
 30
0.0000
 11
-57.2680
 21
32.0720
 31
0.0000
  0
LINE
  8
51
 10
-57.2680
 20
32.0720
 30
0.0000
 11
-57.2680
 21
32.1220
 31
0.0000
  0
LINE
  8
51
 10
-57.2811
 20
27.8384
 30
0.0000
 11
-57.2680
 21
27.8384
 31
0.0000
  0
LINE
  8
51
 10
-57.3624
 20
27.9400
 30
0.0000
 11
-57.2680
 21
27.9400
 31
0.0000
  0
LINE
  8
51
 10
-57.4437
 20
28.0416
 30
0.0000
 11
-57.2680
 21
28.0416
 31
0.0000
  0
LINE
  8
51
 10
-57.5250
 20
28.1432
 30
0.0000
 11
-57.2680
 21
28.1432
 31
0.0000
  0
LINE
  8
51
 10
-57.6062
 20
28.2448
 30
0.0000
 11
-57.2680
 21
28.2448
 31
0.0000
  0
LINE
  8
51
 10
-57.6802
 20
28.3464
 30
0.0000
 11
-57.2680
 21
28.3464
 31
0.0000
  0
LINE
  8
51
 10
-57.7310
 20
28.4480
 30
0.0000
 11
-57.2680
 21
28.4480
 31
0.0000
  0
LINE
  8
51
 10
-57.7818
 20
28.5496
 30
0.0000
 11
-57.2680
 21
28.5496
 31
0.0000
  0
LINE
  8
51
 10
-57.8326
 20
28.6512
 30
0.0000
 11
-57.2680
 21
28.6512
 31
0.0000
  0
LINE
  8
51
 10
-57.8834
 20
28.7528
 30
0.0000
 11
-57.2680
 21
28.7528
 31
0.0000
  0
LINE
  8
51
 10
-57.9342
 20
28.8544
 30
0.0000
 11
-57.2680
 21
28.8544
 31
0.0000
  0
LINE
  8
51
 10
-57.9850
 20
28.9560
 30
0.0000
 11
-57.2680
 21
28.9560
 31
0.0000
  0
LINE
  8
51
 10
-58.0236
 20
29.0576
 30
0.0000
 11
-57.2680
 21
29.0576
 31
0.0000
  0
LINE
  8
51
 10
-58.0397
 20
29.1592
 30
0.0000
 11
-57.2680
 21
29.1592
 31
0.0000
  0
LINE
  8
51
 10
-58.0557
 20
29.2608
 30
0.0000
 11
-57.2680
 21
29.2608
 31
0.0000
  0
LINE
  8
51
 10
-58.0718
 20
29.3624
 30
0.0000
 11
-57.2680
 21
29.3624
 31
0.0000
  0
LINE
  8
51
 10
-58.0878
 20
29.4640
 30
0.0000
 11
-57.2680
 21
29.4640
 31
0.0000
  0
LINE
  8
51
 10
-58.1038
 20
29.5656
 30
0.0000
 11
-57.2680
 21
29.5656
 31
0.0000
  0
LINE
  8
51
 10
-58.1199
 20
29.6672
 30
0.0000
 11
-57.2680
 21
29.6672
 31
0.0000
  0
LINE
  8
51
 10
-58.1359
 20
29.7688
 30
0.0000
 11
-57.2680
 21
29.7688
 31
0.0000
  0
LINE
  8
51
 10
-58.1520
 20
29.8704
 30
0.0000
 11
-57.2680
 21
29.8704
 31
0.0000
  0
LINE
  8
51
 10
-58.1680
 20
29.9720
 30
0.0000
 11
-57.2680
 21
29.9720
 31
0.0000
  0
LINE
  8
51
 10
-58.1511
 20
30.0736
 30
0.0000
 11
-57.2680
 21
30.0736
 31
0.0000
  0
LINE
  8
51
 10
-58.1341
 20
30.1752
 30
0.0000
 11
-57.2680
 21
30.1752
 31
0.0000
  0
LINE
  8
51
 10
-58.1172
 20
30.2768
 30
0.0000
 11
-57.2680
 21
30.2768
 31
0.0000
  0
LINE
  8
51
 10
-58.1003
 20
30.3784
 30
0.0000
 11
-57.2680
 21
30.3784
 31
0.0000
  0
LINE
  8
51
 10
-58.0833
 20
30.4800
 30
0.0000
 11
-57.2680
 21
30.4800
 31
0.0000
  0
LINE
  8
51
 10
-58.0664
 20
30.5816
 30
0.0000
 11
-57.2680
 21
30.5816
 31
0.0000
  0
LINE
  8
51
 10
-58.0495
 20
30.6832
 30
0.0000
 11
-57.2680
 21
30.6832
 31
0.0000
  0
LINE
  8
51
 10
-58.0325
 20
30.7848
 30
0.0000
 11
-57.2680
 21
30.7848
 31
0.0000
  0
LINE
  8
51
 10
-58.0118
 20
30.8864
 30
0.0000
 11
-57.2680
 21
30.8864
 31
0.0000
  0
LINE
  8
51
 10
-57.9683
 20
30.9880
 30
0.0000
 11
-57.2680
 21
30.9880
 31
0.0000
  0
LINE
  8
51
 10
-57.9247
 20
31.0896
 30
0.0000
 11
-57.2680
 21
31.0896
 31
0.0000
  0
LINE
  8
51
 10
-57.8812
 20
31.1912
 30
0.0000
 11
-57.2680
 21
31.1912
 31
0.0000
  0
LINE
  8
51
 10
-57.8377
 20
31.2928
 30
0.0000
 11
-57.2680
 21
31.2928
 31
0.0000
  0
LINE
  8
51
 10
-57.7941
 20
31.3944
 30
0.0000
 11
-57.2680
 21
31.3944
 31
0.0000
  0
LINE
  8
51
 10
-57.7506
 20
31.4960
 30
0.0000
 11
-57.2680
 21
31.4960
 31
0.0000
  0
LINE
  8
51
 10
-57.6971
 20
31.5976
 30
0.0000
 11
-57.2680
 21
31.5976
 31
0.0000
  0
LINE
  8
51
 10
-57.6139
 20
31.6992
 30
0.0000
 11
-57.2680
 21
31.6992
 31
0.0000
  0
LINE
  8
51
 10
-57.5308
 20
31.8008
 30
0.0000
 11
-57.2680
 21
31.8008
 31
0.0000
  0
LINE
  8
51
 10
-57.4477
 20
31.9024
 30
0.0000
 11
-57.2680
 21
31.9024
 31
0.0000
  0
LINE
  8
51
 10
-57.3645
 20
32.0040
 30
0.0000
 11
-57.2680
 21
32.0040
 31
0.0000
  0
LINE
  8
51
 10
-57.2814
 20
32.1056
 30
0.0000
 11
-57.2680
 21
32.1056
 31
0.0000
  0
LINE
  8
51
 10
-58.3680
 20
33.2220
 30
0.0000
 11
-53.5680
 21
33.2220
 31
0.0000
  0
LINE
  8
51
 10
-53.5680
 20
33.2220
 30
0.0000
 11
-51.8680
 21
31.5220
 31
0.0000
  0
LINE
  8
51
 10
-51.8680
 20
31.5220
 30
0.0000
 11
-51.8680
 21
28.4220
 31
0.0000
  0
LINE
  8
51
 10
-51.8680
 20
28.4220
 30
0.0000
 11
-53.5680
 21
26.7220
 31
0.0000
  0
LINE
  8
51
 10
-53.5680
 20
26.7220
 30
0.0000
 11
-58.3680
 21
26.7220
 31
0.0000
  0
LINE
  8
51
 10
-58.3680
 20
26.7220
 30
0.0000
 11
-58.3680
 21
33.2220
 31
0.0000
  0
LINE
  8
21
 10
-58.3680
 20
30.9220
 30
0.0000
 11
-58.3680
 21
33.2220
 31
0.0000
  0
LINE
  8
21
 10
-58.3680
 20
33.2220
 30
0.0000
 11
-53.5680
 21
33.2220
 31
0.0000
  0
LINE
  8
21
 10
-53.5680
 20
33.2220
 30
0.0000
 11
-51.8680
 21
31.5220
 31
0.0000
  0
LINE
  8
21
 10
-51.8680
 20
31.5220
 30
0.0000
 11
-51.8680
 21
30.9220
 31
0.0000
  0
LINE
  8
21
 10
-51.8680
 20
29.0220
 30
0.0000
 11
-51.8680
 21
28.4220
 31
0.0000
  0
LINE
  8
21
 10
-51.8680
 20
28.4220
 30
0.0000
 11
-53.5680
 21
26.7220
 31
0.0000
  0
LINE
  8
21
 10
-53.5680
 20
26.7220
 30
0.0000
 11
-58.3680
 21
26.7220
 31
0.0000
  0
LINE
  8
21
 10
-58.3680
 20
26.7220
 30
0.0000
 11
-58.3680
 21
29.0220
 31
0.0000
  0
ARC
  8
21
 10
-55.1180
 20
29.9720
 30
0.0000
 40
3.0992
 50
17.8503
 51
162.1497
  0
ARC
  8
21
 10
-55.1180
 20
29.9720
 30
0.0000
 40
3.0992
 50
197.8503
 51
342.1497
  0
LINE
  8
51
 10
-57.2180
 20
32.2220
 30
0.0000
 11
-57.2180
 21
27.7720
 31
0.0000
  0
CIRCLE
  8
51
 10
-55.1180
 20
29.9720
 30
0.0000
 40
3.1000
  0
INSERT
  8
51
  2
RECT
 10
-58.4680
 20
29.9720
 30
0.0000
 41
0.6000
 42
0.7000
 43
1.0000
 50
0.0000
  0
INSERT
  8
51
  2
RECT
 10
-51.7680
 20
29.9720
 30
0.0000
 41
0.6000
 42
0.7000
 43
1.0000
 50
0.0000
  0
LINE
  8
51
 10
-57.2680
 20
25.2640
 30
0.0000
 11
-57.7180
 21
24.7140
 31
0.0000
  0
LINE
  8
51
 10
-57.7180
 20
24.7140
 30
0.0000
 11
-58.0180
 21
24.0140
 31
0.0000
  0
LINE
  8
51
 10
-58.0180
 20
24.0140
 30
0.0000
 11
-58.1680
 21
23.1140
 31
0.0000
  0
LINE
  8
51
 10
-58.1680
 20
23.1140
 30
0.0000
 11
-58.0180
 21
22.1640
 31
0.0000
  0
LINE
  8
51
 10
-58.0180
 20
22.1640
 30
0.0000
 11
-57.6680
 21
21.4640
 31
0.0000
  0
LINE
  8
51
 10
-57.6680
 20
21.4640
 30
0.0000
 11
-57.2680
 21
20.9640
 31
0.0000
  0
LINE
  8
51
 10
-57.2680
 20
20.9640
 30
0.0000
 11
-57.2680
 21
25.2140
 31
0.0000
  0
LINE
  8
51
 10
-57.2680
 20
25.2140
 30
0.0000
 11
-57.2680
 21
25.2640
 31
0.0000
  0
LINE
  8
51
 10
-57.2811
 20
20.9804
 30
0.0000
 11
-57.2680
 21
20.9804
 31
0.0000
  0
LINE
  8
51
 10
-57.3624
 20
21.0820
 30
0.0000
 11
-57.2680
 21
21.0820
 31
0.0000
  0
LINE
  8
51
 10
-57.4437
 20
21.1836
 30
0.0000
 11
-57.2680
 21
21.1836
 31
0.0000
  0
LINE
  8
51
 10
-57.5250
 20
21.2852
 30
0.0000
 11
-57.2680
 21
21.2852
 31
0.0000
  0
LINE
  8
51
 10
-57.6062
 20
21.3868
 30
0.0000
 11
-57.2680
 21
21.3868
 31
0.0000
  0
LINE
  8
51
 10
-57.6802
 20
21.4884
 30
0.0000
 11
-57.2680
 21
21.4884
 31
0.0000
  0
LINE
  8
51
 10
-57.7310
 20
21.5900
 30
0.0000
 11
-57.2680
 21
21.5900
 31
0.0000
  0
LINE
  8
51
 10
-57.7818
 20
21.6916
 30
0.0000
 11
-57.2680
 21
21.6916
 31
0.0000
  0
LINE
  8
51
 10
-57.8326
 20
21.7932
 30
0.0000
 11
-57.2680
 21
21.7932
 31
0.0000
  0
LINE
  8
51
 10
-57.8834
 20
21.8948
 30
0.0000
 11
-57.2680
 21
21.8948
 31
0.0000
  0
LINE
  8
51
 10
-57.9342
 20
21.9964
 30
0.0000
 11
-57.2680
 21
21.9964
 31
0.0000
  0
LINE
  8
51
 10
-57.9850
 20
22.0980
 30
0.0000
 11
-57.2680
 21
22.0980
 31
0.0000
  0
LINE
  8
51
 10
-58.0236
 20
22.1996
 30
0.0000
 11
-57.2680
 21
22.1996
 31
0.0000
  0
LINE
  8
51
 10
-58.0397
 20
22.3012
 30
0.0000
 11
-57.2680
 21
22.3012
 31
0.0000
  0
LINE
  8
51
 10
-58.0557
 20
22.4028
 30
0.0000
 11
-57.2680
 21
22.4028
 31
0.0000
  0
LINE
  8
51
 10
-58.0718
 20
22.5044
 30
0.0000
 11
-57.2680
 21
22.5044
 31
0.0000
  0
LINE
  8
51
 10
-58.0878
 20
22.6060
 30
0.0000
 11
-57.2680
 21
22.6060
 31
0.0000
  0
LINE
  8
51
 10
-58.1038
 20
22.7076
 30
0.0000
 11
-57.2680
 21
22.7076
 31
0.0000
  0
LINE
  8
51
 10
-58.1199
 20
22.8092
 30
0.0000
 11
-57.2680
 21
22.8092
 31
0.0000
  0
LINE
  8
51
 10
-58.1359
 20
22.9108
 30
0.0000
 11
-57.2680
 21
22.9108
 31
0.0000
  0
LINE
  8
51
 10
-58.1520
 20
23.0124
 30
0.0000
 11
-57.2680
 21
23.0124
 31
0.0000
  0
LINE
  8
51
 10
-58.1680
 20
23.1140
 30
0.0000
 11
-57.2680
 21
23.1140
 31
0.0000
  0
LINE
  8
51
 10
-58.1511
 20
23.2156
 30
0.0000
 11
-57.2680
 21
23.2156
 31
0.0000
  0
LINE
  8
51
 10
-58.1341
 20
23.3172
 30
0.0000
 11
-57.2680
 21
23.3172
 31
0.0000
  0
LINE
  8
51
 10
-58.1172
 20
23.4188
 30
0.0000
 11
-57.2680
 21
23.4188
 31
0.0000
  0
LINE
  8
51
 10
-58.1003
 20
23.5204
 30
0.0000
 11
-57.2680
 21
23.5204
 31
0.0000
  0
LINE
  8
51
 10
-58.0833
 20
23.6220
 30
0.0000
 11
-57.2680
 21
23.6220
 31
0.0000
  0
LINE
  8
51
 10
-58.0664
 20
23.7236
 30
0.0000
 11
-57.2680
 21
23.7236
 31
0.0000
  0
LINE
  8
51
 10
-58.0495
 20
23.8252
 30
0.0000
 11
-57.2680
 21
23.8252
 31
0.0000
  0
LINE
  8
51
 10
-58.0325
 20
23.9268
 30
0.0000
 11
-57.2680
 21
23.9268
 31
0.0000
  0
LINE
  8
51
 10
-58.0118
 20
24.0284
 30
0.0000
 11
-57.2680
 21
24.0284
 31
0.0000
  0
LINE
  8
51
 10
-57.9683
 20
24.1300
 30
0.0000
 11
-57.2680
 21
24.1300
 31
0.0000
  0
LINE
  8
51
 10
-57.9247
 20
24.2316
 30
0.0000
 11
-57.2680
 21
24.2316
 31
0.0000
  0
LINE
  8
51
 10
-57.8812
 20
24.3332
 30
0.0000
 11
-57.2680
 21
24.3332
 31
0.0000
  0
LINE
  8
51
 10
-57.8377
 20
24.4348
 30
0.0000
 11
-57.2680
 21
24.4348
 31
0.0000
  0
LINE
  8
51
 10
-57.7941
 20
24.5364
 30
0.0000
 11
-57.2680
 21
24.5364
 31
0.0000
  0
LINE
  8
51
 10
-57.7506
 20
24.6380
 30
0.0000
 11
-57.2680
 21
24.6380
 31
0.0000
  0
LINE
  8
51
 10
-57.6971
 20
24.7396
 30
0.0000
 11
-57.2680
 21
24.7396
 31
0.0000
  0
LINE
  8
51
 10
-57.6139
 20
24.8412
 30
0.0000
 11
-57.2680
 21
24.8412
 31
0.0000
  0
LINE
  8
51
 10
-57.5308
 20
24.9428
 30
0.0000
 11
-57.2680
 21
24.9428
 31
0.0000
  0
LINE
  8
51
 10
-57.4477
 20
25.0444
 30
0.0000
 11
-57.2680
 21
25.0444
 31
0.0000
  0
LINE
  8
51
 10
-57.3645
 20
25.1460
 30
0.0000
 11
-57.2680
 21
25.1460
 31
0.0000
  0
LINE
  8
51
 10
-57.2814
 20
25.2476
 30
0.0000
 11
-57.2680
 21
25.2476
 31
0.0000
  0
LINE
  8
51
 10
-58.3680
 20
26.3640
 30
0.0000
 11
-53.5680
 21
26.3640
 31
0.0000
  0
LINE
  8
51
 10
-53.5680
 20
26.3640
 30
0.0000
 11
-51.8680
 21
24.6640
 31
0.0000
  0
LINE
  8
51
 10
-51.8680
 20
24.6640
 30
0.0000
 11
-51.8680
 21
21.5640
 31
0.0000
  0
LINE
  8
51
 10
-51.8680
 20
21.5640
 30
0.0000
 11
-53.5680
 21
19.8640
 31
0.0000
  0
LINE
  8
51
 10
-53.5680
 20
19.8640
 30
0.0000
 11
-58.3680
 21
19.8640
 31
0.0000
  0
LINE
  8
51
 10
-58.3680
 20
19.8640
 30
0.0000
 11
-58.3680
 21
26.3640
 31
0.0000
  0
LINE
  8
21
 10
-58.3680
 20
24.0640
 30
0.0000
 11
-58.3680
 21
26.3640
 31
0.0000
  0
LINE
  8
21
 10
-58.3680
 20
26.3640
 30
0.0000
 11
-53.5680
 21
26.3640
 31
0.0000
  0
LINE
  8
21
 10
-53.5680
 20
26.3640
 30
0.0000
 11
-51.8680
 21
24.6640
 31
0.0000
  0
LINE
  8
21
 10
-51.8680
 20
24.6640
 30
0.0000
 11
-51.8680
 21
24.0640
 31
0.0000
  0
LINE
  8
21
 10
-51.8680
 20
22.1640
 30
0.0000
 11
-51.8680
 21
21.5640
 31
0.0000
  0
LINE
  8
21
 10
-51.8680
 20
21.5640
 30
0.0000
 11
-53.5680
 21
19.8640
 31
0.0000
  0
LINE
  8
21
 10
-53.5680
 20
19.8640
 30
0.0000
 11
-58.3680
 21
19.8640
 31
0.0000
  0
LINE
  8
21
 10
-58.3680
 20
19.8640
 30
0.0000
 11
-58.3680
 21
22.1640
 31
0.0000
  0
ARC
  8
21
 10
-55.1180
 20
23.1140
 30
0.0000
 40
3.0992
 50
17.8503
 51
162.1497
  0
ARC
  8
21
 10
-55.1180
 20
23.1140
 30
0.0000
 40
3.0992
 50
197.8503
 51
342.1497
  0
LINE
  8
51
 10
-57.2180
 20
25.3640
 30
0.0000
 11
-57.2180
 21
20.9140
 31
0.0000
  0
CIRCLE
  8
51
 10
-55.1180
 20
23.1140
 30
0.0000
 40
3.1000
  0
INSERT
  8
51
  2
RECT
 10
-58.4680
 20
23.1140
 30
0.0000
 41
0.6000
 42
0.7000
 43
1.0000
 50
0.0000
  0
INSERT
  8
51
  2
RECT
 10
-51.7680
 20
23.1140
 30
0.0000
 41
0.6000
 42
0.7000
 43
1.0000
 50
0.0000
  0
LINE
  8
51
 10
33.0110
 20
-61.9850
 30
0.0000
 11
32.4610
 21
-61.5350
 31
0.0000
  0
LINE
  8
51
 10
32.4610
 20
-61.5350
 30
0.0000
 11
31.7610
 21
-61.2350
 31
0.0000
  0
LINE
  8
51
 10
31.7610
 20
-61.2350
 30
0.0000
 11
30.8610
 21
-61.0850
 31
0.0000
  0
LINE
  8
51
 10
30.8610
 20
-61.0850
 30
0.0000
 11
29.9110
 21
-61.2350
 31
0.0000
  0
LINE
  8
51
 10
29.9110
 20
-61.2350
 30
0.0000
 11
29.2110
 21
-61.5850
 31
0.0000
  0
LINE
  8
51
 10
29.2110
 20
-61.5850
 30
0.0000
 11
28.7110
 21
-61.9850
 31
0.0000
  0
LINE
  8
51
 10
28.7110
 20
-61.9850
 30
0.0000
 11
32.9610
 21
-61.9850
 31
0.0000
  0
LINE
  8
51
 10
32.9610
 20
-61.9850
 30
0.0000
 11
33.0110
 21
-61.9850
 31
0.0000
  0
LINE
  8
51
 10
28.7274
 20
-61.9719
 30
0.0000
 11
28.7274
 21
-61.9850
 31
0.0000
  0
LINE
  8
51
 10
28.8290
 20
-61.8906
 30
0.0000
 11
28.8290
 21
-61.9850
 31
0.0000
  0
LINE
  8
51
 10
28.9306
 20
-61.8093
 30
0.0000
 11
28.9306
 21
-61.9850
 31
0.0000
  0
LINE
  8
51
 10
29.0322
 20
-61.7280
 30
0.0000
 11
29.0322
 21
-61.9850
 31
0.0000
  0
LINE
  8
51
 10
29.1338
 20
-61.6468
 30
0.0000
 11
29.1338
 21
-61.9850
 31
0.0000
  0
LINE
  8
51
 10
29.2354
 20
-61.5728
 30
0.0000
 11
29.2354
 21
-61.9850
 31
0.0000
  0
LINE
  8
51
 10
29.3370
 20
-61.5220
 30
0.0000
 11
29.3370
 21
-61.9850
 31
0.0000
  0
LINE
  8
51
 10
29.4386
 20
-61.4712
 30
0.0000
 11
29.4386
 21
-61.9850
 31
0.0000
  0
LINE
  8
51
 10
29.5402
 20
-61.4204
 30
0.0000
 11
29.5402
 21
-61.9850
 31
0.0000
  0
LINE
  8
51
 10
29.6418
 20
-61.3696
 30
0.0000
 11
29.6418
 21
-61.9850
 31
0.0000
  0
LINE
  8
51
 10
29.7434
 20
-61.3188
 30
0.0000
 11
29.7434
 21
-61.9850
 31
0.0000
  0
LINE
  8
51
 10
29.8450
 20
-61.2680
 30
0.0000
 11
29.8450
 21
-61.9850
 31
0.0000
  0
LINE
  8
51
 10
29.9466
 20
-61.2294
 30
0.0000
 11
29.9466
 21
-61.9850
 31
0.0000
  0
LINE
  8
51
 10
30.0482
 20
-61.2133
 30
0.0000
 11
30.0482
 21
-61.9850
 31
0.0000
  0
LINE
  8
51
 10
30.1498
 20
-61.1973
 30
0.0000
 11
30.1498
 21
-61.9850
 31
0.0000
  0
LINE
  8
51
 10
30.2514
 20
-61.1813
 30
0.0000
 11
30.2514
 21
-61.9850
 31
0.0000
  0
LINE
  8
51
 10
30.3530
 20
-61.1652
 30
0.0000
 11
30.3530
 21
-61.9850
 31
0.0000
  0
LINE
  8
51
 10
30.4546
 20
-61.1492
 30
0.0000
 11
30.4546
 21
-61.9850
 31
0.0000
  0
LINE
  8
51
 10
30.5562
 20
-61.1331
 30
0.0000
 11
30.5562
 21
-61.9850
 31
0.0000
  0
LINE
  8
51
 10
30.6578
 20
-61.1171
 30
0.0000
 11
30.6578
 21
-61.9850
 31
0.0000
  0
LINE
  8
51
 10
30.7594
 20
-61.1010
 30
0.0000
 11
30.7594
 21
-61.9850
 31
0.0000
  0
LINE
  8
51
 10
30.8610
 20
-61.0850
 30
0.0000
 11
30.8610
 21
-61.9850
 31
0.0000
  0
LINE
  8
51
 10
30.9626
 20
-61.1019
 30
0.0000
 11
30.9626
 21
-61.9850
 31
0.0000
  0
LINE
  8
51
 10
31.0642
 20
-61.1189
 30
0.0000
 11
31.0642
 21
-61.9850
 31
0.0000
  0
LINE
  8
51
 10
31.1658
 20
-61.1358
 30
0.0000
 11
31.1658
 21
-61.9850
 31
0.0000
  0
LINE
  8
51
 10
31.2674
 20
-61.1527
 30
0.0000
 11
31.2674
 21
-61.9850
 31
0.0000
  0
LINE
  8
51
 10
31.3690
 20
-61.1697
 30
0.0000
 11
31.3690
 21
-61.9850
 31
0.0000
  0
LINE
  8
51
 10
31.4706
 20
-61.1866
 30
0.0000
 11
31.4706
 21
-61.9850
 31
0.0000
  0
LINE
  8
51
 10
31.5722
 20
-61.2035
 30
0.0000
 11
31.5722
 21
-61.9850
 31
0.0000
  0
LINE
  8
51
 10
31.6738
 20
-61.2205
 30
0.0000
 11
31.6738
 21
-61.9850
 31
0.0000
  0
LINE
  8
51
 10
31.7754
 20
-61.2412
 30
0.0000
 11
31.7754
 21
-61.9850
 31
0.0000
  0
LINE
  8
51
 10
31.8770
 20
-61.2847
 30
0.0000
 11
31.8770
 21
-61.9850
 31
0.0000
  0
LINE
  8
51
 10
31.9786
 20
-61.3283
 30
0.0000
 11
31.9786
 21
-61.9850
 31
0.0000
  0
LINE
  8
51
 10
32.0802
 20
-61.3718
 30
0.0000
 11
32.0802
 21
-61.9850
 31
0.0000
  0
LINE
  8
51
 10
32.1818
 20
-61.4153
 30
0.0000
 11
32.1818
 21
-61.9850
 31
0.0000
  0
LINE
  8
51
 10
32.2834
 20
-61.4589
 30
0.0000
 11
32.2834
 21
-61.9850
 31
0.0000
  0
LINE
  8
51
 10
32.3850
 20
-61.5024
 30
0.0000
 11
32.3850
 21
-61.9850
 31
0.0000
  0
LINE
  8
51
 10
32.4866
 20
-61.5559
 30
0.0000
 11
32.4866
 21
-61.9850
 31
0.0000
  0
LINE
  8
51
 10
32.5882
 20
-61.6391
 30
0.0000
 11
32.5882
 21
-61.9850
 31
0.0000
  0
LINE
  8
51
 10
32.6898
 20
-61.7222
 30
0.0000
 11
32.6898
 21
-61.9850
 31
0.0000
  0
LINE
  8
51
 10
32.7914
 20
-61.8053
 30
0.0000
 11
32.7914
 21
-61.9850
 31
0.0000
  0
LINE
  8
51
 10
32.8930
 20
-61.8885
 30
0.0000
 11
32.8930
 21
-61.9850
 31
0.0000
  0
LINE
  8
51
 10
32.9946
 20
-61.9716
 30
0.0000
 11
32.9946
 21
-61.9850
 31
0.0000
  0
LINE
  8
51
 10
34.1110
 20
-60.8850
 30
0.0000
 11
34.1110
 21
-65.6850
 31
0.0000
  0
LINE
  8
51
 10
34.1110
 20
-65.6850
 30
0.0000
 11
32.4110
 21
-67.3850
 31
0.0000
  0
LINE
  8
51
 10
32.4110
 20
-67.3850
 30
0.0000
 11
29.3110
 21
-67.3850
 31
0.0000
  0
LINE
  8
51
 10
29.3110
 20
-67.3850
 30
0.0000
 11
27.6110
 21
-65.6850
 31
0.0000
  0
LINE
  8
51
 10
27.6110
 20
-65.6850
 30
0.0000
 11
27.6110
 21
-60.8850
 31
0.0000
  0
LINE
  8
51
 10
27.6110
 20
-60.8850
 30
0.0000
 11
34.1110
 21
-60.8850
 31
0.0000
  0
LINE
  8
21
 10
31.8110
 20
-60.8850
 30
0.0000
 11
34.1110
 21
-60.8850
 31
0.0000
  0
LINE
  8
21
 10
34.1110
 20
-60.8850
 30
0.0000
 11
34.1110
 21
-65.6850
 31
0.0000
  0
LINE
  8
21
 10
34.1110
 20
-65.6850
 30
0.0000
 11
32.4110
 21
-67.3850
 31
0.0000
  0
LINE
  8
21
 10
32.4110
 20
-67.3850
 30
0.0000
 11
31.8110
 21
-67.3850
 31
0.0000
  0
LINE
  8
21
 10
29.9110
 20
-67.3850
 30
0.0000
 11
29.3110
 21
-67.3850
 31
0.0000
  0
LINE
  8
21
 10
29.3110
 20
-67.3850
 30
0.0000
 11
27.6110
 21
-65.6850
 31
0.0000
  0
LINE
  8
21
 10
27.6110
 20
-65.6850
 30
0.0000
 11
27.6110
 21
-60.8850
 31
0.0000
  0
LINE
  8
21
 10
27.6110
 20
-60.8850
 30
0.0000
 11
29.9110
 21
-60.8850
 31
0.0000
  0
ARC
  8
21
 10
30.8610
 20
-64.1350
 30
0.0000
 40
3.0992
 50
287.8503
 51
72.1497
  0
ARC
  8
21
 10
30.8610
 20
-64.1350
 30
0.0000
 40
3.0992
 50
107.8503
 51
252.1497
  0
LINE
  8
51
 10
33.1110
 20
-62.0350
 30
0.0000
 11
28.6610
 21
-62.0350
 31
0.0000
  0
CIRCLE
  8
51
 10
30.8610
 20
-64.1350
 30
0.0000
 40
3.1000
  0
INSERT
  8
51
  2
RECT
 10
30.8610
 20
-60.7850
 30
0.0000
 41
0.6000
 42
0.7000
 43
1.0000
 50
270.0000
  0
INSERT
  8
51
  2
RECT
 10
30.8610
 20
-67.4850
 30
0.0000
 41
0.6000
 42
0.7000
 43
1.0000
 50
270.0000
  0
LINE
  8
51
 10
42.7900
 20
-61.9850
 30
0.0000
 11
42.2400
 21
-61.5350
 31
0.0000
  0
LINE
  8
51
 10
42.2400
 20
-61.5350
 30
0.0000
 11
41.5400
 21
-61.2350
 31
0.0000
  0
LINE
  8
51
 10
41.5400
 20
-61.2350
 30
0.0000
 11
40.6400
 21
-61.0850
 31
0.0000
  0
LINE
  8
51
 10
40.6400
 20
-61.0850
 30
0.0000
 11
39.6900
 21
-61.2350
 31
0.0000
  0
LINE
  8
51
 10
39.6900
 20
-61.2350
 30
0.0000
 11
38.9900
 21
-61.5850
 31
0.0000
  0
LINE
  8
51
 10
38.9900
 20
-61.5850
 30
0.0000
 11
38.4900
 21
-61.9850
 31
0.0000
  0
LINE
  8
51
 10
38.4900
 20
-61.9850
 30
0.0000
 11
42.7400
 21
-61.9850
 31
0.0000
  0
LINE
  8
51
 10
42.7400
 20
-61.9850
 30
0.0000
 11
42.7900
 21
-61.9850
 31
0.0000
  0
LINE
  8
51
 10
38.5064
 20
-61.9719
 30
0.0000
 11
38.5064
 21
-61.9850
 31
0.0000
  0
LINE
  8
51
 10
38.6080
 20
-61.8906
 30
0.0000
 11
38.6080
 21
-61.9850
 31
0.0000
  0
LINE
  8
51
 10
38.7096
 20
-61.8093
 30
0.0000
 11
38.7096
 21
-61.9850
 31
0.0000
  0
LINE
  8
51
 10
38.8112
 20
-61.7280
 30
0.0000
 11
38.8112
 21
-61.9850
 31
0.0000
  0
LINE
  8
51
 10
38.9128
 20
-61.6468
 30
0.0000
 11
38.9128
 21
-61.9850
 31
0.0000
  0
LINE
  8
51
 10
39.0144
 20
-61.5728
 30
0.0000
 11
39.0144
 21
-61.9850
 31
0.0000
  0
LINE
  8
51
 10
39.1160
 20
-61.5220
 30
0.0000
 11
39.1160
 21
-61.9850
 31
0.0000
  0
LINE
  8
51
 10
39.2176
 20
-61.4712
 30
0.0000
 11
39.2176
 21
-61.9850
 31
0.0000
  0
LINE
  8
51
 10
39.3192
 20
-61.4204
 30
0.0000
 11
39.3192
 21
-61.9850
 31
0.0000
  0
LINE
  8
51
 10
39.4208
 20
-61.3696
 30
0.0000
 11
39.4208
 21
-61.9850
 31
0.0000
  0
LINE
  8
51
 10
39.5224
 20
-61.3188
 30
0.0000
 11
39.5224
 21
-61.9850
 31
0.0000
  0
LINE
  8
51
 10
39.6240
 20
-61.2680
 30
0.0000
 11
39.6240
 21
-61.9850
 31
0.0000
  0
LINE
  8
51
 10
39.7256
 20
-61.2294
 30
0.0000
 11
39.7256
 21
-61.9850
 31
0.0000
  0
LINE
  8
51
 10
39.8272
 20
-61.2133
 30
0.0000
 11
39.8272
 21
-61.9850
 31
0.0000
  0
LINE
  8
51
 10
39.9288
 20
-61.1973
 30
0.0000
 11
39.9288
 21
-61.9850
 31
0.0000
  0
LINE
  8
51
 10
40.0304
 20
-61.1813
 30
0.0000
 11
40.0304
 21
-61.9850
 31
0.0000
  0
LINE
  8
51
 10
40.1320
 20
-61.1652
 30
0.0000
 11
40.1320
 21
-61.9850
 31
0.0000
  0
LINE
  8
51
 10
40.2336
 20
-61.1492
 30
0.0000
 11
40.2336
 21
-61.9850
 31
0.0000
  0
LINE
  8
51
 10
40.3352
 20
-61.1331
 30
0.0000
 11
40.3352
 21
-61.9850
 31
0.0000
  0
LINE
  8
51
 10
40.4368
 20
-61.1171
 30
0.0000
 11
40.4368
 21
-61.9850
 31
0.0000
  0
LINE
  8
51
 10
40.5384
 20
-61.1010
 30
0.0000
 11
40.5384
 21
-61.9850
 31
0.0000
  0
LINE
  8
51
 10
40.6400
 20
-61.0850
 30
0.0000
 11
40.6400
 21
-61.9850
 31
0.0000
  0
LINE
  8
51
 10
40.7416
 20
-61.1019
 30
0.0000
 11
40.7416
 21
-61.9850
 31
0.0000
  0
LINE
  8
51
 10
40.8432
 20
-61.1189
 30
0.0000
 11
40.8432
 21
-61.9850
 31
0.0000
  0
LINE
  8
51
 10
40.9448
 20
-61.1358
 30
0.0000
 11
40.9448
 21
-61.9850
 31
0.0000
  0
LINE
  8
51
 10
41.0464
 20
-61.1527
 30
0.0000
 11
41.0464
 21
-61.9850
 31
0.0000
  0
LINE
  8
51
 10
41.1480
 20
-61.1697
 30
0.0000
 11
41.1480
 21
-61.9850
 31
0.0000
  0
LINE
  8
51
 10
41.2496
 20
-61.1866
 30
0.0000
 11
41.2496
 21
-61.9850
 31
0.0000
  0
LINE
  8
51
 10
41.3512
 20
-61.2035
 30
0.0000
 11
41.3512
 21
-61.9850
 31
0.0000
  0
LINE
  8
51
 10
41.4528
 20
-61.2205
 30
0.0000
 11
41.4528
 21
-61.9850
 31
0.0000
  0
LINE
  8
51
 10
41.5544
 20
-61.2412
 30
0.0000
 11
41.5544
 21
-61.9850
 31
0.0000
  0
LINE
  8
51
 10
41.6560
 20
-61.2847
 30
0.0000
 11
41.6560
 21
-61.9850
 31
0.0000
  0
LINE
  8
51
 10
41.7576
 20
-61.3283
 30
0.0000
 11
41.7576
 21
-61.9850
 31
0.0000
  0
LINE
  8
51
 10
41.8592
 20
-61.3718
 30
0.0000
 11
41.8592
 21
-61.9850
 31
0.0000
  0
LINE
  8
51
 10
41.9608
 20
-61.4153
 30
0.0000
 11
41.9608
 21
-61.9850
 31
0.0000
  0
LINE
  8
51
 10
42.0624
 20
-61.4589
 30
0.0000
 11
42.0624
 21
-61.9850
 31
0.0000
  0
LINE
  8
51
 10
42.1640
 20
-61.5024
 30
0.0000
 11
42.1640
 21
-61.9850
 31
0.0000
  0
LINE
  8
51
 10
42.2656
 20
-61.5559
 30
0.0000
 11
42.2656
 21
-61.9850
 31
0.0000
  0
LINE
  8
51
 10
42.3672
 20
-61.6391
 30
0.0000
 11
42.3672
 21
-61.9850
 31
0.0000
  0
LINE
  8
51
 10
42.4688
 20
-61.7222
 30
0.0000
 11
42.4688
 21
-61.9850
 31
0.0000
  0
LINE
  8
51
 10
42.5704
 20
-61.8053
 30
0.0000
 11
42.5704
 21
-61.9850
 31
0.0000
  0
LINE
  8
51
 10
42.6720
 20
-61.8885
 30
0.0000
 11
42.6720
 21
-61.9850
 31
0.0000
  0
LINE
  8
51
 10
42.7736
 20
-61.9716
 30
0.0000
 11
42.7736
 21
-61.9850
 31
0.0000
  0
LINE
  8
51
 10
43.8900
 20
-60.8850
 30
0.0000
 11
43.8900
 21
-65.6850
 31
0.0000
  0
LINE
  8
51
 10
43.8900
 20
-65.6850
 30
0.0000
 11
42.1900
 21
-67.3850
 31
0.0000
  0
LINE
  8
51
 10
42.1900
 20
-67.3850
 30
0.0000
 11
39.0900
 21
-67.3850
 31
0.0000
  0
LINE
  8
51
 10
39.0900
 20
-67.3850
 30
0.0000
 11
37.3900
 21
-65.6850
 31
0.0000
  0
LINE
  8
51
 10
37.3900
 20
-65.6850
 30
0.0000
 11
37.3900
 21
-60.8850
 31
0.0000
  0
LINE
  8
51
 10
37.3900
 20
-60.8850
 30
0.0000
 11
43.8900
 21
-60.8850
 31
0.0000
  0
LINE
  8
21
 10
41.5900
 20
-60.8850
 30
0.0000
 11
43.8900
 21
-60.8850
 31
0.0000
  0
LINE
  8
21
 10
43.8900
 20
-60.8850
 30
0.0000
 11
43.8900
 21
-65.6850
 31
0.0000
  0
LINE
  8
21
 10
43.8900
 20
-65.6850
 30
0.0000
 11
42.1900
 21
-67.3850
 31
0.0000
  0
LINE
  8
21
 10
42.1900
 20
-67.3850
 30
0.0000
 11
41.5900
 21
-67.3850
 31
0.0000
  0
LINE
  8
21
 10
39.6900
 20
-67.3850
 30
0.0000
 11
39.0900
 21
-67.3850
 31
0.0000
  0
LINE
  8
21
 10
39.0900
 20
-67.3850
 30
0.0000
 11
37.3900
 21
-65.6850
 31
0.0000
  0
LINE
  8
21
 10
37.3900
 20
-65.6850
 30
0.0000
 11
37.3900
 21
-60.8850
 31
0.0000
  0
LINE
  8
21
 10
37.3900
 20
-60.8850
 30
0.0000
 11
39.6900
 21
-60.8850
 31
0.0000
  0
ARC
  8
21
 10
40.6400
 20
-64.1350
 30
0.0000
 40
3.0992
 50
287.8503
 51
72.1497
  0
ARC
  8
21
 10
40.6400
 20
-64.1350
 30
0.0000
 40
3.0992
 50
107.8503
 51
252.1497
  0
LINE
  8
51
 10
42.8900
 20
-62.0350
 30
0.0000
 11
38.4400
 21
-62.0350
 31
0.0000
  0
CIRCLE
  8
51
 10
40.6400
 20
-64.1350
 30
0.0000
 40
3.1000
  0
INSERT
  8
51
  2
RECT
 10
40.6400
 20
-60.7850
 30
0.0000
 41
0.6000
 42
0.7000
 43
1.0000
 50
270.0000
  0
INSERT
  8
51
  2
RECT
 10
40.6400
 20
-67.4850
 30
0.0000
 41
0.6000
 42
0.7000
 43
1.0000
 50
270.0000
  0
LINE
  8
51
 10
-16.8660
 20
-28.7780
 30
0.0000
 11
-16.1540
 21
-28.7780
 31
0.0000
  0
LINE
  8
51
 10
-16.8660
 20
-29.6290
 30
0.0000
 11
-16.1540
 21
-29.6290
 31
0.0000
  0
INSERT
  8
51
  2
RECT
 10
-17.0982
 20
-29.2049
 30
0.0000
 41
0.5001
 42
0.9500
 43
1.0000
 50
0.0000
  0
INSERT
  8
51
  2
RECT
 10
-15.9298
 20
-29.2049
 30
0.0000
 41
0.5001
 42
0.9500
 43
1.0000
 50
0.0000
  0
LINE
  8
51
 10
-18.1100
 20
-19.0970
 30
0.0000
 11
-14.9100
 21
-19.0970
 31
0.0000
  0
LINE
  8
51
 10
-14.9100
 20
-19.0970
 30
0.0000
 11
-14.9100
 21
-21.7970
 31
0.0000
  0
LINE
  8
51
 10
-14.9100
 20
-21.7970
 30
0.0000
 11
-18.1100
 21
-21.7970
 31
0.0000
  0
LINE
  8
51
 10
-18.1100
 20
-21.7970
 30
0.0000
 11
-18.1100
 21
-19.0970
 31
0.0000
  0
INSERT
  8
51
  2
RECT
 10
-18.1600
 20
-20.4470
 30
0.0000
 41
0.2000
 42
2.2000
 43
1.0000
 50
0.0000
  0
INSERT
  8
51
  2
RECT
 10
-14.8600
 20
-20.4470
 30
0.0000
 41
0.2000
 42
2.2000
 43
1.0000
 50
180.0000
  0
INSERT
  8
51
  2
RECT
 10
-17.7850
 20
-20.4470
 30
0.0000
 41
0.6500
 42
2.7000
 43
1.0000
 50
0.0000
  0
LINE
  8
51
 10
-22.1490
 20
-26.3910
 30
0.0000
 11
-22.1490
 21
-25.6790
 31
0.0000
  0
LINE
  8
51
 10
-21.2980
 20
-26.3910
 30
0.0000
 11
-21.2980
 21
-25.6790
 31
0.0000
  0
INSERT
  8
51
  2
RECT
 10
-21.7221
 20
-26.6232
 30
0.0000
 41
0.5001
 42
0.9500
 43
1.0000
 50
90.0000
  0
INSERT
  8
51
  2
RECT
 10
-21.7221
 20
-25.4548
 30
0.0000
 41
0.5001
 42
0.9500
 43
1.0000
 50
90.0000
  0
LINE
  8
51
 10
-24.9430
 20
-26.3910
 30
0.0000
 11
-24.9430
 21
-25.6790
 31
0.0000
  0
LINE
  8
51
 10
-24.0920
 20
-26.3910
 30
0.0000
 11
-24.0920
 21
-25.6790
 31
0.0000
  0
INSERT
  8
51
  2
RECT
 10
-24.5161
 20
-26.6232
 30
0.0000
 41
0.5001
 42
0.9500
 43
1.0000
 50
90.0000
  0
INSERT
  8
51
  2
RECT
 10
-24.5161
 20
-25.4548
 30
0.0000
 41
0.5001
 42
0.9500
 43
1.0000
 50
90.0000
  0
LINE
  8
51
 10
-33.7060
 20
39.2680
 30
0.0000
 11
-33.7060
 21
39.9800
 31
0.0000
  0
LINE
  8
51
 10
-32.8550
 20
39.2680
 30
0.0000
 11
-32.8550
 21
39.9800
 31
0.0000
  0
INSERT
  8
51
  2
RECT
 10
-33.2791
 20
39.0359
 30
0.0000
 41
0.5001
 42
0.9500
 43
1.0000
 50
90.0000
  0
INSERT
  8
51
  2
RECT
 10
-33.2791
 20
40.2043
 30
0.0000
 41
0.5001
 42
0.9500
 43
1.0000
 50
90.0000
  0
LINE
  8
51
 10
-34.2650
 20
13.2590
 30
0.0000
 11
-33.5530
 21
13.2590
 31
0.0000
  0
LINE
  8
51
 10
-34.2650
 20
12.4080
 30
0.0000
 11
-33.5530
 21
12.4080
 31
0.0000
  0
INSERT
  8
51
  2
RECT
 10
-34.4972
 20
12.8321
 30
0.0000
 41
0.5001
 42
0.9500
 43
1.0000
 50
0.0000
  0
INSERT
  8
51
  2
RECT
 10
-33.3287
 20
12.8321
 30
0.0000
 41
0.5001
 42
0.9500
 43
1.0000
 50
0.0000
  0
LINE
  8
51
 10
43.5610
 20
-73.6600
 30
0.0000
 11
42.2910
 21
-73.6600
 31
0.0000
  0
LINE
  8
51
 10
42.2910
 20
-73.6600
 30
0.0000
 11
42.2910
 21
-71.6280
 31
0.0000
  0
LINE
  8
51
 10
42.2910
 20
-71.6280
 30
0.0000
 11
43.5610
 21
-71.6280
 31
0.0000
  0
LINE
  8
51
 10
43.5610
 20
-71.6280
 30
0.0000
 11
43.5610
 21
-73.6600
 31
0.0000
  0
LINE
  8
21
 10
42.2910
 20
-72.6440
 30
0.0000
 11
43.5610
 21
-72.6440
 31
0.0000
  0
LINE
  8
21
 10
43.5610
 20
-74.8030
 30
0.0000
 11
42.2910
 21
-74.8030
 31
0.0000
  0
LINE
  8
51
 10
36.2970
 20
-12.8780
 30
0.0000
 11
35.5850
 21
-12.8780
 31
0.0000
  0
LINE
  8
51
 10
36.2970
 20
-12.0270
 30
0.0000
 11
35.5850
 21
-12.0270
 31
0.0000
  0
INSERT
  8
51
  2
RECT
 10
36.5292
 20
-12.4511
 30
0.0000
 41
0.5001
 42
0.9500
 43
1.0000
 50
180.0000
  0
INSERT
  8
51
  2
RECT
 10
35.3608
 20
-12.4511
 30
0.0000
 41
0.5001
 42
0.9500
 43
1.0000
 50
180.0000
  0
LINE
  8
51
 10
-35.5850
 20
-12.8780
 30
0.0000
 11
-36.2970
 21
-12.8780
 31
0.0000
  0
LINE
  8
51
 10
-35.5850
 20
-12.0270
 30
0.0000
 11
-36.2970
 21
-12.0270
 31
0.0000
  0
INSERT
  8
51
  2
RECT
 10
-35.3529
 20
-12.4511
 30
0.0000
 41
0.5001
 42
0.9500
 43
1.0000
 50
180.0000
  0
INSERT
  8
51
  2
RECT
 10
-36.5213
 20
-12.4511
 30
0.0000
 41
0.5001
 42
0.9500
 43
1.0000
 50
180.0000
  0
LINE
  8
51
 10
-20.5994
 20
-54.5592
 30
0.0000
 11
-20.5994
 21
-57.2008
 31
0.0000
  0
LINE
  8
51
 10
-19.0246
 20
-54.5592
 30
0.0000
 11
-19.0246
 21
-57.2008
 31
0.0000
  0
LINE
  8
21
 10
-20.3120
 20
-55.3800
 30
0.0000
 11
-19.8120
 21
-56.3800
 31
0.0000
  0
LINE
  8
21
 10
-19.8120
 20
-56.3800
 30
0.0000
 11
-19.3120
 21
-55.3800
 31
0.0000
  0
LINE
  8
21
 10
-19.3120
 20
-55.3800
 30
0.0000
 11
-20.3120
 21
-55.3800
 31
0.0000
  0
INSERT
  8
51
  2
RECT
 10
-19.8120
 20
-57.4548
 30
0.0000
 41
0.5588
 42
1.7272
 43
1.0000
 50
90.0000
  0
INSERT
  8
51
  2
RECT
 10
-19.8120
 20
-54.3052
 30
0.0000
 41
0.5588
 42
1.7272
 43
1.0000
 50
90.0000
  0
INSERT
  8
21
  2
RECT
 10
-19.8120
 20
-56.4388
 30
0.0000
 41
0.6096
 42
1.5748
 43
1.0000
 50
90.0000
  0
LINE
  8
21
 10
13.3350
 20
-11.7094
 30
0.0000
 11
13.3350
 21
-16.2306
 31
0.0000
  0
LINE
  8
21
 10
9.5250
 20
-11.7094
 30
0.0000
 11
9.5250
 21
-16.2306
 31
0.0000
  0
LINE
  8
51
 10
9.5250
 20
-11.7094
 30
0.0000
 11
13.3350
 21
-11.7094
 31
0.0000
  0
LINE
  8
51
 10
9.5250
 20
-16.2306
 30
0.0000
 11
13.3350
 21
-16.2306
 31
0.0000
  0
LINE
  8
21
 10
12.4300
 20
-14.1630
 30
0.0000
 11
11.4300
 21
-13.1400
 31
0.0000
  0
LINE
  8
21
 10
11.4300
 20
-13.1400
 30
0.0000
 11
10.4300
 21
-14.1630
 31
0.0000
  0
LINE
  8
21
 10
10.4300
 20
-14.1630
 30
0.0000
 11
12.4300
 21
-14.1630
 31
0.0000
  0
INSERT
  8
51
  2
RECT
 10
11.4300
 20
-11.4427
 30
0.0000
 41
0.5334
 42
2.1844
 43
1.0000
 50
270.0000
  0
INSERT
  8
51
  2
RECT
 10
11.4300
 20
-16.4973
 30
0.0000
 41
0.5334
 42
2.1844
 43
1.0000
 50
270.0000
  0
INSERT
  8
51
  2
RECT
 10
11.4300
 20
-12.8950
 30
0.0000
 41
0.5500
 42
3.8000
 43
1.0000
 50
270.0000
  0
LINE
  8
21
 10
-18.7706
 20
-24.1300
 30
0.0000
 11
-14.2494
 21
-24.1300
 31
0.0000
  0
LINE
  8
21
 10
-18.7706
 20
-27.9400
 30
0.0000
 11
-14.2494
 21
-27.9400
 31
0.0000
  0
LINE
  8
51
 10
-18.7706
 20
-27.9400
 30
0.0000
 11
-18.7706
 21
-24.1300
 31
0.0000
  0
LINE
  8
51
 10
-14.2494
 20
-27.9400
 30
0.0000
 11
-14.2494
 21
-24.1300
 31
0.0000
  0
LINE
  8
21
 10
-16.3170
 20
-25.0350
 30
0.0000
 11
-17.3400
 21
-26.0350
 31
0.0000
  0
LINE
  8
21
 10
-17.3400
 20
-26.0350
 30
0.0000
 11
-16.3170
 21
-27.0350
 31
0.0000
  0
LINE
  8
21
 10
-16.3170
 20
-27.0350
 30
0.0000
 11
-16.3170
 21
-25.0350
 31
0.0000
  0
INSERT
  8
51
  2
RECT
 10
-19.0373
 20
-26.0350
 30
0.0000
 41
0.5334
 42
2.1844
 43
1.0000
 50
0.0000
  0
INSERT
  8
51
  2
RECT
 10
-13.9827
 20
-26.0350
 30
0.0000
 41
0.5334
 42
2.1844
 43
1.0000
 50
0.0000
  0
INSERT
  8
51
  2
RECT
 10
-17.5850
 20
-26.0350
 30
0.0000
 41
0.5500
 42
3.8000
 43
1.0000
 50
0.0000
  0
LINE
  8
51
 10
-38.5318
 20
17.1196
 30
0.0000
 11
-35.8902
 21
17.1196
 31
0.0000
  0
LINE
  8
51
 10
-38.5318
 20
18.6944
 30
0.0000
 11
-35.8902
 21
18.6944
 31
0.0000
  0
LINE
  8
21
 10
-37.7110
 20
17.4070
 30
0.0000
 11
-36.7110
 21
17.9070
 31
0.0000
  0
LINE
  8
21
 10
-36.7110
 20
17.9070
 30
0.0000
 11
-37.7110
 21
18.4070
 31
0.0000
  0
LINE
  8
21
 10
-37.7110
 20
18.4070
 30
0.0000
 11
-37.7110
 21
17.4070
 31
0.0000
  0
INSERT
  8
51
  2
RECT
 10
-35.6362
 20
17.9070
 30
0.0000
 41
0.5588
 42
1.7272
 43
1.0000
 50
180.0000
  0
INSERT
  8
51
  2
RECT
 10
-38.7858
 20
17.9070
 30
0.0000
 41
0.5588
 42
1.7272
 43
1.0000
 50
180.0000
  0
INSERT
  8
21
  2
RECT
 10
-36.6522
 20
17.9070
 30
0.0000
 41
0.6096
 42
1.5748
 43
1.0000
 50
180.0000
  0
LINE
  8
51
 10
60.3400
 20
11.0000
 30
0.0000
 11
46.3400
 21
11.0000
 31
0.0000
  0
LINE
  8
51
 10
46.3400
 20
11.0000
 30
0.0000
 11
46.3400
 21
3.0000
 31
0.0000
  0
LINE
  8
51
 10
46.3400
 20
3.0000
 30
0.0000
 11
46.3400
 21
-3.0000
 31
0.0000
  0
LINE
  8
51
 10
46.3400
 20
-3.0000
 30
0.0000
 11
46.3400
 21
-7.0000
 31
0.0000
  0
LINE
  8
51
 10
46.3400
 20
-7.0000
 30
0.0000
 11
46.3400
 21
-14.0000
 31
0.0000
  0
LINE
  8
51
 10
46.3400
 20
-14.0000
 30
0.0000
 11
15.3400
 21
-14.0000
 31
0.0000
  0
LINE
  8
51
 10
15.3400
 20
-14.0000
 30
0.0000
 11
15.3400
 21
-31.0000
 31
0.0000
  0
LINE
  8
51
 10
60.3400
 20
11.0000
 30
0.0000
 11
60.3400
 21
3.0000
 31
0.0000
  0
LINE
  8
51
 10
60.3400
 20
3.0000
 30
0.0000
 11
60.3400
 21
-3.0000
 31
0.0000
  0
LINE
  8
51
 10
60.3400
 20
-3.0000
 30
0.0000
 11
60.3400
 21
-8.0000
 31
0.0000
  0
LINE
  8
51
 10
60.3400
 20
-8.0000
 30
0.0000
 11
60.3400
 21
-12.0000
 31
0.0000
  0
LINE
  8
51
 10
60.3400
 20
-12.0000
 30
0.0000
 11
60.3400
 21
-31.0000
 31
0.0000
  0
LINE
  8
51
 10
60.3400
 20
-31.0000
 30
0.0000
 11
46.3400
 21
-31.0000
 31
0.0000
  0
LINE
  8
51
 10
46.3400
 20
-31.0000
 30
0.0000
 11
15.3400
 21
-31.0000
 31
0.0000
  0
LINE
  8
51
 10
37.3400
 20
-12.0000
 30
0.0000
 11
15.3400
 21
-12.0000
 31
0.0000
  0
LINE
  8
51
 10
15.3400
 20
-12.0000
 30
0.0000
 11
15.3400
 21
-14.0000
 31
0.0000
  0
LINE
  8
51
 10
15.3400
 20
-31.0000
 30
0.0000
 11
15.3400
 21
-32.0000
 31
0.0000
  0
LINE
  8
51
 10
15.3400
 20
-32.0000
 30
0.0000
 11
37.3400
 21
-32.0000
 31
0.0000
  0
LINE
  8
51
 10
46.3400
 20
-7.0000
 30
0.0000
 11
37.3400
 21
-7.0000
 31
0.0000
  0
LINE
  8
51
 10
37.3400
 20
-7.0000
 30
0.0000
 11
37.3400
 21
-12.0000
 31
0.0000
  0
LINE
  8
51
 10
37.3400
 20
-37.0000
 30
0.0000
 11
46.3400
 21
-37.0000
 31
0.0000
  0
LINE
  8
51
 10
46.3400
 20
-37.0000
 30
0.0000
 11
46.3400
 21
-31.0000
 31
0.0000
  0
LINE
  8
51
 10
37.3400
 20
-32.0000
 30
0.0000
 11
37.3400
 21
-37.0000
 31
0.0000
  0
LINE
  8
51
 10
68.3400
 20
0.0000
 30
0.0000
 11
33.3400
 21
0.0000
 31
0.0000
  0
LINE
  8
51
 10
60.3400
 20
3.0000
 30
0.0000
 11
68.3400
 21
3.0000
 31
0.0000
  0
LINE
  8
51
 10
60.3400
 20
-3.0000
 30
0.0000
 11
68.3400
 21
-3.0000
 31
0.0000
  0
LINE
  8
51
 10
68.3400
 20
3.0000
 30
0.0000
 11
68.3400
 21
0.0000
 31
0.0000
  0
LINE
  8
51
 10
68.3400
 20
0.0000
 30
0.0000
 11
68.3400
 21
-3.0000
 31
0.0000
  0
LINE
  8
51
 10
46.3400
 20
-3.0000
 30
0.0000
 11
33.3400
 21
-3.0000
 31
0.0000
  0
LINE
  8
51
 10
46.3400
 20
3.0000
 30
0.0000
 11
33.3400
 21
3.0000
 31
0.0000
  0
LINE
  8
51
 10
33.3400
 20
3.0000
 30
0.0000
 11
33.3400
 21
-3.0000
 31
0.0000
  0
LINE
  8
51
 10
60.3400
 20
-8.0000
 30
0.0000
 11
62.3400
 21
-8.0000
 31
0.0000
  0
LINE
  8
51
 10
62.3400
 20
-8.0000
 30
0.0000
 11
62.3400
 21
-12.0000
 31
0.0000
  0
LINE
  8
51
 10
62.3400
 20
-12.0000
 30
0.0000
 11
60.3400
 21
-12.0000
 31
0.0000
  0
LINE
  8
21
 10
62.3400
 20
11.0000
 30
0.0000
 11
62.3400
 21
-31.0000
 31
0.0000
  0
LINE
  8
21
 10
44.3400
 20
11.0000
 30
0.0000
 11
44.3400
 21
-31.0000
 31
0.0000
  0
ARC
  8
21
 10
53.3400
 20
9.9375
 30
0.0000
 40
9.0625
 50
6.7329
 51
173.2671
  0
ARC
  8
21
 10
53.3400
 20
-29.9375
 30
0.0000
 40
9.0625
 50
186.7329
 51
353.2671
  0
LINE
  8
51
 10
53.3400
 20
19.0000
 30
0.0000
 11
53.3400
 21
-39.0000
 31
0.0000
  0
CIRCLE
  8
20
 10
53.3400
 20
0.0000
 30
0.0000
 40
1.6000
  0
CIRCLE
  8
20
 10
53.3400
 20
-22.0000
 30
0.0000
 40
1.6000
  0
CIRCLE
  8
20
 10
53.3400
 20
-35.0000
 30
0.0000
 40
1.6000
  0
CIRCLE
  8
20
 10
53.3400
 20
15.0000
 30
0.0000
 40
1.6000
  0
LINE
  8
51
 10
-33.9740
 20
43.4770
 30
0.0000
 11
-33.9740
 21
45.6770
 31
0.0000
  0
LINE
  8
51
 10
-33.9740
 20
45.6770
 30
0.0000
 11
-32.5740
 21
45.6770
 31
0.0000
  0
LINE
  8
51
 10
-32.5740
 20
45.6770
 30
0.0000
 11
-32.5740
 21
43.4770
 31
0.0000
  0
LINE
  8
51
 10
-32.5740
 20
43.4770
 30
0.0000
 11
-33.9740
 21
43.4770
 31
0.0000
  0
INSERT
  8
51
  2
RECT
 10
-33.2490
 20
43.0020
 30
0.0000
 41
0.7500
 42
0.8500
 43
1.0000
 50
90.0000
  0
INSERT
  8
51
  2
RECT
 10
-33.2490
 20
46.1520
 30
0.0000
 41
0.7500
 42
0.8500
 43
1.0000
 50
90.0000
  0
INSERT
  8
51
  2
RECT
 10
-33.2990
 20
43.9770
 30
0.0000
 41
0.9000
 42
1.3500
 43
1.0000
 50
90.0000
  0
CIRCLE
  8
22
 10
-8.0000
 20
66.0900
 30
0.0000
 40
3.0000
  0
CIRCLE
  8
22
 10
0.0000
 20
66.0900
 30
0.0000
 40
8.0000
  0
CIRCLE
  8
22
 10
8.0000
 20
66.0900
 30
0.0000
 40
3.0000
  0
CIRCLE
  8
20
 10
-8.0000
 20
66.0400
 30
0.0000
 40
1.0000
  0
CIRCLE
  8
20
 10
8.0000
 20
66.0400
 30
0.0000
 40
1.0000
  0
CIRCLE
  8
22
 10
-8.0000
 20
-81.7200
 30
0.0000
 40
3.0000
  0
CIRCLE
  8
22
 10
0.0000
 20
-81.7200
 30
0.0000
 40
8.0000
  0
CIRCLE
  8
22
 10
8.0000
 20
-81.7200
 30
0.0000
 40
3.0000
  0
CIRCLE
  8
20
 10
-8.0000
 20
-81.7700
 30
0.0000
 40
1.0000
  0
CIRCLE
  8
20
 10
8.0000
 20
-81.7700
 30
0.0000
 40
1.0000
  0
LINE
  8
51
 10
-33.9852
 20
-57.4802
 30
0.0000
 11
-33.9852
 21
-54.5338
 31
0.0000
  0
LINE
  8
51
 10
-30.7848
 20
-57.4548
 30
0.0000
 11
-30.7848
 21
-54.5338
 31
0.0000
  0
INSERT
  8
51
  2
RECT
 10
-32.3840
 20
-57.9196
 30
0.0000
 41
0.9500
 42
3.3000
 43
1.0000
 50
90.0000
  0
INSERT
  8
51
  2
RECT
 10
-32.3840
 20
-54.0842
 30
0.0000
 41
0.9500
 42
3.3000
 43
1.0000
 50
90.0000
  0
LINE
  8
51
 10
-17.8310
 20
-12.3050
 30
0.0000
 11
-17.8310
 21
-13.0050
 31
0.0000
  0
LINE
  8
51
 10
-17.8310
 20
-13.0050
 30
0.0000
 11
-17.8310
 21
-16.2050
 31
0.0000
  0
LINE
  8
51
 10
-17.8310
 20
-16.2050
 30
0.0000
 11
-17.8310
 21
-16.9050
 31
0.0000
  0
LINE
  8
51
 10
-17.8310
 20
-16.9050
 30
0.0000
 11
-19.0310
 21
-16.9050
 31
0.0000
  0
LINE
  8
51
 10
-21.0310
 20
-16.9050
 30
0.0000
 11
-21.0310
 21
-16.2050
 31
0.0000
  0
LINE
  8
51
 10
-21.0310
 20
-16.2050
 30
0.0000
 11
-21.0310
 21
-13.0050
 31
0.0000
  0
LINE
  8
51
 10
-21.0310
 20
-13.0050
 30
0.0000
 11
-21.0310
 21
-12.3050
 31
0.0000
  0
LINE
  8
51
 10
-21.0310
 20
-12.3050
 30
0.0000
 11
-19.8310
 21
-12.3050
 31
0.0000
  0
LINE
  8
51
 10
-19.0310
 20
-12.3050
 30
0.0000
 11
-17.8310
 21
-12.3050
 31
0.0000
  0
ARC
  8
51
 10
-19.4310
 20
-12.3050
 30
0.0000
 40
0.4000
 50
180.0000
 51
0.0000
  0
ARC
  8
51
 10
-19.4310
 20
-16.9050
 30
0.0000
 40
0.4000
 50
0.0000
 51
180.0000
  0
LINE
  8
51
 10
-19.8310
 20
-16.9050
 30
0.0000
 11
-21.0310
 21
-16.9050
 31
0.0000
  0
LINE
  8
51
 10
-17.8310
 20
-13.0050
 30
0.0000
 11
-21.0310
 21
-13.0050
 31
0.0000
  0
LINE
  8
51
 10
-17.8310
 20
-16.2050
 30
0.0000
 11
-21.0310
 21
-16.2050
 31
0.0000
  0
LINE
  8
22
 10
24.9080
 20
54.7210
 30
0.0000
 11
24.9080
 21
46.8790
 31
0.0000
  0
LINE
  8
22
 10
31.9880
 20
46.8790
 30
0.0000
 11
31.9880
 21
54.7840
 31
0.0000
  0
LINE
  8
22
 10
28.9480
 20
54.8000
 30
0.0000
 11
28.9480
 21
54.3000
 31
0.0000
  0
LINE
  8
22
 10
28.9480
 20
54.3000
 30
0.0000
 11
27.9480
 21
54.3000
 31
0.0000
  0
LINE
  8
22
 10
27.9480
 20
54.3000
 30
0.0000
 11
27.9480
 21
54.8000
 31
0.0000
  0
LINE
  8
22
 10
28.9480
 20
46.8000
 30
0.0000
 11
28.9480
 21
47.3000
 31
0.0000
  0
LINE
  8
22
 10
28.9480
 20
47.3000
 30
0.0000
 11
27.9480
 21
47.3000
 31
0.0000
  0
LINE
  8
22
 10
27.9480
 20
47.3000
 30
0.0000
 11
27.9480
 21
46.8000
 31
0.0000
  0
LINE
  8
22
 10
28.9480
 20
54.8000
 30
0.0000
 11
31.9480
 21
54.8000
 31
0.0000
  0
LINE
  8
22
 10
27.9480
 20
54.8000
 30
0.0000
 11
24.9480
 21
54.8000
 31
0.0000
  0
LINE
  8
22
 10
28.9480
 20
46.8000
 30
0.0000
 11
31.9480
 21
46.8000
 31
0.0000
  0
LINE
  8
22
 10
27.9480
 20
46.8000
 30
0.0000
 11
24.9480
 21
46.8000
 31
0.0000
  0
LINE
  8
22
 10
-16.2400
 20
57.2610
 30
0.0000
 11
-16.2400
 21
49.4190
 31
0.0000
  0
LINE
  8
22
 10
-9.1600
 20
49.4190
 30
0.0000
 11
-9.1600
 21
57.3240
 31
0.0000
  0
LINE
  8
22
 10
-12.2000
 20
57.3400
 30
0.0000
 11
-12.2000
 21
56.8400
 31
0.0000
  0
LINE
  8
22
 10
-12.2000
 20
56.8400
 30
0.0000
 11
-13.2000
 21
56.8400
 31
0.0000
  0
LINE
  8
22
 10
-13.2000
 20
56.8400
 30
0.0000
 11
-13.2000
 21
57.3400
 31
0.0000
  0
LINE
  8
22
 10
-12.2000
 20
49.3400
 30
0.0000
 11
-12.2000
 21
49.8400
 31
0.0000
  0
LINE
  8
22
 10
-12.2000
 20
49.8400
 30
0.0000
 11
-13.2000
 21
49.8400
 31
0.0000
  0
LINE
  8
22
 10
-13.2000
 20
49.8400
 30
0.0000
 11
-13.2000
 21
49.3400
 31
0.0000
  0
LINE
  8
22
 10
-12.2000
 20
57.3400
 30
0.0000
 11
-9.2000
 21
57.3400
 31
0.0000
  0
LINE
  8
22
 10
-13.2000
 20
57.3400
 30
0.0000
 11
-16.2000
 21
57.3400
 31
0.0000
  0
LINE
  8
22
 10
-12.2000
 20
49.3400
 30
0.0000
 11
-9.2000
 21
49.3400
 31
0.0000
  0
LINE
  8
22
 10
-13.2000
 20
49.3400
 30
0.0000
 11
-16.2000
 21
49.3400
 31
0.0000
  0
LINE
  8
22
 10
9.1600
 20
57.2610
 30
0.0000
 11
9.1600
 21
49.4190
 31
0.0000
  0
LINE
  8
22
 10
16.2400
 20
49.4190
 30
0.0000
 11
16.2400
 21
57.3240
 31
0.0000
  0
LINE
  8
22
 10
13.2000
 20
57.3400
 30
0.0000
 11
13.2000
 21
56.8400
 31
0.0000
  0
LINE
  8
22
 10
13.2000
 20
56.8400
 30
0.0000
 11
12.2000
 21
56.8400
 31
0.0000
  0
LINE
  8
22
 10
12.2000
 20
56.8400
 30
0.0000
 11
12.2000
 21
57.3400
 31
0.0000
  0
LINE
  8
22
 10
13.2000
 20
49.3400
 30
0.0000
 11
13.2000
 21
49.8400
 31
0.0000
  0
LINE
  8
22
 10
13.2000
 20
49.8400
 30
0.0000
 11
12.2000
 21
49.8400
 31
0.0000
  0
LINE
  8
22
 10
12.2000
 20
49.8400
 30
0.0000
 11
12.2000
 21
49.3400
 31
0.0000
  0
LINE
  8
22
 10
13.2000
 20
57.3400
 30
0.0000
 11
16.2000
 21
57.3400
 31
0.0000
  0
LINE
  8
22
 10
12.2000
 20
57.3400
 30
0.0000
 11
9.2000
 21
57.3400
 31
0.0000
  0
LINE
  8
22
 10
13.2000
 20
49.3400
 30
0.0000
 11
16.2000
 21
49.3400
 31
0.0000
  0
LINE
  8
22
 10
12.2000
 20
49.3400
 30
0.0000
 11
9.2000
 21
49.3400
 31
0.0000
  0
LINE
  8
22
 10
-31.9880
 20
54.7210
 30
0.0000
 11
-31.9880
 21
46.8790
 31
0.0000
  0
LINE
  8
22
 10
-24.9080
 20
46.8790
 30
0.0000
 11
-24.9080
 21
54.7840
 31
0.0000
  0
LINE
  8
22
 10
-27.9480
 20
54.8000
 30
0.0000
 11
-27.9480
 21
54.3000
 31
0.0000
  0
LINE
  8
22
 10
-27.9480
 20
54.3000
 30
0.0000
 11
-28.9480
 21
54.3000
 31
0.0000
  0
LINE
  8
22
 10
-28.9480
 20
54.3000
 30
0.0000
 11
-28.9480
 21
54.8000
 31
0.0000
  0
LINE
  8
22
 10
-27.9480
 20
46.8000
 30
0.0000
 11
-27.9480
 21
47.3000
 31
0.0000
  0
LINE
  8
22
 10
-27.9480
 20
47.3000
 30
0.0000
 11
-28.9480
 21
47.3000
 31
0.0000
  0
LINE
  8
22
 10
-28.9480
 20
47.3000
 30
0.0000
 11
-28.9480
 21
46.8000
 31
0.0000
  0
LINE
  8
22
 10
-27.9480
 20
54.8000
 30
0.0000
 11
-24.9480
 21
54.8000
 31
0.0000
  0
LINE
  8
22
 10
-28.9480
 20
54.8000
 30
0.0000
 11
-31.9480
 21
54.8000
 31
0.0000
  0
LINE
  8
22
 10
-27.9480
 20
46.8000
 30
0.0000
 11
-24.9480
 21
46.8000
 31
0.0000
  0
LINE
  8
22
 10
-28.9480
 20
46.8000
 30
0.0000
 11
-31.9480
 21
46.8000
 31
0.0000
  0
LINE
  8
22
 10
-3.5400
 20
57.2610
 30
0.0000
 11
-3.5400
 21
49.4190
 31
0.0000
  0
LINE
  8
22
 10
3.5400
 20
49.4190
 30
0.0000
 11
3.5400
 21
57.3240
 31
0.0000
  0
LINE
  8
22
 10
0.5000
 20
57.3400
 30
0.0000
 11
0.5000
 21
56.8400
 31
0.0000
  0
LINE
  8
22
 10
0.5000
 20
56.8400
 30
0.0000
 11
-0.5000
 21
56.8400
 31
0.0000
  0
LINE
  8
22
 10
-0.5000
 20
56.8400
 30
0.0000
 11
-0.5000
 21
57.3400
 31
0.0000
  0
LINE
  8
22
 10
0.5000
 20
49.3400
 30
0.0000
 11
0.5000
 21
49.8400
 31
0.0000
  0
LINE
  8
22
 10
0.5000
 20
49.8400
 30
0.0000
 11
-0.5000
 21
49.8400
 31
0.0000
  0
LINE
  8
22
 10
-0.5000
 20
49.8400
 30
0.0000
 11
-0.5000
 21
49.3400
 31
0.0000
  0
LINE
  8
22
 10
0.5000
 20
57.3400
 30
0.0000
 11
3.5000
 21
57.3400
 31
0.0000
  0
LINE
  8
22
 10
-0.5000
 20
57.3400
 30
0.0000
 11
-3.5000
 21
57.3400
 31
0.0000
  0
LINE
  8
22
 10
0.5000
 20
49.3400
 30
0.0000
 11
3.5000
 21
49.3400
 31
0.0000
  0
LINE
  8
22
 10
-0.5000
 20
49.3400
 30
0.0000
 11
-3.5000
 21
49.3400
 31
0.0000
  0
LINE
  8
21
 10
30.5040
 20
48.3480
 30
0.0000
 11
-31.4960
 21
48.3480
 31
0.0000
  0
LINE
  8
21
 10
-31.4960
 20
48.3480
 30
0.0000
 11
-31.4960
 21
-9.6520
 31
0.0000
  0
LINE
  8
21
 10
-31.4960
 20
-9.6520
 30
0.0000
 11
30.5040
 21
-9.6520
 31
0.0000
  0
LINE
  8
21
 10
30.5040
 20
-9.6520
 30
0.0000
 11
30.5040
 21
48.3480
 31
0.0000
  0
LINE
  8
51
 10
30.5040
 20
-3.6520
 30
0.0000
 11
-31.4960
 21
-3.6520
 31
0.0000
  0
CIRCLE
  8
20
 10
25.6540
 20
19.5580
 30
0.0000
 40
1.6000
  0
CIRCLE
  8
20
 10
-26.4160
 20
19.5580
 30
0.0000
 40
1.6000
  0
LINE
  8
51
 10
42.2148
 20
28.0670
 30
0.0000
 11
42.2148
 21
36.1950
 31
0.0000
  0
ARC
  8
21
 10
38.6842
 20
28.0670
 30
0.0000
 40
0.3810
 50
180.0000
 51
270.0000
  0
ARC
  8
21
 10
41.8338
 20
36.1950
 30
0.0000
 40
0.3810
 50
0.0000
 51
90.0000
  0
ARC
  8
21
 10
41.8338
 20
28.0670
 30
0.0000
 40
0.3810
 50
270.0000
 51
0.0000
  0
ARC
  8
21
 10
38.6842
 20
36.1950
 30
0.0000
 40
0.3810
 50
90.0000
 51
180.0000
  0
LINE
  8
51
 10
38.3032
 20
36.1950
 30
0.0000
 11
38.3032
 21
28.0670
 31
0.0000
  0
LINE
  8
21
 10
38.6842
 20
27.6860
 30
0.0000
 11
41.8338
 21
27.6860
 31
0.0000
  0
LINE
  8
21
 10
41.8338
 20
36.5760
 30
0.0000
 11
40.7670
 21
36.5760
 31
0.0000
  0
LINE
  8
21
 10
40.7670
 20
36.5760
 30
0.0000
 11
39.7510
 21
36.5760
 31
0.0000
  0
LINE
  8
21
 10
39.7510
 20
36.5760
 30
0.0000
 11
38.6842
 21
36.5760
 31
0.0000
  0
ARC
  8
21
 10
40.2590
 20
36.5760
 30
0.0000
 40
0.5080
 50
180.0000
 51
0.0000
  0
LINE
  8
21
 10
38.6588
 20
36.5760
 30
0.0000
 11
38.6588
 21
27.6860
 31
0.0000
  0
INSERT
  8
51
  2
RECT
 10
42.7863
 20
32.1310
 30
0.0000
 41
0.5080
 42
1.1430
 43
1.0000
 50
270.0000
  0
INSERT
  8
51
  2
RECT
 10
37.7317
 20
35.9410
 30
0.0000
 41
0.5080
 42
1.1430
 43
1.0000
 50
270.0000
  0
INSERT
  8
51
  2
RECT
 10
37.7317
 20
34.6710
 30
0.0000
 41
0.5080
 42
1.1430
 43
1.0000
 50
270.0000
  0
INSERT
  8
51
  2
RECT
 10
37.7571
 20
33.4010
 30
0.0000
 41
0.5080
 42
1.1430
 43
1.0000
 50
270.0000
  0
INSERT
  8
51
  2
RECT
 10
37.7317
 20
32.1310
 30
0.0000
 41
0.5080
 42
1.1430
 43
1.0000
 50
270.0000
  0
INSERT
  8
51
  2
RECT
 10
42.7863
 20
33.4010
 30
0.0000
 41
0.5080
 42
1.1430
 43
1.0000
 50
270.0000
  0
INSERT
  8
51
  2
RECT
 10
42.7863
 20
34.6710
 30
0.0000
 41
0.5080
 42
1.1430
 43
1.0000
 50
270.0000
  0
INSERT
  8
51
  2
RECT
 10
42.7863
 20
35.9410
 30
0.0000
 41
0.5080
 42
1.1430
 43
1.0000
 50
270.0000
  0
INSERT
  8
51
  2
RECT
 10
42.7863
 20
30.8610
 30
0.0000
 41
0.5080
 42
1.1430
 43
1.0000
 50
270.0000
  0
INSERT
  8
51
  2
RECT
 10
42.7863
 20
29.5910
 30
0.0000
 41
0.5080
 42
1.1430
 43
1.0000
 50
270.0000
  0
INSERT
  8
51
  2
RECT
 10
42.7863
 20
28.3210
 30
0.0000
 41
0.5080
 42
1.1430
 43
1.0000
 50
270.0000
  0
INSERT
  8
51
  2
RECT
 10
37.7317
 20
30.8610
 30
0.0000
 41
0.5080
 42
1.1430
 43
1.0000
 50
270.0000
  0
INSERT
  8
51
  2
RECT
 10
37.7317
 20
29.5910
 30
0.0000
 41
0.5080
 42
1.1430
 43
1.0000
 50
270.0000
  0
INSERT
  8
51
  2
RECT
 10
37.7317
 20
28.3210
 30
0.0000
 41
0.5080
 42
1.1430
 43
1.0000
 50
270.0000
  0
LINE
  8
51
 10
2.6000
 20
-13.0400
 30
0.0000
 11
-2.6000
 21
-13.0400
 31
0.0000
  0
LINE
  8
51
 10
-2.6000
 20
-13.0400
 30
0.0000
 11
-2.6000
 21
-13.5400
 31
0.0000
  0
LINE
  8
51
 10
-2.6000
 20
-13.5400
 30
0.0000
 11
-2.6000
 21
-17.4400
 31
0.0000
  0
LINE
  8
51
 10
-2.6000
 20
-17.4400
 30
0.0000
 11
2.6000
 21
-17.4400
 31
0.0000
  0
LINE
  8
51
 10
2.6000
 20
-17.4400
 30
0.0000
 11
2.6000
 21
-13.5400
 31
0.0000
  0
LINE
  8
51
 10
2.6000
 20
-13.5400
 30
0.0000
 11
2.6000
 21
-13.0400
 31
0.0000
  0
LINE
  8
51
 10
2.6000
 20
-13.5400
 30
0.0000
 11
-2.6000
 21
-13.5400
 31
0.0000
  0
INSERT
  8
51
  2
RECT
 10
2.2750
 20
-12.5900
 30
0.0000
 41
0.2000
 42
0.9000
 43
1.0000
 50
180.0000
  0
INSERT
  8
51
  2
RECT
 10
1.6250
 20
-12.5900
 30
0.0000
 41
0.2000
 42
0.9000
 43
1.0000
 50
180.0000
  0
INSERT
  8
51
  2
RECT
 10
0.9750
 20
-12.5900
 30
0.0000
 41
0.2000
 42
0.9000
 43
1.0000
 50
180.0000
  0
INSERT
  8
51
  2
RECT
 10
0.3250
 20
-12.5900
 30
0.0000
 41
0.2000
 42
0.9000
 43
1.0000
 50
180.0000
  0
INSERT
  8
51
  2
RECT
 10
-0.3250
 20
-12.5900
 30
0.0000
 41
0.2000
 42
0.9000
 43
1.0000
 50
180.0000
  0
INSERT
  8
51
  2
RECT
 10
-0.9750
 20
-12.5900
 30
0.0000
 41
0.2000
 42
0.9000
 43
1.0000
 50
180.0000
  0
INSERT
  8
51
  2
RECT
 10
-1.6250
 20
-12.5900
 30
0.0000
 41
0.2000
 42
0.9000
 43
1.0000
 50
180.0000
  0
INSERT
  8
51
  2
RECT
 10
-2.2750
 20
-12.5900
 30
0.0000
 41
0.2000
 42
0.9000
 43
1.0000
 50
180.0000
  0
INSERT
  8
51
  2
RECT
 10
-2.2750
 20
-17.8900
 30
0.0000
 41
0.2000
 42
0.9000
 43
1.0000
 50
180.0000
  0
INSERT
  8
51
  2
RECT
 10
-1.6250
 20
-17.8900
 30
0.0000
 41
0.2000
 42
0.9000
 43
1.0000
 50
180.0000
  0
INSERT
  8
51
  2
RECT
 10
-0.9750
 20
-17.8900
 30
0.0000
 41
0.2000
 42
0.9000
 43
1.0000
 50
180.0000
  0
INSERT
  8
51
  2
RECT
 10
-0.3250
 20
-17.8900
 30
0.0000
 41
0.2000
 42
0.9000
 43
1.0000
 50
180.0000
  0
INSERT
  8
51
  2
RECT
 10
0.3250
 20
-17.8900
 30
0.0000
 41
0.2000
 42
0.9000
 43
1.0000
 50
180.0000
  0
INSERT
  8
51
  2
RECT
 10
0.9750
 20
-17.8900
 30
0.0000
 41
0.2000
 42
0.9000
 43
1.0000
 50
180.0000
  0
INSERT
  8
51
  2
RECT
 10
1.6250
 20
-17.8900
 30
0.0000
 41
0.2000
 42
0.9000
 43
1.0000
 50
180.0000
  0
INSERT
  8
51
  2
RECT
 10
2.2750
 20
-17.8900
 30
0.0000
 41
0.2000
 42
0.9000
 43
1.0000
 50
180.0000
  0
LINE
  8
21
 10
42.2148
 20
15.2400
 30
0.0000
 11
42.2148
 21
24.6380
 31
0.0000
  0
ARC
  8
21
 10
38.6842
 20
15.2400
 30
0.0000
 40
0.3810
 50
180.0000
 51
270.0000
  0
ARC
  8
21
 10
41.8338
 20
24.6380
 30
0.0000
 40
0.3810
 50
0.0000
 51
90.0000
  0
ARC
  8
21
 10
41.8338
 20
15.2400
 30
0.0000
 40
0.3810
 50
270.0000
 51
0.0000
  0
ARC
  8
21
 10
38.6842
 20
24.6380
 30
0.0000
 40
0.3810
 50
90.0000
 51
180.0000
  0
LINE
  8
21
 10
38.3032
 20
24.6380
 30
0.0000
 11
38.3032
 21
15.2400
 31
0.0000
  0
LINE
  8
21
 10
38.6842
 20
14.8590
 30
0.0000
 11
41.8338
 21
14.8590
 31
0.0000
  0
LINE
  8
21
 10
41.8338
 20
25.0190
 30
0.0000
 11
40.7670
 21
25.0190
 31
0.0000
  0
LINE
  8
21
 10
40.7670
 20
25.0190
 30
0.0000
 11
39.7510
 21
25.0190
 31
0.0000
  0
LINE
  8
21
 10
39.7510
 20
25.0190
 30
0.0000
 11
38.6842
 21
25.0190
 31
0.0000
  0
ARC
  8
21
 10
40.2590
 20
25.0190
 30
0.0000
 40
0.5080
 50
180.0000
 51
0.0000
  0
LINE
  8
21
 10
38.6588
 20
25.0190
 30
0.0000
 11
38.6588
 21
14.8590
 31
0.0000
  0
INSERT
  8
51
  2
RECT
 10
42.7863
 20
20.5740
 30
0.0000
 41
0.5080
 42
1.1430
 43
1.0000
 50
270.0000
  0
INSERT
  8
51
  2
RECT
 10
37.7317
 20
24.3840
 30
0.0000
 41
0.5080
 42
1.1430
 43
1.0000
 50
270.0000
  0
INSERT
  8
51
  2
RECT
 10
37.7317
 20
23.1140
 30
0.0000
 41
0.5080
 42
1.1430
 43
1.0000
 50
270.0000
  0
INSERT
  8
51
  2
RECT
 10
37.7571
 20
21.8440
 30
0.0000
 41
0.5080
 42
1.1430
 43
1.0000
 50
270.0000
  0
INSERT
  8
51
  2
RECT
 10
37.7317
 20
20.5740
 30
0.0000
 41
0.5080
 42
1.1430
 43
1.0000
 50
270.0000
  0
INSERT
  8
51
  2
RECT
 10
42.7863
 20
21.8440
 30
0.0000
 41
0.5080
 42
1.1430
 43
1.0000
 50
270.0000
  0
INSERT
  8
51
  2
RECT
 10
42.7863
 20
23.1140
 30
0.0000
 41
0.5080
 42
1.1430
 43
1.0000
 50
270.0000
  0
INSERT
  8
51
  2
RECT
 10
42.7863
 20
24.3840
 30
0.0000
 41
0.5080
 42
1.1430
 43
1.0000
 50
270.0000
  0
INSERT
  8
51
  2
RECT
 10
37.7317
 20
19.3040
 30
0.0000
 41
0.5080
 42
1.1430
 43
1.0000
 50
270.0000
  0
INSERT
  8
51
  2
RECT
 10
37.7317
 20
18.0340
 30
0.0000
 41
0.5080
 42
1.1430
 43
1.0000
 50
270.0000
  0
INSERT
  8
51
  2
RECT
 10
37.7317
 20
16.7640
 30
0.0000
 41
0.5080
 42
1.1430
 43
1.0000
 50
270.0000
  0
INSERT
  8
51
  2
RECT
 10
37.7317
 20
15.4940
 30
0.0000
 41
0.5080
 42
1.1430
 43
1.0000
 50
270.0000
  0
INSERT
  8
51
  2
RECT
 10
42.7863
 20
19.3040
 30
0.0000
 41
0.5080
 42
1.1430
 43
1.0000
 50
270.0000
  0
INSERT
  8
51
  2
RECT
 10
42.7863
 20
18.0340
 30
0.0000
 41
0.5080
 42
1.1430
 43
1.0000
 50
270.0000
  0
INSERT
  8
51
  2
RECT
 10
42.7863
 20
16.7640
 30
0.0000
 41
0.5080
 42
1.1430
 43
1.0000
 50
270.0000
  0
INSERT
  8
51
  2
RECT
 10
42.7863
 20
15.4940
 30
0.0000
 41
0.5080
 42
1.1430
 43
1.0000
 50
270.0000
  0
LINE
  8
51
 10
-35.3190
 20
44.7990
 30
0.0000
 11
-35.3190
 21
41.3990
 31
0.0000
  0
LINE
  8
51
 10
-35.3190
 20
41.3990
 30
0.0000
 11
-35.3190
 21
40.8990
 31
0.0000
  0
LINE
  8
51
 10
-35.3190
 20
40.8990
 30
0.0000
 11
-40.1190
 21
40.8990
 31
0.0000
  0
LINE
  8
51
 10
-40.1190
 20
40.8990
 30
0.0000
 11
-40.1190
 21
41.3990
 31
0.0000
  0
LINE
  8
51
 10
-40.1190
 20
41.3990
 30
0.0000
 11
-40.1190
 21
42.2990
 31
0.0000
  0
LINE
  8
51
 10
-40.1190
 20
42.2990
 30
0.0000
 11
-40.1190
 21
43.2990
 31
0.0000
  0
LINE
  8
51
 10
-40.1190
 20
43.2990
 30
0.0000
 11
-40.1190
 21
44.7990
 31
0.0000
  0
LINE
  8
51
 10
-40.1190
 20
44.7990
 30
0.0000
 11
-35.3190
 21
44.7990
 31
0.0000
  0
LINE
  8
51
 10
-35.3190
 20
41.3990
 30
0.0000
 11
-40.1190
 21
41.3990
 31
0.0000
  0
LINE
  8
21
 10
-40.1190
 20
44.1990
 30
0.0000
 11
-40.1190
 21
43.2990
 31
0.0000
  0
LINE
  8
21
 10
-40.1190
 20
43.2990
 30
0.0000
 11
-40.1190
 21
42.2990
 31
0.0000
  0
LINE
  8
21
 10
-40.1190
 20
42.2990
 30
0.0000
 11
-40.1190
 21
41.3990
 31
0.0000
  0
LINE
  8
21
 10
-35.3190
 20
44.1990
 30
0.0000
 11
-35.3190
 21
41.3990
 31
0.0000
  0
ARC
  8
21
 10
-40.1190
 20
42.7990
 30
0.0000
 40
0.5000
 50
270.0000
 51
90.0000
  0
ARC
  8
51
 10
-40.1190
 20
42.7990
 30
0.0000
 40
0.5000
 50
270.0000
 51
90.0000
  0
CIRCLE
  8
21
 10
-41.4190
 20
39.6990
 30
0.0000
 40
0.2000
  0
INSERT
  8
51
  2
RECT
 10
-39.6240
 20
40.2490
 30
0.0000
 41
0.4900
 42
1.1000
 43
1.0000
 50
0.0000
  0
INSERT
  8
51
  2
RECT
 10
-38.3540
 20
40.2490
 30
0.0000
 41
0.4900
 42
1.1000
 43
1.0000
 50
0.0000
  0
INSERT
  8
51
  2
RECT
 10
-37.0840
 20
40.2490
 30
0.0000
 41
0.4900
 42
1.1000
 43
1.0000
 50
0.0000
  0
INSERT
  8
51
  2
RECT
 10
-35.8140
 20
40.2490
 30
0.0000
 41
0.4900
 42
1.1000
 43
1.0000
 50
0.0000
  0
INSERT
  8
51
  2
RECT
 10
-35.8140
 20
45.3490
 30
0.0000
 41
0.4900
 42
1.1000
 43
1.0000
 50
0.0000
  0
INSERT
  8
51
  2
RECT
 10
-37.0840
 20
45.3490
 30
0.0000
 41
0.4900
 42
1.1000
 43
1.0000
 50
0.0000
  0
INSERT
  8
51
  2
RECT
 10
-38.3540
 20
45.3490
 30
0.0000
 41
0.4900
 42
1.1000
 43
1.0000
 50
0.0000
  0
INSERT
  8
51
  2
RECT
 10
-39.6240
 20
45.3490
 30
0.0000
 41
0.4900
 42
1.1000
 43
1.0000
 50
0.0000
  0
LINE
  8
21
 10
-37.1630
 20
12.4210
 30
0.0000
 11
-38.7830
 21
12.4210
 31
0.0000
  0
LINE
  8
51
 10
-38.7830
 20
12.4210
 30
0.0000
 11
-38.7830
 21
15.2650
 31
0.0000
  0
LINE
  8
21
 10
-38.7830
 20
15.2650
 30
0.0000
 11
-37.1630
 21
15.2650
 31
0.0000
  0
LINE
  8
51
 10
-37.1630
 20
15.2650
 30
0.0000
 11
-37.1630
 21
12.4210
 31
0.0000
  0
LINE
  8
21
 10
-37.1630
 20
14.3650
 30
0.0000
 11
-37.1630
 21
13.3210
 31
0.0000
  0
LINE
  8
21
 10
-38.7830
 20
14.2710
 30
0.0000
 11
-38.7830
 21
14.3650
 31
0.0000
  0
LINE
  8
21
 10
-38.7830
 20
13.3210
 30
0.0000
 11
-38.7830
 21
13.4150
 31
0.0000
  0
LINE
  8
21
 10
-38.7830
 20
15.1710
 30
0.0000
 11
-38.7830
 21
15.2650
 31
0.0000
  0
LINE
  8
21
 10
-38.7830
 20
12.4210
 30
0.0000
 11
-38.7830
 21
12.5150
 31
0.0000
  0
LINE
  8
21
 10
-37.1630
 20
12.5150
 30
0.0000
 11
-37.1630
 21
12.4210
 31
0.0000
  0
LINE
  8
21
 10
-37.1630
 20
15.2650
 30
0.0000
 11
-37.1630
 21
15.1710
 31
0.0000
  0
INSERT
  8
51
  2
RECT
 10
-39.1480
 20
14.7930
 30
0.0000
 41
0.5000
 42
0.6500
 43
1.0000
 50
270.0000
  0
INSERT
  8
51
  2
RECT
 10
-39.1480
 20
13.8430
 30
0.0000
 41
0.5000
 42
0.6500
 43
1.0000
 50
270.0000
  0
INSERT
  8
51
  2
RECT
 10
-39.1480
 20
12.8930
 30
0.0000
 41
0.5000
 42
0.6500
 43
1.0000
 50
270.0000
  0
INSERT
  8
51
  2
RECT
 10
-36.7980
 20
12.8930
 30
0.0000
 41
0.5000
 42
0.6500
 43
1.0000
 50
270.0000
  0
INSERT
  8
51
  2
RECT
 10
-36.7980
 20
14.7930
 30
0.0000
 41
0.5000
 42
0.6500
 43
1.0000
 50
270.0000
  0
LINE
  8
51
 10
37.0840
 20
-30.6832
 30
0.0000
 11
28.9560
 21
-30.6832
 31
0.0000
  0
ARC
  8
21
 10
37.0840
 20
-34.2138
 30
0.0000
 40
0.3810
 50
270.0000
 51
0.0000
  0
ARC
  8
21
 10
28.9560
 20
-31.0642
 30
0.0000
 40
0.3810
 50
90.0000
 51
180.0000
  0
ARC
  8
21
 10
37.0840
 20
-31.0642
 30
0.0000
 40
0.3810
 50
0.0000
 51
90.0000
  0
ARC
  8
21
 10
28.9560
 20
-34.2138
 30
0.0000
 40
0.3810
 50
180.0000
 51
270.0000
  0
LINE
  8
51
 10
28.9560
 20
-34.5948
 30
0.0000
 11
37.0840
 21
-34.5948
 31
0.0000
  0
LINE
  8
21
 10
37.4650
 20
-34.2138
 30
0.0000
 11
37.4650
 21
-31.0642
 31
0.0000
  0
LINE
  8
21
 10
28.5750
 20
-31.0642
 30
0.0000
 11
28.5750
 21
-32.1310
 31
0.0000
  0
LINE
  8
21
 10
28.5750
 20
-32.1310
 30
0.0000
 11
28.5750
 21
-33.1470
 31
0.0000
  0
LINE
  8
21
 10
28.5750
 20
-33.1470
 30
0.0000
 11
28.5750
 21
-34.2138
 31
0.0000
  0
ARC
  8
21
 10
28.5750
 20
-32.6390
 30
0.0000
 40
0.5080
 50
270.0000
 51
90.0000
  0
LINE
  8
21
 10
28.5750
 20
-34.2392
 30
0.0000
 11
37.4650
 21
-34.2392
 31
0.0000
  0
INSERT
  8
51
  2
RECT
 10
33.0200
 20
-30.1117
 30
0.0000
 41
0.5080
 42
1.1430
 43
1.0000
 50
0.0000
  0
INSERT
  8
51
  2
RECT
 10
29.2100
 20
-35.1663
 30
0.0000
 41
0.5080
 42
1.1430
 43
1.0000
 50
0.0000
  0
INSERT
  8
51
  2
RECT
 10
30.4800
 20
-35.1663
 30
0.0000
 41
0.5080
 42
1.1430
 43
1.0000
 50
0.0000
  0
INSERT
  8
51
  2
RECT
 10
31.7500
 20
-35.1409
 30
0.0000
 41
0.5080
 42
1.1430
 43
1.0000
 50
0.0000
  0
INSERT
  8
51
  2
RECT
 10
33.0200
 20
-35.1663
 30
0.0000
 41
0.5080
 42
1.1430
 43
1.0000
 50
0.0000
  0
INSERT
  8
51
  2
RECT
 10
31.7500
 20
-30.1117
 30
0.0000
 41
0.5080
 42
1.1430
 43
1.0000
 50
0.0000
  0
INSERT
  8
51
  2
RECT
 10
30.4800
 20
-30.1117
 30
0.0000
 41
0.5080
 42
1.1430
 43
1.0000
 50
0.0000
  0
INSERT
  8
51
  2
RECT
 10
29.2100
 20
-30.1117
 30
0.0000
 41
0.5080
 42
1.1430
 43
1.0000
 50
0.0000
  0
INSERT
  8
51
  2
RECT
 10
34.2900
 20
-30.1117
 30
0.0000
 41
0.5080
 42
1.1430
 43
1.0000
 50
0.0000
  0
INSERT
  8
51
  2
RECT
 10
35.5600
 20
-30.1117
 30
0.0000
 41
0.5080
 42
1.1430
 43
1.0000
 50
0.0000
  0
INSERT
  8
51
  2
RECT
 10
36.8300
 20
-30.1117
 30
0.0000
 41
0.5080
 42
1.1430
 43
1.0000
 50
0.0000
  0
INSERT
  8
51
  2
RECT
 10
34.2900
 20
-35.1663
 30
0.0000
 41
0.5080
 42
1.1430
 43
1.0000
 50
0.0000
  0
INSERT
  8
51
  2
RECT
 10
35.5600
 20
-35.1663
 30
0.0000
 41
0.5080
 42
1.1430
 43
1.0000
 50
0.0000
  0
INSERT
  8
51
  2
RECT
 10
36.8300
 20
-35.1663
 30
0.0000
 41
0.5080
 42
1.1430
 43
1.0000
 50
0.0000
  0
LINE
  8
51
 10
-14.4620
 20
-30.4970
 30
0.0000
 11
-14.4620
 21
-35.7970
 31
0.0000
  0
LINE
  8
51
 10
-14.4620
 20
-35.7970
 30
0.0000
 11
-18.3870
 21
-35.7970
 31
0.0000
  0
LINE
  8
51
 10
-18.3870
 20
-35.7970
 30
0.0000
 11
-18.8120
 21
-35.7970
 31
0.0000
  0
LINE
  8
51
 10
-18.8120
 20
-35.7970
 30
0.0000
 11
-18.8120
 21
-30.4970
 31
0.0000
  0
LINE
  8
51
 10
-18.8120
 20
-30.4970
 30
0.0000
 11
-18.3870
 21
-30.4970
 31
0.0000
  0
LINE
  8
51
 10
-18.3870
 20
-30.4970
 30
0.0000
 11
-14.4620
 21
-30.4970
 31
0.0000
  0
LINE
  8
51
 10
-18.3870
 20
-30.4970
 30
0.0000
 11
-18.3870
 21
-35.7970
 31
0.0000
  0
LINE
  8
21
 10
-14.4870
 20
-30.4970
 30
0.0000
 11
-18.7870
 21
-30.4970
 31
0.0000
  0
LINE
  8
21
 10
-14.4870
 20
-35.7970
 30
0.0000
 11
-18.7870
 21
-35.7970
 31
0.0000
  0
CIRCLE
  8
21
 10
-19.5870
 20
-28.7970
 30
0.0000
 40
0.2800
  0
INSERT
  8
51
  2
RECT
 10
-19.3620
 20
-30.8745
 30
0.0000
 41
0.3550
 42
1.0000
 43
1.0000
 50
270.0000
  0
INSERT
  8
51
  2
RECT
 10
-19.3620
 20
-31.5245
 30
0.0000
 41
0.3550
 42
1.0000
 43
1.0000
 50
270.0000
  0
INSERT
  8
51
  2
RECT
 10
-19.3620
 20
-32.1745
 30
0.0000
 41
0.3550
 42
1.0000
 43
1.0000
 50
270.0000
  0
INSERT
  8
51
  2
RECT
 10
-19.3620
 20
-32.8245
 30
0.0000
 41
0.3550
 42
1.0000
 43
1.0000
 50
270.0000
  0
INSERT
  8
51
  2
RECT
 10
-19.3620
 20
-33.4745
 30
0.0000
 41
0.3550
 42
1.0000
 43
1.0000
 50
270.0000
  0
INSERT
  8
51
  2
RECT
 10
-19.3620
 20
-34.1245
 30
0.0000
 41
0.3550
 42
1.0000
 43
1.0000
 50
270.0000
  0
INSERT
  8
51
  2
RECT
 10
-19.3620
 20
-34.7745
 30
0.0000
 41
0.3550
 42
1.0000
 43
1.0000
 50
270.0000
  0
INSERT
  8
51
  2
RECT
 10
-19.3620
 20
-35.4245
 30
0.0000
 41
0.3550
 42
1.0000
 43
1.0000
 50
270.0000
  0
INSERT
  8
51
  2
RECT
 10
-13.9120
 20
-35.4195
 30
0.0000
 41
0.3550
 42
1.0000
 43
1.0000
 50
90.0000
  0
INSERT
  8
51
  2
RECT
 10
-13.9120
 20
-34.7695
 30
0.0000
 41
0.3550
 42
1.0000
 43
1.0000
 50
90.0000
  0
INSERT
  8
51
  2
RECT
 10
-13.9120
 20
-34.1195
 30
0.0000
 41
0.3550
 42
1.0000
 43
1.0000
 50
90.0000
  0
INSERT
  8
51
  2
RECT
 10
-13.9120
 20
-33.4695
 30
0.0000
 41
0.3550
 42
1.0000
 43
1.0000
 50
90.0000
  0
INSERT
  8
51
  2
RECT
 10
-13.9120
 20
-32.8195
 30
0.0000
 41
0.3550
 42
1.0000
 43
1.0000
 50
90.0000
  0
INSERT
  8
51
  2
RECT
 10
-13.9120
 20
-32.1695
 30
0.0000
 41
0.3550
 42
1.0000
 43
1.0000
 50
90.0000
  0
INSERT
  8
51
  2
RECT
 10
-13.9120
 20
-31.5195
 30
0.0000
 41
0.3550
 42
1.0000
 43
1.0000
 50
90.0000
  0
INSERT
  8
51
  2
RECT
 10
-13.9120
 20
-30.8695
 30
0.0000
 41
0.3550
 42
1.0000
 43
1.0000
 50
90.0000
  0
LINE
  8
51
 10
-43.9160
 20
29.4650
 30
0.0000
 11
-43.9160
 21
26.4150
 31
0.0000
  0
LINE
  8
51
 10
-43.9160
 20
26.4150
 30
0.0000
 11
-47.0160
 21
26.4150
 31
0.0000
  0
LINE
  8
51
 10
-47.0160
 20
26.4150
 30
0.0000
 11
-47.0160
 21
29.4650
 31
0.0000
  0
LINE
  8
51
 10
-47.0160
 20
29.4650
 30
0.0000
 11
-43.9160
 21
29.4650
 31
0.0000
  0
INSERT
  8
51
  2
RECT
 10
-46.2410
 20
28.7025
 30
0.0000
 41
1.5250
 42
1.5500
 43
1.0000
 50
270.0000
  0
LINE
  8
21
 10
-18.0340
 20
-73.0250
 30
0.0000
 11
-18.6690
 21
-72.3900
 31
0.0000
  0
LINE
  8
21
 10
-19.9390
 20
-72.3900
 30
0.0000
 11
-20.5740
 21
-73.0250
 31
0.0000
  0
LINE
  8
21
 10
-20.5740
 20
-73.0250
 30
0.0000
 11
-21.2090
 21
-72.3900
 31
0.0000
  0
LINE
  8
21
 10
-22.4790
 20
-72.3900
 30
0.0000
 11
-23.1140
 21
-73.0250
 31
0.0000
  0
LINE
  8
21
 10
-23.1140
 20
-73.0250
 30
0.0000
 11
-23.7490
 21
-72.3900
 31
0.0000
  0
LINE
  8
21
 10
-25.0190
 20
-72.3900
 30
0.0000
 11
-25.6540
 21
-73.0250
 31
0.0000
  0
LINE
  8
21
 10
-18.0340
 20
-73.0250
 30
0.0000
 11
-18.0340
 21
-76.8350
 31
0.0000
  0
LINE
  8
21
 10
-18.0340
 20
-76.8350
 30
0.0000
 11
-18.6690
 21
-77.4700
 31
0.0000
  0
LINE
  8
21
 10
-18.6690
 20
-77.4700
 30
0.0000
 11
-19.9390
 21
-77.4700
 31
0.0000
  0
LINE
  8
21
 10
-19.9390
 20
-77.4700
 30
0.0000
 11
-20.5740
 21
-76.8350
 31
0.0000
  0
LINE
  8
21
 10
-20.5740
 20
-76.8350
 30
0.0000
 11
-21.2090
 21
-77.4700
 31
0.0000
  0
LINE
  8
21
 10
-21.2090
 20
-77.4700
 30
0.0000
 11
-22.4790
 21
-77.4700
 31
0.0000
  0
LINE
  8
21
 10
-22.4790
 20
-77.4700
 30
0.0000
 11
-23.1140
 21
-76.8350
 31
0.0000
  0
LINE
  8
21
 10
-23.1140
 20
-76.8350
 30
0.0000
 11
-23.7490
 21
-77.4700
 31
0.0000
  0
LINE
  8
21
 10
-23.7490
 20
-77.4700
 30
0.0000
 11
-25.0190
 21
-77.4700
 31
0.0000
  0
LINE
  8
21
 10
-25.0190
 20
-77.4700
 30
0.0000
 11
-25.6540
 21
-76.8350
 31
0.0000
  0
LINE
  8
21
 10
-20.5740
 20
-76.8350
 30
0.0000
 11
-20.5740
 21
-73.0250
 31
0.0000
  0
LINE
  8
21
 10
-23.1140
 20
-76.8350
 30
0.0000
 11
-23.1140
 21
-73.0250
 31
0.0000
  0
LINE
  8
21
 10
-25.6540
 20
-76.8350
 30
0.0000
 11
-25.6540
 21
-73.0250
 31
0.0000
  0
LINE
  8
21
 10
-23.7490
 20
-72.3900
 30
0.0000
 11
-25.0190
 21
-72.3900
 31
0.0000
  0
LINE
  8
21
 10
-21.2090
 20
-72.3900
 30
0.0000
 11
-22.4790
 21
-72.3900
 31
0.0000
  0
LINE
  8
21
 10
-18.6690
 20
-72.3900
 30
0.0000
 11
-19.9390
 21
-72.3900
 31
0.0000
  0
LINE
  8
21
 10
-19.9390
 20
-72.0550
 30
0.0000
 11
-18.6690
 21
-72.0550
 31
0.0000
  0
INSERT
  8
51
  2
RECT
 10
-19.3040
 20
-73.6600
 30
0.0000
 41
0.5080
 42
0.5080
 43
1.0000
 50
180.0000
  0
INSERT
  8
51
  2
RECT
 10
-19.3040
 20
-76.2000
 30
0.0000
 41
0.5080
 42
0.5080
 43
1.0000
 50
180.0000
  0
INSERT
  8
51
  2
RECT
 10
-21.8440
 20
-76.2000
 30
0.0000
 41
0.5080
 42
0.5080
 43
1.0000
 50
180.0000
  0
INSERT
  8
51
  2
RECT
 10
-21.8440
 20
-73.6600
 30
0.0000
 41
0.5080
 42
0.5080
 43
1.0000
 50
180.0000
  0
INSERT
  8
51
  2
RECT
 10
-24.3840
 20
-76.2000
 30
0.0000
 41
0.5080
 42
0.5080
 43
1.0000
 50
180.0000
  0
INSERT
  8
51
  2
RECT
 10
-24.3840
 20
-73.6600
 30
0.0000
 41
0.5080
 42
0.5080
 43
1.0000
 50
180.0000
  0
LINE
  8
21
 10
22.7965
 20
-71.2470
 30
0.0000
 11
25.0190
 21
-71.2470
 31
0.0000
  0
LINE
  8
21
 10
25.0190
 20
-71.2470
 30
0.0000
 11
25.0190
 21
-71.5645
 31
0.0000
  0
LINE
  8
21
 10
17.3990
 20
-71.2470
 30
0.0000
 11
16.0274
 21
-71.2470
 31
0.0000
  0
LINE
  8
21
 10
16.0274
 20
-71.2470
 30
0.0000
 11
16.0274
 21
-81.2546
 31
0.0000
  0
LINE
  8
21
 10
16.0274
 20
-81.2546
 30
0.0000
 11
16.0274
 21
-84.7344
 31
0.0000
  0
LINE
  8
21
 10
16.0274
 20
-84.7344
 30
0.0000
 11
25.0190
 21
-84.7344
 31
0.0000
  0
LINE
  8
21
 10
25.0190
 20
-84.7344
 30
0.0000
 11
25.0190
 21
-76.9620
 31
0.0000
  0
LINE
  8
21
 10
24.9936
 20
-81.2546
 30
0.0000
 11
16.0274
 21
-81.2546
 31
0.0000
  0
LINE
  8
21
 10
16.8240
 20
-43.3790
 30
0.0000
 11
37.0240
 21
-43.3790
 31
0.0000
  0
LINE
  8
21
 10
37.0240
 20
-52.3790
 30
0.0000
 11
29.1240
 21
-52.3790
 31
0.0000
  0
LINE
  8
21
 10
29.1240
 20
-52.3790
 30
0.0000
 11
24.7240
 21
-52.3790
 31
0.0000
  0
LINE
  8
21
 10
24.7240
 20
-52.3790
 30
0.0000
 11
16.8240
 21
-52.3790
 31
0.0000
  0
LINE
  8
21
 10
16.8240
 20
-52.3790
 30
0.0000
 11
16.8240
 21
-43.4790
 31
0.0000
  0
LINE
  8
21
 10
37.0240
 20
-43.3790
 30
0.0000
 11
37.0240
 21
-52.3790
 31
0.0000
  0
LINE
  8
51
 10
17.9240
 20
-51.2790
 30
0.0000
 11
17.9240
 21
-44.4790
 31
0.0000
  0
LINE
  8
51
 10
17.9240
 20
-44.4790
 30
0.0000
 11
35.9240
 21
-44.4790
 31
0.0000
  0
LINE
  8
51
 10
35.9240
 20
-51.2790
 30
0.0000
 11
35.9240
 21
-44.4790
 31
0.0000
  0
LINE
  8
21
 10
24.7240
 20
-52.3790
 30
0.0000
 11
24.7240
 21
-50.8790
 31
0.0000
  0
LINE
  8
21
 10
24.7240
 20
-50.8790
 30
0.0000
 11
29.1240
 21
-50.8790
 31
0.0000
  0
LINE
  8
21
 10
29.1240
 20
-50.8790
 30
0.0000
 11
29.1240
 21
-52.3790
 31
0.0000
  0
LINE
  8
51
 10
17.9240
 20
-51.2790
 30
0.0000
 11
24.7240
 21
-51.2790
 31
0.0000
  0
LINE
  8
51
 10
35.9240
 20
-51.2790
 30
0.0000
 11
29.1240
 21
-51.2790
 31
0.0000
  0
LINE
  8
51
 10
16.8240
 20
-52.3790
 30
0.0000
 11
24.7240
 21
-52.3790
 31
0.0000
  0
LINE
  8
51
 10
24.7240
 20
-52.3790
 30
0.0000
 11
29.1240
 21
-52.3790
 31
0.0000
  0
LINE
  8
51
 10
29.1240
 20
-52.3790
 30
0.0000
 11
37.0240
 21
-52.3790
 31
0.0000
  0
LINE
  8
51
 10
37.0240
 20
-52.3790
 30
0.0000
 11
37.0240
 21
-43.3790
 31
0.0000
  0
LINE
  8
51
 10
37.0240
 20
-43.3790
 30
0.0000
 11
16.8240
 21
-43.3790
 31
0.0000
  0
LINE
  8
51
 10
16.8240
 20
-43.3790
 30
0.0000
 11
16.8240
 21
-52.3790
 31
0.0000
  0
LINE
  8
51
 10
24.7240
 20
-52.3790
 30
0.0000
 11
24.7240
 21
-50.8790
 31
0.0000
  0
LINE
  8
51
 10
24.7240
 20
-50.8790
 30
0.0000
 11
29.1240
 21
-50.8790
 31
0.0000
  0
LINE
  8
51
 10
29.1240
 20
-50.8790
 30
0.0000
 11
29.1240
 21
-52.3790
 31
0.0000
  0
INSERT
  8
51
  2
RECT
 10
21.8440
 20
-49.1490
 30
0.0000
 41
0.5080
 42
0.5080
 43
1.0000
 50
0.0000
  0
INSERT
  8
51
  2
RECT
 10
21.8440
 20
-46.6090
 30
0.0000
 41
0.5080
 42
0.5080
 43
1.0000
 50
0.0000
  0
INSERT
  8
51
  2
RECT
 10
24.3840
 20
-46.6090
 30
0.0000
 41
0.5080
 42
0.5080
 43
1.0000
 50
0.0000
  0
INSERT
  8
51
  2
RECT
 10
24.3840
 20
-49.1490
 30
0.0000
 41
0.5080
 42
0.5080
 43
1.0000
 50
0.0000
  0
INSERT
  8
51
  2
RECT
 10
26.9240
 20
-46.6090
 30
0.0000
 41
0.5080
 42
0.5080
 43
1.0000
 50
0.0000
  0
INSERT
  8
51
  2
RECT
 10
26.9240
 20
-49.1490
 30
0.0000
 41
0.5080
 42
0.5080
 43
1.0000
 50
0.0000
  0
INSERT
  8
51
  2
RECT
 10
29.4640
 20
-46.6090
 30
0.0000
 41
0.5080
 42
0.5080
 43
1.0000
 50
0.0000
  0
INSERT
  8
51
  2
RECT
 10
29.4640
 20
-49.1490
 30
0.0000
 41
0.5080
 42
0.5080
 43
1.0000
 50
0.0000
  0
INSERT
  8
51
  2
RECT
 10
32.0040
 20
-46.6090
 30
0.0000
 41
0.5080
 42
0.5080
 43
1.0000
 50
0.0000
  0
INSERT
  8
51
  2
RECT
 10
32.0040
 20
-49.1490
 30
0.0000
 41
0.5080
 42
0.5080
 43
1.0000
 50
0.0000
  0
INSERT
  8
51
  2
RECT
 10
29.4640
 20
-49.1490
 30
0.0000
 41
0.5080
 42
0.5080
 43
1.0000
 50
0.0000
  0
INSERT
  8
51
  2
RECT
 10
29.4640
 20
-46.6090
 30
0.0000
 41
0.5080
 42
0.5080
 43
1.0000
 50
0.0000
  0
LINE
  8
21
 10
-9.4950
 20
-38.6080
 30
0.0000
 11
-11.9950
 21
-38.6080
 31
0.0000
  0
LINE
  8
51
 10
-9.6950
 20
-38.6080
 30
0.0000
 11
-11.8950
 21
-38.6080
 31
0.0000
  0
LINE
  8
21
 10
-9.7950
 20
-39.2330
 30
0.0000
 11
-11.7950
 21
-39.2330
 31
0.0000
  0
LINE
  8
51
 10
-11.7950
 20
-39.2330
 30
0.0000
 11
-11.7950
 21
-37.9830
 31
0.0000
  0
LINE
  8
21
 10
-11.7950
 20
-37.9830
 30
0.0000
 11
-9.7950
 21
-37.9830
 31
0.0000
  0
LINE
  8
51
 10
-9.7950
 20
-37.9830
 30
0.0000
 11
-9.7950
 21
-39.2330
 31
0.0000
  0
INSERT
  8
21
  2
RECT
 10
-10.7950
 20
-38.6080
 30
0.0000
 41
0.7000
 42
0.3000
 43
1.0000
 50
180.0000
  0
LINE
  8
21
 10
-36.8300
 20
-54.5800
 30
0.0000
 11
-36.8300
 21
-57.0800
 31
0.0000
  0
LINE
  8
51
 10
-36.8300
 20
-54.7800
 30
0.0000
 11
-36.8300
 21
-56.9800
 31
0.0000
  0
LINE
  8
21
 10
-36.2050
 20
-54.8800
 30
0.0000
 11
-36.2050
 21
-56.8800
 31
0.0000
  0
LINE
  8
51
 10
-36.2050
 20
-56.8800
 30
0.0000
 11
-37.4550
 21
-56.8800
 31
0.0000
  0
LINE
  8
21
 10
-37.4550
 20
-56.8800
 30
0.0000
 11
-37.4550
 21
-54.8800
 31
0.0000
  0
LINE
  8
51
 10
-37.4550
 20
-54.8800
 30
0.0000
 11
-36.2050
 21
-54.8800
 31
0.0000
  0
INSERT
  8
21
  2
RECT
 10
-36.8300
 20
-55.8800
 30
0.0000
 41
0.7000
 42
0.3000
 43
1.0000
 50
270.0000
  0
ARC
  8
51
 10
-47.7740
 20
32.6980
 30
0.0000
 40
0.5000
 50
180.0000
 51
270.0000
  0
LINE
  8
51
 10
-48.2740
 20
32.6980
 30
0.0000
 11
-48.2740
 21
37.2980
 31
0.0000
  0
ARC
  8
51
 10
-47.7740
 20
37.2980
 30
0.0000
 40
0.5000
 50
90.0000
 51
180.0000
  0
LINE
  8
51
 10
-47.7740
 20
37.7980
 30
0.0000
 11
-43.1740
 21
37.7980
 31
0.0000
  0
ARC
  8
51
 10
-43.1740
 20
37.2980
 30
0.0000
 40
0.5000
 50
0.0000
 51
90.0000
  0
LINE
  8
51
 10
-42.6740
 20
37.2980
 30
0.0000
 11
-42.6740
 21
32.6980
 31
0.0000
  0
ARC
  8
51
 10
-43.1740
 20
32.6980
 30
0.0000
 40
0.5000
 50
270.0000
 51
0.0000
  0
LINE
  8
51
 10
-43.1740
 20
32.1980
 30
0.0000
 11
-47.7740
 21
32.1980
 31
0.0000
  0
LINE
  8
21
 10
-46.1240
 20
32.1980
 30
0.0000
 11
-44.8240
 21
32.1980
 31
0.0000
  0
ARC
  8
21
 10
-45.4740
 20
34.9980
 30
0.0000
 40
2.1030
 50
251.9958
 51
288.0042
  0
LINE
  8
21
 10
-44.8240
 20
37.7980
 30
0.0000
 11
-46.1240
 21
37.7980
 31
0.0000
  0
ARC
  8
21
 10
-45.4740
 20
34.9980
 30
0.0000
 40
2.1030
 50
71.9958
 51
108.0042
  0
CIRCLE
  8
51
 10
-45.4740
 20
34.9980
 30
0.0000
 40
2.1000
  0
LINE
  8
21
 10
34.5140
 20
-67.4370
 30
0.0000
 11
37.0140
 21
-67.4370
 31
0.0000
  0
LINE
  8
51
 10
34.7140
 20
-67.4370
 30
0.0000
 11
36.9140
 21
-67.4370
 31
0.0000
  0
LINE
  8
21
 10
34.8140
 20
-66.8120
 30
0.0000
 11
36.8140
 21
-66.8120
 31
0.0000
  0
LINE
  8
51
 10
36.8140
 20
-66.8120
 30
0.0000
 11
36.8140
 21
-68.0620
 31
0.0000
  0
LINE
  8
21
 10
36.8140
 20
-68.0620
 30
0.0000
 11
34.8140
 21
-68.0620
 31
0.0000
  0
LINE
  8
51
 10
34.8140
 20
-68.0620
 30
0.0000
 11
34.8140
 21
-66.8120
 31
0.0000
  0
INSERT
  8
21
  2
RECT
 10
35.8140
 20
-67.4370
 30
0.0000
 41
0.7000
 42
0.3000
 43
1.0000
 50
0.0000
  0
LINE
  8
51
 10
27.9980
 20
53.9850
 30
0.0000
 11
28.8980
 21
53.9850
 31
0.0000
  0
LINE
  8
51
 10
27.9980
 20
55.2350
 30
0.0000
 11
28.9230
 21
55.2350
 31
0.0000
  0
INSERT
  8
21
  2
RECT
 10
28.2980
 20
54.0100
 30
0.0000
 41
0.1500
 42
0.3000
 43
1.0000
 50
90.0000
  0
INSERT
  8
21
  2
RECT
 10
28.2980
 20
55.2100
 30
0.0000
 41
0.1500
 42
0.3000
 43
1.0000
 50
90.0000
  0
INSERT
  8
21
  2
RECT
 10
28.2980
 20
54.6100
 30
0.0000
 41
0.3000
 42
0.3000
 43
1.0000
 50
90.0000
  0
INSERT
  8
51
  2
RECT
 10
27.6980
 20
54.6100
 30
0.0000
 41
1.3500
 42
0.6000
 43
1.0000
 50
90.0000
  0
INSERT
  8
51
  2
RECT
 10
29.1980
 20
54.6100
 30
0.0000
 41
1.3500
 42
0.6000
 43
1.0000
 50
90.0000
  0
LINE
  8
51
 10
-13.1500
 20
56.5250
 30
0.0000
 11
-12.2500
 21
56.5250
 31
0.0000
  0
LINE
  8
51
 10
-13.1500
 20
57.7750
 30
0.0000
 11
-12.2250
 21
57.7750
 31
0.0000
  0
INSERT
  8
21
  2
RECT
 10
-12.8500
 20
56.5500
 30
0.0000
 41
0.1500
 42
0.3000
 43
1.0000
 50
90.0000
  0
INSERT
  8
21
  2
RECT
 10
-12.8500
 20
57.7500
 30
0.0000
 41
0.1500
 42
0.3000
 43
1.0000
 50
90.0000
  0
INSERT
  8
21
  2
RECT
 10
-12.8500
 20
57.1500
 30
0.0000
 41
0.3000
 42
0.3000
 43
1.0000
 50
90.0000
  0
INSERT
  8
51
  2
RECT
 10
-13.4500
 20
57.1500
 30
0.0000
 41
1.3500
 42
0.6000
 43
1.0000
 50
90.0000
  0
INSERT
  8
51
  2
RECT
 10
-11.9500
 20
57.1500
 30
0.0000
 41
1.3500
 42
0.6000
 43
1.0000
 50
90.0000
  0
LINE
  8
51
 10
12.2500
 20
56.5250
 30
0.0000
 11
13.1500
 21
56.5250
 31
0.0000
  0
LINE
  8
51
 10
12.2500
 20
57.7750
 30
0.0000
 11
13.1750
 21
57.7750
 31
0.0000
  0
INSERT
  8
21
  2
RECT
 10
12.5500
 20
56.5500
 30
0.0000
 41
0.1500
 42
0.3000
 43
1.0000
 50
90.0000
  0
INSERT
  8
21
  2
RECT
 10
12.5500
 20
57.7500
 30
0.0000
 41
0.1500
 42
0.3000
 43
1.0000
 50
90.0000
  0
INSERT
  8
21
  2
RECT
 10
12.5500
 20
57.1500
 30
0.0000
 41
0.3000
 42
0.3000
 43
1.0000
 50
90.0000
  0
INSERT
  8
51
  2
RECT
 10
11.9500
 20
57.1500
 30
0.0000
 41
1.3500
 42
0.6000
 43
1.0000
 50
90.0000
  0
INSERT
  8
51
  2
RECT
 10
13.4500
 20
57.1500
 30
0.0000
 41
1.3500
 42
0.6000
 43
1.0000
 50
90.0000
  0
LINE
  8
51
 10
-28.8980
 20
53.9850
 30
0.0000
 11
-27.9980
 21
53.9850
 31
0.0000
  0
LINE
  8
51
 10
-28.8980
 20
55.2350
 30
0.0000
 11
-27.9730
 21
55.2350
 31
0.0000
  0
INSERT
  8
21
  2
RECT
 10
-28.5980
 20
54.0100
 30
0.0000
 41
0.1500
 42
0.3000
 43
1.0000
 50
90.0000
  0
INSERT
  8
21
  2
RECT
 10
-28.5980
 20
55.2100
 30
0.0000
 41
0.1500
 42
0.3000
 43
1.0000
 50
90.0000
  0
INSERT
  8
21
  2
RECT
 10
-28.5980
 20
54.6100
 30
0.0000
 41
0.3000
 42
0.3000
 43
1.0000
 50
90.0000
  0
INSERT
  8
51
  2
RECT
 10
-29.1980
 20
54.6100
 30
0.0000
 41
1.3500
 42
0.6000
 43
1.0000
 50
90.0000
  0
INSERT
  8
51
  2
RECT
 10
-27.6980
 20
54.6100
 30
0.0000
 41
1.3500
 42
0.6000
 43
1.0000
 50
90.0000
  0
LINE
  8
51
 10
-0.4500
 20
56.5250
 30
0.0000
 11
0.4500
 21
56.5250
 31
0.0000
  0
LINE
  8
51
 10
-0.4500
 20
57.7750
 30
0.0000
 11
0.4750
 21
57.7750
 31
0.0000
  0
INSERT
  8
21
  2
RECT
 10
-0.1500
 20
56.5500
 30
0.0000
 41
0.1500
 42
0.3000
 43
1.0000
 50
90.0000
  0
INSERT
  8
21
  2
RECT
 10
-0.1500
 20
57.7500
 30
0.0000
 41
0.1500
 42
0.3000
 43
1.0000
 50
90.0000
  0
INSERT
  8
21
  2
RECT
 10
-0.1500
 20
57.1500
 30
0.0000
 41
0.3000
 42
0.3000
 43
1.0000
 50
90.0000
  0
INSERT
  8
51
  2
RECT
 10
-0.7500
 20
57.1500
 30
0.0000
 41
1.3500
 42
0.6000
 43
1.0000
 50
90.0000
  0
INSERT
  8
51
  2
RECT
 10
0.7500
 20
57.1500
 30
0.0000
 41
1.3500
 42
0.6000
 43
1.0000
 50
90.0000
  0
LINE
  8
51
 10
33.0410
 20
-0.9330
 30
0.0000
 11
38.8410
 21
-0.9330
 31
0.0000
  0
LINE
  8
51
 10
38.8410
 20
-0.9330
 30
0.0000
 11
38.8410
 21
-5.3330
 31
0.0000
  0
LINE
  8
51
 10
38.8410
 20
-5.3330
 30
0.0000
 11
33.0410
 21
-5.3330
 31
0.0000
  0
LINE
  8
51
 10
33.0410
 20
-5.3330
 30
0.0000
 11
33.0410
 21
-0.9330
 31
0.0000
  0
LINE
  8
21
 10
33.0410
 20
-0.9330
 30
0.0000
 11
38.8410
 21
-0.9330
 31
0.0000
  0
LINE
  8
21
 10
38.8410
 20
-0.9330
 30
0.0000
 11
38.8410
 21
-5.3330
 31
0.0000
  0
LINE
  8
21
 10
38.8410
 20
-5.3330
 30
0.0000
 11
37.9410
 21
-5.3330
 31
0.0000
  0
LINE
  8
21
 10
33.0410
 20
-0.9330
 30
0.0000
 11
33.0410
 21
-5.3330
 31
0.0000
  0
LINE
  8
21
 10
33.0410
 20
-5.3330
 30
0.0000
 11
33.9410
 21
-5.3330
 31
0.0000
  0
LINE
  8
51
 10
-33.0410
 20
-5.2900
 30
0.0000
 11
-38.8410
 21
-5.2900
 31
0.0000
  0
LINE
  8
51
 10
-38.8410
 20
-5.2900
 30
0.0000
 11
-38.8410
 21
-0.8900
 31
0.0000
  0
LINE
  8
51
 10
-38.8410
 20
-0.8900
 30
0.0000
 11
-33.0410
 21
-0.8900
 31
0.0000
  0
LINE
  8
51
 10
-33.0410
 20
-0.8900
 30
0.0000
 11
-33.0410
 21
-5.2900
 31
0.0000
  0
LINE
  8
21
 10
-33.0410
 20
-5.2900
 30
0.0000
 11
-38.8410
 21
-5.2900
 31
0.0000
  0
LINE
  8
21
 10
-38.8410
 20
-5.2900
 30
0.0000
 11
-38.8410
 21
-0.8900
 31
0.0000
  0
LINE
  8
21
 10
-38.8410
 20
-0.8900
 30
0.0000
 11
-37.9410
 21
-0.8900
 31
0.0000
  0
LINE
  8
21
 10
-33.0410
 20
-5.2900
 30
0.0000
 11
-33.0410
 21
-0.8900
 31
0.0000
  0
LINE
  8
21
 10
-33.0410
 20
-0.8900
 30
0.0000
 11
-33.9410
 21
-0.8900
 31
0.0000
  0
LINE
  8
51
 10
-23.1610
 20
-13.0050
 30
0.0000
 11
-23.1610
 21
-16.2050
 31
0.0000
  0
LINE
  8
51
 10
-23.1610
 20
-16.2050
 30
0.0000
 11
-25.8610
 21
-16.2050
 31
0.0000
  0
LINE
  8
51
 10
-25.8610
 20
-16.2050
 30
0.0000
 11
-25.8610
 21
-13.0050
 31
0.0000
  0
LINE
  8
51
 10
-25.8610
 20
-13.0050
 30
0.0000
 11
-23.1610
 21
-13.0050
 31
0.0000
  0
INSERT
  8
51
  2
RECT
 10
-24.5110
 20
-12.9550
 30
0.0000
 41
0.2000
 42
2.2000
 43
1.0000
 50
270.0000
  0
INSERT
  8
51
  2
RECT
 10
-24.5110
 20
-16.2550
 30
0.0000
 41
0.2000
 42
2.2000
 43
1.0000
 50
90.0000
  0
INSERT
  8
51
  2
RECT
 10
-24.5110
 20
-13.3300
 30
0.0000
 41
0.6500
 42
2.7000
 43
1.0000
 50
270.0000
  0
LINE
  8
51
 10
38.8410
 20
-10.7510
 30
0.0000
 11
33.0410
 21
-10.7510
 31
0.0000
  0
LINE
  8
51
 10
33.0410
 20
-10.7510
 30
0.0000
 11
33.0410
 21
-6.3510
 31
0.0000
  0
LINE
  8
51
 10
33.0410
 20
-6.3510
 30
0.0000
 11
38.8410
 21
-6.3510
 31
0.0000
  0
LINE
  8
51
 10
38.8410
 20
-6.3510
 30
0.0000
 11
38.8410
 21
-10.7510
 31
0.0000
  0
LINE
  8
21
 10
38.8410
 20
-10.7510
 30
0.0000
 11
33.0410
 21
-10.7510
 31
0.0000
  0
LINE
  8
21
 10
33.0410
 20
-10.7510
 30
0.0000
 11
33.0410
 21
-6.3510
 31
0.0000
  0
LINE
  8
21
 10
33.0410
 20
-6.3510
 30
0.0000
 11
33.9410
 21
-6.3510
 31
0.0000
  0
LINE
  8
21
 10
38.8410
 20
-10.7510
 30
0.0000
 11
38.8410
 21
-6.3510
 31
0.0000
  0
LINE
  8
21
 10
38.8410
 20
-6.3510
 30
0.0000
 11
37.9410
 21
-6.3510
 31
0.0000
  0
LINE
  8
51
 10
-38.8410
 20
-6.2670
 30
0.0000
 11
-33.0410
 21
-6.2670
 31
0.0000
  0
LINE
  8
51
 10
-33.0410
 20
-6.2670
 30
0.0000
 11
-33.0410
 21
-10.6670
 31
0.0000
  0
LINE
  8
51
 10
-33.0410
 20
-10.6670
 30
0.0000
 11
-38.8410
 21
-10.6670
 31
0.0000
  0
LINE
  8
51
 10
-38.8410
 20
-10.6670
 30
0.0000
 11
-38.8410
 21
-6.2670
 31
0.0000
  0
LINE
  8
21
 10
-38.8410
 20
-6.2670
 30
0.0000
 11
-33.0410
 21
-6.2670
 31
0.0000
  0
LINE
  8
21
 10
-33.0410
 20
-6.2670
 30
0.0000
 11
-33.0410
 21
-10.6670
 31
0.0000
  0
LINE
  8
21
 10
-33.0410
 20
-10.6670
 30
0.0000
 11
-33.9410
 21
-10.6670
 31
0.0000
  0
LINE
  8
21
 10
-38.8410
 20
-6.2670
 30
0.0000
 11
-38.8410
 21
-10.6670
 31
0.0000
  0
LINE
  8
21
 10
-38.8410
 20
-10.6670
 30
0.0000
 11
-37.9410
 21
-10.6670
 31
0.0000
  0
LINE
  8
51
 10
-30.0990
 20
-65.5030
 30
0.0000
 11
-30.0990
 21
-66.3230
 31
0.0000
  0
LINE
  8
51
 10
-31.3690
 20
-65.5030
 30
0.0000
 11
-31.3690
 21
-66.3230
 31
0.0000
  0
INSERT
  8
51
  2
RECT
 10
-30.7325
 20
-66.6444
 30
0.0000
 41
0.6500
 42
1.4000
 43
1.0000
 50
270.0000
  0
INSERT
  8
51
  2
RECT
 10
-30.7325
 20
-65.1712
 30
0.0000
 41
0.6500
 42
1.4000
 43
1.0000
 50
270.0000
  0
LINE
  8
51
 10
-26.2890
 20
-65.5030
 30
0.0000
 11
-26.2890
 21
-66.3230
 31
0.0000
  0
LINE
  8
51
 10
-27.5590
 20
-65.5030
 30
0.0000
 11
-27.5590
 21
-66.3230
 31
0.0000
  0
INSERT
  8
51
  2
RECT
 10
-26.9225
 20
-66.6444
 30
0.0000
 41
0.6500
 42
1.4000
 43
1.0000
 50
270.0000
  0
INSERT
  8
51
  2
RECT
 10
-26.9225
 20
-65.1712
 30
0.0000
 41
0.6500
 42
1.4000
 43
1.0000
 50
270.0000
  0
LINE
  8
51
 10
-41.5540
 20
25.4760
 30
0.0000
 11
-42.2660
 21
25.4760
 31
0.0000
  0
LINE
  8
51
 10
-41.5540
 20
26.3270
 30
0.0000
 11
-42.2660
 21
26.3270
 31
0.0000
  0
INSERT
  8
51
  2
RECT
 10
-41.3219
 20
25.9029
 30
0.0000
 41
0.5001
 42
0.9500
 43
1.0000
 50
180.0000
  0
INSERT
  8
51
  2
RECT
 10
-42.4903
 20
25.9029
 30
0.0000
 41
0.5001
 42
0.9500
 43
1.0000
 50
180.0000
  0
LINE
  8
51
 10
38.9890
 20
-73.6600
 30
0.0000
 11
37.7190
 21
-73.6600
 31
0.0000
  0
LINE
  8
51
 10
37.7190
 20
-73.6600
 30
0.0000
 11
37.7190
 21
-71.6280
 31
0.0000
  0
LINE
  8
51
 10
37.7190
 20
-71.6280
 30
0.0000
 11
38.9890
 21
-71.6280
 31
0.0000
  0
LINE
  8
51
 10
38.9890
 20
-71.6280
 30
0.0000
 11
38.9890
 21
-73.6600
 31
0.0000
  0
LINE
  8
21
 10
37.7190
 20
-72.6440
 30
0.0000
 11
38.9890
 21
-72.6440
 31
0.0000
  0
LINE
  8
21
 10
38.9890
 20
-74.8030
 30
0.0000
 11
37.7190
 21
-74.8030
 31
0.0000
  0
LINE
  8
51
 10
-38.6334
 20
20.9296
 30
0.0000
 11
-38.6334
 21
22.2504
 31
0.0000
  0
LINE
  8
51
 10
-38.6334
 20
22.2504
 30
0.0000
 11
-35.7886
 21
22.2504
 31
0.0000
  0
LINE
  8
51
 10
-35.7886
 20
22.2504
 30
0.0000
 11
-35.7886
 21
20.9296
 31
0.0000
  0
LINE
  8
51
 10
-35.7886
 20
20.9296
 30
0.0000
 11
-38.6334
 21
20.9296
 31
0.0000
  0
INSERT
  8
51
  2
RECT
 10
-37.2110
 20
20.5867
 30
0.0000
 41
0.4572
 42
0.5842
 43
1.0000
 50
180.0000
  0
INSERT
  8
51
  2
RECT
 10
-38.1508
 20
22.5933
 30
0.0000
 41
0.4572
 42
0.5842
 43
1.0000
 50
180.0000
  0
INSERT
  8
51
  2
RECT
 10
-36.2712
 20
22.5933
 30
0.0000
 41
0.4572
 42
0.5842
 43
1.0000
 50
180.0000
  0
LINE
  8
51
 10
-22.9620
 20
-55.4480
 30
0.0000
 11
-22.9620
 21
-56.3120
 31
0.0000
  0
LINE
  8
51
 10
-22.2500
 20
-56.3120
 30
0.0000
 11
-22.2500
 21
-55.4480
 31
0.0000
  0
INSERT
  8
51
  2
RECT
 10
-22.6060
 20
-56.5150
 30
0.0000
 41
0.4064
 42
0.8636
 43
1.0000
 50
270.0000
  0
INSERT
  8
51
  2
RECT
 10
-22.6060
 20
-55.2450
 30
0.0000
 41
0.4064
 42
0.8636
 43
1.0000
 50
270.0000
  0
LINE
  8
51
 10
32.9180
 20
50.8510
 30
0.0000
 11
32.9180
 21
49.9870
 31
0.0000
  0
LINE
  8
51
 10
33.6300
 20
49.9870
 30
0.0000
 11
33.6300
 21
50.8510
 31
0.0000
  0
INSERT
  8
51
  2
RECT
 10
33.2740
 20
49.7840
 30
0.0000
 41
0.4064
 42
0.8636
 43
1.0000
 50
270.0000
  0
INSERT
  8
51
  2
RECT
 10
33.2740
 20
51.0540
 30
0.0000
 41
0.4064
 42
0.8636
 43
1.0000
 50
270.0000
  0
LINE
  8
51
 10
20.3450
 20
50.8510
 30
0.0000
 11
20.3450
 21
49.9870
 31
0.0000
  0
LINE
  8
51
 10
21.0570
 20
49.9870
 30
0.0000
 11
21.0570
 21
50.8510
 31
0.0000
  0
INSERT
  8
51
  2
RECT
 10
20.7010
 20
49.7840
 30
0.0000
 41
0.4064
 42
0.8636
 43
1.0000
 50
270.0000
  0
INSERT
  8
51
  2
RECT
 10
20.7010
 20
51.0540
 30
0.0000
 41
0.4064
 42
0.8636
 43
1.0000
 50
270.0000
  0
LINE
  8
51
 10
-0.4320
 20
-56.2360
 30
0.0000
 11
0.4320
 21
-56.2360
 31
0.0000
  0
LINE
  8
51
 10
0.4320
 20
-55.5240
 30
0.0000
 11
-0.4320
 21
-55.5240
 31
0.0000
  0
INSERT
  8
51
  2
RECT
 10
0.6350
 20
-55.8800
 30
0.0000
 41
0.4064
 42
0.8636
 43
1.0000
 50
0.0000
  0
INSERT
  8
51
  2
RECT
 10
-0.6350
 20
-55.8800
 30
0.0000
 41
0.4064
 42
0.8636
 43
1.0000
 50
0.0000
  0
LINE
  8
51
 10
23.9780
 20
53.2890
 30
0.0000
 11
23.9780
 21
54.1530
 31
0.0000
  0
LINE
  8
51
 10
23.2660
 20
54.1530
 30
0.0000
 11
23.2660
 21
53.2890
 31
0.0000
  0
INSERT
  8
51
  2
RECT
 10
23.6220
 20
54.3560
 30
0.0000
 41
0.4064
 42
0.8636
 43
1.0000
 50
90.0000
  0
INSERT
  8
51
  2
RECT
 10
23.6220
 20
53.0860
 30
0.0000
 41
0.4064
 42
0.8636
 43
1.0000
 50
90.0000
  0
LINE
  8
51
 10
8.4070
 20
-35.5090
 30
0.0000
 11
8.4070
 21
-36.3730
 31
0.0000
  0
LINE
  8
51
 10
9.1190
 20
-36.3730
 30
0.0000
 11
9.1190
 21
-35.5090
 31
0.0000
  0
INSERT
  8
51
  2
RECT
 10
8.7630
 20
-36.5760
 30
0.0000
 41
0.4064
 42
0.8636
 43
1.0000
 50
270.0000
  0
INSERT
  8
51
  2
RECT
 10
8.7630
 20
-35.3060
 30
0.0000
 41
0.4064
 42
0.8636
 43
1.0000
 50
270.0000
  0
LINE
  8
51
 10
-8.2300
 20
53.3910
 30
0.0000
 11
-8.2300
 21
52.5270
 31
0.0000
  0
LINE
  8
51
 10
-7.5180
 20
52.5270
 30
0.0000
 11
-7.5180
 21
53.3910
 31
0.0000
  0
INSERT
  8
51
  2
RECT
 10
-7.8740
 20
52.3240
 30
0.0000
 41
0.4064
 42
0.8636
 43
1.0000
 50
270.0000
  0
INSERT
  8
51
  2
RECT
 10
-7.8740
 20
53.5940
 30
0.0000
 41
0.4064
 42
0.8636
 43
1.0000
 50
270.0000
  0
LINE
  8
51
 10
-20.9300
 20
53.3910
 30
0.0000
 11
-20.9300
 21
52.5270
 31
0.0000
  0
LINE
  8
51
 10
-20.2180
 20
52.5270
 30
0.0000
 11
-20.2180
 21
53.3910
 31
0.0000
  0
INSERT
  8
51
  2
RECT
 10
-20.5740
 20
52.3240
 30
0.0000
 41
0.4064
 42
0.8636
 43
1.0000
 50
270.0000
  0
INSERT
  8
51
  2
RECT
 10
-20.5740
 20
53.5940
 30
0.0000
 41
0.4064
 42
0.8636
 43
1.0000
 50
270.0000
  0
LINE
  8
51
 10
-17.1700
 20
55.8290
 30
0.0000
 11
-17.1700
 21
56.6930
 31
0.0000
  0
LINE
  8
51
 10
-17.8820
 20
56.6930
 30
0.0000
 11
-17.8820
 21
55.8290
 31
0.0000
  0
INSERT
  8
51
  2
RECT
 10
-17.5260
 20
56.8960
 30
0.0000
 41
0.4064
 42
0.8636
 43
1.0000
 50
90.0000
  0
INSERT
  8
51
  2
RECT
 10
-17.5260
 20
55.6260
 30
0.0000
 41
0.4064
 42
0.8636
 43
1.0000
 50
90.0000
  0
LINE
  8
51
 10
-39.7200
 20
-56.6300
 30
0.0000
 11
-39.7200
 21
-55.1300
 31
0.0000
  0
LINE
  8
51
 10
-39.7200
 20
-55.1300
 30
0.0000
 11
-39.0200
 21
-55.1300
 31
0.0000
  0
LINE
  8
51
 10
-39.0200
 20
-55.1300
 30
0.0000
 11
-39.0200
 21
-56.6300
 31
0.0000
  0
LINE
  8
51
 10
-39.0200
 20
-56.6300
 30
0.0000
 11
-39.7200
 21
-56.6300
 31
0.0000
  0
INSERT
  8
51
  2
RECT
 10
-39.3700
 20
-56.4550
 30
0.0000
 41
0.3500
 42
0.7000
 43
1.0000
 50
90.0000
  0
INSERT
  8
51
  2
RECT
 10
-39.3700
 20
-55.3050
 30
0.0000
 41
0.3500
 42
0.7000
 43
1.0000
 50
270.0000
  0
LINE
  8
51
 10
-46.0700
 20
-56.6300
 30
0.0000
 11
-46.0700
 21
-55.1300
 31
0.0000
  0
LINE
  8
51
 10
-46.0700
 20
-55.1300
 30
0.0000
 11
-45.3700
 21
-55.1300
 31
0.0000
  0
LINE
  8
51
 10
-45.3700
 20
-55.1300
 30
0.0000
 11
-45.3700
 21
-56.6300
 31
0.0000
  0
LINE
  8
51
 10
-45.3700
 20
-56.6300
 30
0.0000
 11
-46.0700
 21
-56.6300
 31
0.0000
  0
INSERT
  8
51
  2
RECT
 10
-45.7200
 20
-56.4550
 30
0.0000
 41
0.3500
 42
0.7000
 43
1.0000
 50
90.0000
  0
INSERT
  8
51
  2
RECT
 10
-45.7200
 20
-55.3050
 30
0.0000
 41
0.3500
 42
0.7000
 43
1.0000
 50
270.0000
  0
LINE
  8
51
 10
-33.4770
 20
15.7230
 30
0.0000
 11
-34.3410
 21
15.7230
 31
0.0000
  0
LINE
  8
51
 10
-34.3410
 20
15.0110
 30
0.0000
 11
-33.4770
 21
15.0110
 31
0.0000
  0
INSERT
  8
51
  2
RECT
 10
-34.5440
 20
15.3670
 30
0.0000
 41
0.4064
 42
0.8636
 43
1.0000
 50
180.0000
  0
INSERT
  8
51
  2
RECT
 10
-33.2740
 20
15.3670
 30
0.0000
 41
0.4064
 42
0.8636
 43
1.0000
 50
180.0000
  0
LINE
  8
51
 10
21.0570
 20
53.2890
 30
0.0000
 11
21.0570
 21
54.1530
 31
0.0000
  0
LINE
  8
51
 10
20.3450
 20
54.1530
 30
0.0000
 11
20.3450
 21
53.2890
 31
0.0000
  0
INSERT
  8
51
  2
RECT
 10
20.7010
 20
54.3560
 30
0.0000
 41
0.4064
 42
0.8636
 43
1.0000
 50
90.0000
  0
INSERT
  8
51
  2
RECT
 10
20.7010
 20
53.0860
 30
0.0000
 41
0.4064
 42
0.8636
 43
1.0000
 50
90.0000
  0
LINE
  8
51
 10
5.1820
 20
55.8290
 30
0.0000
 11
5.1820
 21
56.6930
 31
0.0000
  0
LINE
  8
51
 10
4.4700
 20
56.6930
 30
0.0000
 11
4.4700
 21
55.8290
 31
0.0000
  0
INSERT
  8
51
  2
RECT
 10
4.8260
 20
56.8960
 30
0.0000
 41
0.4064
 42
0.8636
 43
1.0000
 50
90.0000
  0
INSERT
  8
51
  2
RECT
 10
4.8260
 20
55.6260
 30
0.0000
 41
0.4064
 42
0.8636
 43
1.0000
 50
90.0000
  0
LINE
  8
51
 10
8.2300
 20
55.8290
 30
0.0000
 11
8.2300
 21
56.6930
 31
0.0000
  0
LINE
  8
51
 10
7.5180
 20
56.6930
 30
0.0000
 11
7.5180
 21
55.8290
 31
0.0000
  0
INSERT
  8
51
  2
RECT
 10
7.8740
 20
56.8960
 30
0.0000
 41
0.4064
 42
0.8636
 43
1.0000
 50
90.0000
  0
INSERT
  8
51
  2
RECT
 10
7.8740
 20
55.6260
 30
0.0000
 41
0.4064
 42
0.8636
 43
1.0000
 50
90.0000
  0
LINE
  8
51
 10
31.0390
 20
-12.0900
 30
0.0000
 11
30.1750
 21
-12.0900
 31
0.0000
  0
LINE
  8
51
 10
30.1750
 20
-12.8020
 30
0.0000
 11
31.0390
 21
-12.8020
 31
0.0000
  0
INSERT
  8
51
  2
RECT
 10
29.9720
 20
-12.4460
 30
0.0000
 41
0.4064
 42
0.8636
 43
1.0000
 50
180.0000
  0
INSERT
  8
51
  2
RECT
 10
31.2420
 20
-12.4460
 30
0.0000
 41
0.4064
 42
0.8636
 43
1.0000
 50
180.0000
  0
LINE
  8
51
 10
-23.9780
 20
50.8510
 30
0.0000
 11
-23.9780
 21
49.9870
 31
0.0000
  0
LINE
  8
51
 10
-23.2660
 20
49.9870
 30
0.0000
 11
-23.2660
 21
50.8510
 31
0.0000
  0
INSERT
  8
51
  2
RECT
 10
-23.6220
 20
49.7840
 30
0.0000
 41
0.4064
 42
0.8636
 43
1.0000
 50
270.0000
  0
INSERT
  8
51
  2
RECT
 10
-23.6220
 20
51.0540
 30
0.0000
 41
0.4064
 42
0.8636
 43
1.0000
 50
270.0000
  0
LINE
  8
51
 10
-33.6300
 20
57.4550
 30
0.0000
 11
-33.6300
 21
56.5910
 31
0.0000
  0
LINE
  8
51
 10
-32.9180
 20
56.5910
 30
0.0000
 11
-32.9180
 21
57.4550
 31
0.0000
  0
INSERT
  8
51
  2
RECT
 10
-33.2740
 20
56.3880
 30
0.0000
 41
0.4064
 42
0.8636
 43
1.0000
 50
270.0000
  0
INSERT
  8
51
  2
RECT
 10
-33.2740
 20
57.6580
 30
0.0000
 41
0.4064
 42
0.8636
 43
1.0000
 50
270.0000
  0
LINE
  8
51
 10
-32.9180
 20
53.2890
 30
0.0000
 11
-32.9180
 21
54.1530
 31
0.0000
  0
LINE
  8
51
 10
-33.6300
 20
54.1530
 30
0.0000
 11
-33.6300
 21
53.2890
 31
0.0000
  0
INSERT
  8
51
  2
RECT
 10
-33.2740
 20
54.3560
 30
0.0000
 41
0.4064
 42
0.8636
 43
1.0000
 50
90.0000
  0
INSERT
  8
51
  2
RECT
 10
-33.2740
 20
53.0860
 30
0.0000
 41
0.4064
 42
0.8636
 43
1.0000
 50
90.0000
  0
LINE
  8
51
 10
-5.6642
 20
-12.8905
 30
0.0000
 11
-5.6642
 21
-14.8082
 31
0.0000
  0
LINE
  8
51
 10
-7.2898
 20
-12.8905
 30
0.0000
 11
-7.2898
 21
-14.8082
 31
0.0000
  0
INSERT
  8
51
  2
RECT
 10
-6.4770
 20
-15.1638
 30
0.0000
 41
0.7366
 42
1.7526
 43
1.0000
 50
90.0000
  0
INSERT
  8
51
  2
RECT
 10
-6.4770
 20
-12.5222
 30
0.0000
 41
0.7366
 42
1.7526
 43
1.0000
 50
90.0000
  0
LINE
  8
51
 10
7.2898
 20
-12.8905
 30
0.0000
 11
7.2898
 21
-14.8082
 31
0.0000
  0
LINE
  8
51
 10
5.6642
 20
-12.8905
 30
0.0000
 11
5.6642
 21
-14.8082
 31
0.0000
  0
INSERT
  8
51
  2
RECT
 10
6.4770
 20
-15.1638
 30
0.0000
 41
0.7366
 42
1.7526
 43
1.0000
 50
90.0000
  0
INSERT
  8
51
  2
RECT
 10
6.4770
 20
-12.5222
 30
0.0000
 41
0.7366
 42
1.7526
 43
1.0000
 50
90.0000
  0
LINE
  8
51
 10
4.4700
 20
53.3910
 30
0.0000
 11
4.4700
 21
52.5270
 31
0.0000
  0
LINE
  8
51
 10
5.1820
 20
52.5270
 30
0.0000
 11
5.1820
 21
53.3910
 31
0.0000
  0
INSERT
  8
51
  2
RECT
 10
4.8260
 20
52.3240
 30
0.0000
 41
0.4064
 42
0.8636
 43
1.0000
 50
270.0000
  0
INSERT
  8
51
  2
RECT
 10
4.8260
 20
53.5940
 30
0.0000
 41
0.4064
 42
0.8636
 43
1.0000
 50
270.0000
  0
LINE
  8
51
 10
-7.5180
 20
55.8290
 30
0.0000
 11
-7.5180
 21
56.6930
 31
0.0000
  0
LINE
  8
51
 10
-8.2300
 20
56.6930
 30
0.0000
 11
-8.2300
 21
55.8290
 31
0.0000
  0
INSERT
  8
51
  2
RECT
 10
-7.8740
 20
56.8960
 30
0.0000
 41
0.4064
 42
0.8636
 43
1.0000
 50
90.0000
  0
INSERT
  8
51
  2
RECT
 10
-7.8740
 20
55.6260
 30
0.0000
 41
0.4064
 42
0.8636
 43
1.0000
 50
90.0000
  0
LINE
  8
51
 10
-4.4700
 20
55.8290
 30
0.0000
 11
-4.4700
 21
56.6930
 31
0.0000
  0
LINE
  8
51
 10
-5.1820
 20
56.6930
 30
0.0000
 11
-5.1820
 21
55.8290
 31
0.0000
  0
INSERT
  8
51
  2
RECT
 10
-4.8260
 20
56.8960
 30
0.0000
 41
0.4064
 42
0.8636
 43
1.0000
 50
90.0000
  0
INSERT
  8
51
  2
RECT
 10
-4.8260
 20
55.6260
 30
0.0000
 41
0.4064
 42
0.8636
 43
1.0000
 50
90.0000
  0
LINE
  8
51
 10
9.1190
 20
-30.4040
 30
0.0000
 11
9.1190
 21
-29.5400
 31
0.0000
  0
LINE
  8
51
 10
8.4070
 20
-29.5400
 30
0.0000
 11
8.4070
 21
-30.4040
 31
0.0000
  0
INSERT
  8
51
  2
RECT
 10
8.7630
 20
-29.3370
 30
0.0000
 41
0.4064
 42
0.8636
 43
1.0000
 50
90.0000
  0
INSERT
  8
51
  2
RECT
 10
8.7630
 20
-30.6070
 30
0.0000
 41
0.4064
 42
0.8636
 43
1.0000
 50
90.0000
  0
LINE
  8
51
 10
-9.1190
 20
-25.6030
 30
0.0000
 11
-9.1190
 21
-26.4670
 31
0.0000
  0
LINE
  8
51
 10
-8.4070
 20
-26.4670
 30
0.0000
 11
-8.4070
 21
-25.6030
 31
0.0000
  0
INSERT
  8
51
  2
RECT
 10
-8.7630
 20
-26.6700
 30
0.0000
 41
0.4064
 42
0.8636
 43
1.0000
 50
270.0000
  0
INSERT
  8
51
  2
RECT
 10
-8.7630
 20
-25.4000
 30
0.0000
 41
0.4064
 42
0.8636
 43
1.0000
 50
270.0000
  0
LINE
  8
51
 10
8.4070
 20
-25.6030
 30
0.0000
 11
8.4070
 21
-26.4670
 31
0.0000
  0
LINE
  8
51
 10
9.1190
 20
-26.4670
 30
0.0000
 11
9.1190
 21
-25.6030
 31
0.0000
  0
INSERT
  8
51
  2
RECT
 10
8.7630
 20
-26.6700
 30
0.0000
 41
0.4064
 42
0.8636
 43
1.0000
 50
270.0000
  0
INSERT
  8
51
  2
RECT
 10
8.7630
 20
-25.4000
 30
0.0000
 41
0.4064
 42
0.8636
 43
1.0000
 50
270.0000
  0
LINE
  8
51
 10
-10.8200
 20
-26.4670
 30
0.0000
 11
-10.8200
 21
-25.6030
 31
0.0000
  0
LINE
  8
51
 10
-11.5320
 20
-25.6030
 30
0.0000
 11
-11.5320
 21
-26.4670
 31
0.0000
  0
INSERT
  8
51
  2
RECT
 10
-11.1760
 20
-25.4000
 30
0.0000
 41
0.4064
 42
0.8636
 43
1.0000
 50
90.0000
  0
INSERT
  8
51
  2
RECT
 10
-11.1760
 20
-26.6700
 30
0.0000
 41
0.4064
 42
0.8636
 43
1.0000
 50
90.0000
  0
LINE
  8
51
 10
-32.9180
 20
36.0170
 30
0.0000
 11
-32.9180
 21
36.8810
 31
0.0000
  0
LINE
  8
51
 10
-33.6300
 20
36.8810
 30
0.0000
 11
-33.6300
 21
36.0170
 31
0.0000
  0
INSERT
  8
51
  2
RECT
 10
-33.2740
 20
37.0840
 30
0.0000
 41
0.4064
 42
0.8636
 43
1.0000
 50
90.0000
  0
INSERT
  8
51
  2
RECT
 10
-33.2740
 20
35.8140
 30
0.0000
 41
0.4064
 42
0.8636
 43
1.0000
 50
90.0000
  0
LINE
  8
51
 10
5.9940
 20
-25.6030
 30
0.0000
 11
5.9940
 21
-26.4670
 31
0.0000
  0
LINE
  8
51
 10
6.7060
 20
-26.4670
 30
0.0000
 11
6.7060
 21
-25.6030
 31
0.0000
  0
INSERT
  8
51
  2
RECT
 10
6.3500
 20
-26.6700
 30
0.0000
 41
0.4064
 42
0.8636
 43
1.0000
 50
270.0000
  0
INSERT
  8
51
  2
RECT
 10
6.3500
 20
-25.4000
 30
0.0000
 41
0.4064
 42
0.8636
 43
1.0000
 50
270.0000
  0
LINE
  8
51
 10
-5.9940
 20
-30.4040
 30
0.0000
 11
-5.9940
 21
-29.5400
 31
0.0000
  0
LINE
  8
51
 10
-6.7060
 20
-29.5400
 30
0.0000
 11
-6.7060
 21
-30.4040
 31
0.0000
  0
INSERT
  8
51
  2
RECT
 10
-6.3500
 20
-29.3370
 30
0.0000
 41
0.4064
 42
0.8636
 43
1.0000
 50
90.0000
  0
INSERT
  8
51
  2
RECT
 10
-6.3500
 20
-30.6070
 30
0.0000
 41
0.4064
 42
0.8636
 43
1.0000
 50
90.0000
  0
LINE
  8
51
 10
-35.7890
 20
36.8810
 30
0.0000
 11
-35.7890
 21
36.0170
 31
0.0000
  0
LINE
  8
51
 10
-35.0770
 20
36.0170
 30
0.0000
 11
-35.0770
 21
36.8810
 31
0.0000
  0
INSERT
  8
51
  2
RECT
 10
-35.4330
 20
35.8140
 30
0.0000
 41
0.4064
 42
0.8636
 43
1.0000
 50
270.0000
  0
INSERT
  8
51
  2
RECT
 10
-35.4330
 20
37.0840
 30
0.0000
 41
0.4064
 42
0.8636
 43
1.0000
 50
270.0000
  0
LINE
  8
51
 10
-34.4930
 20
25.3750
 30
0.0000
 11
-35.3570
 21
25.3750
 31
0.0000
  0
LINE
  8
51
 10
-35.3570
 20
24.6630
 30
0.0000
 11
-34.4930
 21
24.6630
 31
0.0000
  0
INSERT
  8
51
  2
RECT
 10
-35.5600
 20
25.0190
 30
0.0000
 41
0.4064
 42
0.8636
 43
1.0000
 50
180.0000
  0
INSERT
  8
51
  2
RECT
 10
-34.2900
 20
25.0190
 30
0.0000
 41
0.4064
 42
0.8636
 43
1.0000
 50
180.0000
  0
LINE
  8
51
 10
-39.3950
 20
36.0170
 30
0.0000
 11
-39.3950
 21
36.8810
 31
0.0000
  0
LINE
  8
51
 10
-40.1070
 20
36.8810
 30
0.0000
 11
-40.1070
 21
36.0170
 31
0.0000
  0
INSERT
  8
51
  2
RECT
 10
-39.7510
 20
37.0840
 30
0.0000
 41
0.4064
 42
0.8636
 43
1.0000
 50
90.0000
  0
INSERT
  8
51
  2
RECT
 10
-39.7510
 20
35.8140
 30
0.0000
 41
0.4064
 42
0.8636
 43
1.0000
 50
90.0000
  0
LINE
  8
51
 10
-37.9480
 20
36.8810
 30
0.0000
 11
-37.9480
 21
36.0170
 31
0.0000
  0
LINE
  8
51
 10
-37.2360
 20
36.0170
 30
0.0000
 11
-37.2360
 21
36.8810
 31
0.0000
  0
INSERT
  8
51
  2
RECT
 10
-37.5920
 20
35.8140
 30
0.0000
 41
0.4064
 42
0.8636
 43
1.0000
 50
270.0000
  0
INSERT
  8
51
  2
RECT
 10
-37.5920
 20
37.0840
 30
0.0000
 41
0.4064
 42
0.8636
 43
1.0000
 50
270.0000
  0
LINE
  8
51
 10
-41.3770
 20
23.6730
 30
0.0000
 11
-41.3770
 21
22.8090
 31
0.0000
  0
LINE
  8
51
 10
-40.6650
 20
22.8090
 30
0.0000
 11
-40.6650
 21
23.6730
 31
0.0000
  0
INSERT
  8
51
  2
RECT
 10
-41.0210
 20
22.6060
 30
0.0000
 41
0.4064
 42
0.8636
 43
1.0000
 50
270.0000
  0
INSERT
  8
51
  2
RECT
 10
-41.0210
 20
23.8760
 30
0.0000
 41
0.4064
 42
0.8636
 43
1.0000
 50
270.0000
  0
LINE
  8
51
 10
-42.3420
 20
20.2180
 30
0.0000
 11
-41.4780
 21
20.2180
 31
0.0000
  0
LINE
  8
51
 10
-41.4780
 20
20.9300
 30
0.0000
 11
-42.3420
 21
20.9300
 31
0.0000
  0
INSERT
  8
51
  2
RECT
 10
-41.2750
 20
20.5740
 30
0.0000
 41
0.4064
 42
0.8636
 43
1.0000
 50
0.0000
  0
INSERT
  8
51
  2
RECT
 10
-42.5450
 20
20.5740
 30
0.0000
 41
0.4064
 42
0.8636
 43
1.0000
 50
0.0000
  0
LINE
  8
51
 10
-24.1550
 20
-20.8790
 30
0.0000
 11
-24.1550
 21
-20.0150
 31
0.0000
  0
LINE
  8
51
 10
-24.8670
 20
-20.0150
 30
0.0000
 11
-24.8670
 21
-20.8790
 31
0.0000
  0
INSERT
  8
51
  2
RECT
 10
-24.5110
 20
-19.8120
 30
0.0000
 41
0.4064
 42
0.8636
 43
1.0000
 50
90.0000
  0
INSERT
  8
51
  2
RECT
 10
-24.5110
 20
-21.0820
 30
0.0000
 41
0.4064
 42
0.8636
 43
1.0000
 50
90.0000
  0
LINE
  8
51
 10
31.0130
 20
-72.3390
 30
0.0000
 11
31.0130
 21
-73.2030
 31
0.0000
  0
LINE
  8
51
 10
31.7250
 20
-73.2030
 30
0.0000
 11
31.7250
 21
-72.3390
 31
0.0000
  0
INSERT
  8
51
  2
RECT
 10
31.3690
 20
-73.4060
 30
0.0000
 41
0.4064
 42
0.8636
 43
1.0000
 50
270.0000
  0
INSERT
  8
51
  2
RECT
 10
31.3690
 20
-72.1360
 30
0.0000
 41
0.4064
 42
0.8636
 43
1.0000
 50
270.0000
  0
LINE
  8
51
 10
33.6800
 20
-72.3390
 30
0.0000
 11
33.6800
 21
-73.2030
 31
0.0000
  0
LINE
  8
51
 10
34.3920
 20
-73.2030
 30
0.0000
 11
34.3920
 21
-72.3390
 31
0.0000
  0
INSERT
  8
51
  2
RECT
 10
34.0360
 20
-73.4060
 30
0.0000
 41
0.4064
 42
0.8636
 43
1.0000
 50
270.0000
  0
INSERT
  8
51
  2
RECT
 10
34.0360
 20
-72.1360
 30
0.0000
 41
0.4064
 42
0.8636
 43
1.0000
 50
270.0000
  0
LINE
  8
51
 10
36.8810
 20
-39.6490
 30
0.0000
 11
36.0170
 21
-39.6490
 31
0.0000
  0
LINE
  8
51
 10
36.0170
 20
-40.3610
 30
0.0000
 11
36.8810
 21
-40.3610
 31
0.0000
  0
INSERT
  8
51
  2
RECT
 10
35.8140
 20
-40.0050
 30
0.0000
 41
0.4064
 42
0.8636
 43
1.0000
 50
180.0000
  0
INSERT
  8
51
  2
RECT
 10
37.0840
 20
-40.0050
 30
0.0000
 41
0.4064
 42
0.8636
 43
1.0000
 50
180.0000
  0
LINE
  8
51
 10
-21.4880
 20
-39.2940
 30
0.0000
 11
-21.4880
 21
-38.4300
 31
0.0000
  0
LINE
  8
51
 10
-22.2000
 20
-38.4300
 30
0.0000
 11
-22.2000
 21
-39.2940
 31
0.0000
  0
INSERT
  8
51
  2
RECT
 10
-21.8440
 20
-38.2270
 30
0.0000
 41
0.4064
 42
0.8636
 43
1.0000
 50
90.0000
  0
INSERT
  8
51
  2
RECT
 10
-21.8440
 20
-39.4970
 30
0.0000
 41
0.4064
 42
0.8636
 43
1.0000
 50
90.0000
  0
LINE
  8
51
 10
-24.6130
 20
-38.4300
 30
0.0000
 11
-24.6130
 21
-39.2940
 31
0.0000
  0
LINE
  8
51
 10
-23.9010
 20
-39.2940
 30
0.0000
 11
-23.9010
 21
-38.4300
 31
0.0000
  0
INSERT
  8
51
  2
RECT
 10
-24.2570
 20
-39.4970
 30
0.0000
 41
0.4064
 42
0.8636
 43
1.0000
 50
270.0000
  0
INSERT
  8
51
  2
RECT
 10
-24.2570
 20
-38.2270
 30
0.0000
 41
0.4064
 42
0.8636
 43
1.0000
 50
270.0000
  0
LINE
  8
21
 10
48.3870
 20
-67.1830
 30
0.0000
 11
54.7370
 21
-67.1830
 31
0.0000
  0
LINE
  8
21
 10
54.7370
 20
-60.3250
 30
0.0000
 11
54.1020
 21
-60.3250
 31
0.0000
  0
LINE
  8
21
 10
48.3870
 20
-67.1830
 30
0.0000
 11
48.1330
 21
-66.9290
 31
0.0000
  0
LINE
  8
21
 10
48.3870
 20
-60.3250
 30
0.0000
 11
48.1330
 21
-60.5790
 31
0.0000
  0
LINE
  8
21
 10
48.1330
 20
-60.5790
 30
0.0000
 11
48.1330
 21
-62.2300
 31
0.0000
  0
LINE
  8
51
 10
48.1330
 20
-62.2300
 30
0.0000
 11
48.1330
 21
-63.5000
 31
0.0000
  0
LINE
  8
21
 10
48.1330
 20
-63.5000
 30
0.0000
 11
48.1330
 21
-66.9290
 31
0.0000
  0
LINE
  8
21
 10
54.7370
 20
-60.3250
 30
0.0000
 11
54.9910
 21
-60.5790
 31
0.0000
  0
LINE
  8
21
 10
54.7370
 20
-67.1830
 30
0.0000
 11
54.9910
 21
-66.9290
 31
0.0000
  0
LINE
  8
21
 10
54.9910
 20
-66.9290
 30
0.0000
 11
54.9910
 21
-63.5000
 31
0.0000
  0
LINE
  8
51
 10
54.9910
 20
-63.5000
 30
0.0000
 11
54.9910
 21
-62.2300
 31
0.0000
  0
LINE
  8
21
 10
54.9910
 20
-62.2300
 30
0.0000
 11
54.9910
 21
-60.5790
 31
0.0000
  0
LINE
  8
21
 10
50.8000
 20
-63.7540
 30
0.0000
 11
50.0380
 21
-63.7540
 31
0.0000
  0
LINE
  8
21
 10
50.0380
 20
-63.7540
 30
0.0000
 11
50.0380
 21
-64.5160
 31
0.0000
  0
LINE
  8
21
 10
50.0380
 20
-64.5160
 30
0.0000
 11
50.8000
 21
-64.5160
 31
0.0000
  0
LINE
  8
21
 10
50.8000
 20
-64.5160
 30
0.0000
 11
51.1810
 21
-64.8970
 31
0.0000
  0
LINE
  8
21
 10
51.1810
 20
-64.8970
 30
0.0000
 11
51.1810
 21
-65.2780
 31
0.0000
  0
LINE
  8
21
 10
51.1810
 20
-66.0400
 30
0.0000
 11
51.9430
 21
-66.0400
 31
0.0000
  0
LINE
  8
21
 10
51.9430
 20
-66.0400
 30
0.0000
 11
51.9430
 21
-65.2780
 31
0.0000
  0
LINE
  8
21
 10
51.9430
 20
-64.8970
 30
0.0000
 11
52.3240
 21
-64.5160
 31
0.0000
  0
LINE
  8
21
 10
52.3240
 20
-64.5160
 30
0.0000
 11
53.0860
 21
-64.5160
 31
0.0000
  0
LINE
  8
21
 10
53.0860
 20
-64.5160
 30
0.0000
 11
53.0860
 21
-63.7540
 31
0.0000
  0
LINE
  8
21
 10
53.0860
 20
-63.7540
 30
0.0000
 11
52.3240
 21
-63.7540
 31
0.0000
  0
LINE
  8
21
 10
51.9430
 20
-63.3730
 30
0.0000
 11
52.3240
 21
-63.7540
 31
0.0000
  0
LINE
  8
21
 10
51.9430
 20
-63.3730
 30
0.0000
 11
51.9430
 21
-62.9920
 31
0.0000
  0
LINE
  8
21
 10
51.9430
 20
-62.2300
 30
0.0000
 11
51.1810
 21
-62.2300
 31
0.0000
  0
LINE
  8
21
 10
51.1810
 20
-62.2300
 30
0.0000
 11
51.1810
 21
-62.9920
 31
0.0000
  0
LINE
  8
21
 10
51.1810
 20
-63.3730
 30
0.0000
 11
50.8000
 21
-63.7540
 31
0.0000
  0
LINE
  8
51
 10
53.3400
 20
-62.3570
 30
0.0000
 11
53.5940
 21
-62.1030
 31
0.0000
  0
LINE
  8
51
 10
49.7840
 20
-62.3570
 30
0.0000
 11
49.5300
 21
-62.1030
 31
0.0000
  0
LINE
  8
21
 10
49.1744
 20
-64.1350
 30
0.0000
 11
48.7934
 21
-64.1350
 31
0.0000
  0
LINE
  8
21
 10
49.7840
 20
-65.7860
 30
0.0000
 11
49.5300
 21
-66.0400
 31
0.0000
  0
LINE
  8
21
 10
51.5620
 20
-66.4718
 30
0.0000
 11
51.5620
 21
-66.8528
 31
0.0000
  0
LINE
  8
21
 10
53.4670
 20
-65.7860
 30
0.0000
 11
53.7210
 21
-66.0400
 31
0.0000
  0
LINE
  8
21
 10
53.9496
 20
-64.1350
 30
0.0000
 11
54.3306
 21
-64.1350
 31
0.0000
  0
LINE
  8
21
 10
51.1810
 20
-65.2780
 30
0.0000
 11
51.9430
 21
-65.2780
 31
0.0000
  0
LINE
  8
21
 10
51.1810
 20
-65.2780
 30
0.0000
 11
51.1810
 21
-66.0400
 31
0.0000
  0
LINE
  8
21
 10
51.9430
 20
-65.2780
 30
0.0000
 11
51.9430
 21
-64.8970
 31
0.0000
  0
LINE
  8
21
 10
51.1810
 20
-62.9920
 30
0.0000
 11
51.9430
 21
-62.9920
 31
0.0000
  0
LINE
  8
21
 10
51.1810
 20
-62.9920
 30
0.0000
 11
51.1810
 21
-63.3730
 31
0.0000
  0
LINE
  8
21
 10
51.9430
 20
-62.9920
 30
0.0000
 11
51.9430
 21
-62.2300
 31
0.0000
  0
LINE
  8
21
 10
54.1020
 20
-60.7060
 30
0.0000
 11
54.1020
 21
-60.3250
 31
0.0000
  0
LINE
  8
51
 10
52.5780
 20
-60.7060
 30
0.0000
 11
50.5460
 21
-60.7060
 31
0.0000
  0
LINE
  8
21
 10
49.0220
 20
-60.3250
 30
0.0000
 11
49.0220
 21
-60.7060
 31
0.0000
  0
LINE
  8
21
 10
54.1020
 20
-60.3250
 30
0.0000
 11
52.1970
 21
-60.3250
 31
0.0000
  0
LINE
  8
51
 10
52.1970
 20
-60.3250
 30
0.0000
 11
50.9270
 21
-60.3250
 31
0.0000
  0
LINE
  8
21
 10
50.9270
 20
-60.3250
 30
0.0000
 11
49.0220
 21
-60.3250
 31
0.0000
  0
LINE
  8
21
 10
49.0220
 20
-60.3250
 30
0.0000
 11
48.3870
 21
-60.3250
 31
0.0000
  0
LINE
  8
21
 10
54.1020
 20
-60.7060
 30
0.0000
 11
52.5780
 21
-60.7060
 31
0.0000
  0
LINE
  8
21
 10
50.5460
 20
-60.7060
 30
0.0000
 11
49.0220
 21
-60.7060
 31
0.0000
  0
TEXT
  7
ISOCP
  8
21
 10
49.1490
 20
-60.9600
 30
0.0000
 40
0.9906
  1
3
 72
2
 73
3
 11
49.1490
 21
-60.9600
 31
0.0000
  0
TEXT
  7
ISOCP
  8
21
 10
54.4830
 20
-60.9600
 30
0.0000
 40
0.9906
  1
1
 72
2
 73
3
 11
54.4830
 21
-60.9600
 31
0.0000
  0
CIRCLE
  8
51
 10
51.5620
 20
-64.1350
 30
0.0000
 40
2.0320
  0
LINE
  8
51
 10
-49.0470
 20
22.9360
 30
0.0000
 11
-49.0470
 21
23.8000
 31
0.0000
  0
LINE
  8
51
 10
-49.7590
 20
23.8000
 30
0.0000
 11
-49.7590
 21
22.9360
 31
0.0000
  0
INSERT
  8
51
  2
RECT
 10
-49.4030
 20
24.0030
 30
0.0000
 41
0.4064
 42
0.8636
 43
1.0000
 50
90.0000
  0
INSERT
  8
51
  2
RECT
 10
-49.4030
 20
22.7330
 30
0.0000
 41
0.4064
 42
0.8636
 43
1.0000
 50
90.0000
  0
LINE
  8
51
 10
-38.6590
 20
24.6630
 30
0.0000
 11
-37.7950
 21
24.6630
 31
0.0000
  0
LINE
  8
51
 10
-37.7950
 20
25.3750
 30
0.0000
 11
-38.6590
 21
25.3750
 31
0.0000
  0
INSERT
  8
51
  2
RECT
 10
-37.5920
 20
25.0190
 30
0.0000
 41
0.4064
 42
0.8636
 43
1.0000
 50
0.0000
  0
INSERT
  8
51
  2
RECT
 10
-38.8620
 20
25.0190
 30
0.0000
 41
0.4064
 42
0.8636
 43
1.0000
 50
0.0000
  0
LINE
  8
21
 10
-12.6050
 20
-52.5220
 30
0.0000
 11
-16.6050
 21
-52.5220
 31
0.0000
  0
LINE
  8
21
 10
-16.6050
 20
-58.2220
 30
0.0000
 11
-15.1050
 21
-58.2220
 31
0.0000
  0
LINE
  8
21
 10
-14.1050
 20
-58.2220
 30
0.0000
 11
-12.6050
 21
-58.2220
 31
0.0000
  0
LINE
  8
21
 10
-15.1050
 20
-58.2220
 30
0.0000
 11
-15.1050
 21
-58.4720
 31
0.0000
  0
LINE
  8
21
 10
-15.1050
 20
-58.4720
 30
0.0000
 11
-14.1050
 21
-58.4720
 31
0.0000
  0
LINE
  8
21
 10
-14.1050
 20
-58.4720
 30
0.0000
 11
-14.1050
 21
-58.2220
 31
0.0000
  0
LINE
  8
21
 10
-16.4050
 20
-56.3720
 30
0.0000
 11
-16.4050
 21
-54.3720
 31
0.0000
  0
LINE
  8
21
 10
-16.4050
 20
-54.3720
 30
0.0000
 11
-16.6050
 21
-54.3720
 31
0.0000
  0
LINE
  8
21
 10
-16.6050
 20
-54.3720
 30
0.0000
 11
-16.8050
 21
-54.3720
 31
0.0000
  0
LINE
  8
21
 10
-16.8050
 20
-54.3720
 30
0.0000
 11
-16.8050
 21
-56.3720
 31
0.0000
  0
LINE
  8
21
 10
-16.8050
 20
-56.3720
 30
0.0000
 11
-16.6050
 21
-56.3720
 31
0.0000
  0
LINE
  8
21
 10
-16.6050
 20
-56.3720
 30
0.0000
 11
-16.4050
 21
-56.3720
 31
0.0000
  0
LINE
  8
21
 10
-12.4050
 20
-56.3720
 30
0.0000
 11
-12.4050
 21
-54.3720
 31
0.0000
  0
LINE
  8
21
 10
-12.4050
 20
-54.3720
 30
0.0000
 11
-12.6050
 21
-54.3720
 31
0.0000
  0
LINE
  8
21
 10
-12.6050
 20
-54.3720
 30
0.0000
 11
-12.8050
 21
-54.3720
 31
0.0000
  0
LINE
  8
21
 10
-12.8050
 20
-54.3720
 30
0.0000
 11
-12.8050
 21
-56.3720
 31
0.0000
  0
LINE
  8
21
 10
-12.8050
 20
-56.3720
 30
0.0000
 11
-12.6050
 21
-56.3720
 31
0.0000
  0
LINE
  8
21
 10
-12.6050
 20
-56.3720
 30
0.0000
 11
-12.4050
 21
-56.3720
 31
0.0000
  0
LINE
  8
21
 10
-16.6050
 20
-58.2220
 30
0.0000
 11
-16.6050
 21
-56.3720
 31
0.0000
  0
LINE
  8
21
 10
-16.6050
 20
-54.3720
 30
0.0000
 11
-16.6050
 21
-52.5220
 31
0.0000
  0
LINE
  8
21
 10
-12.6050
 20
-54.3720
 30
0.0000
 11
-12.6050
 21
-52.5220
 31
0.0000
  0
LINE
  8
21
 10
-12.6050
 20
-56.3720
 30
0.0000
 11
-12.6050
 21
-58.2220
 31
0.0000
  0
CIRCLE
  8
21
 10
-14.6050
 20
-55.3720
 30
0.0000
 40
1.5000
  0
CIRCLE
  8
21
 10
-14.6050
 20
-55.3720
 30
0.0000
 40
1.2000
  0
TEXT
  7
ISOCP
  8
21
 10
-9.3430
 20
-58.3720
 30
0.0000
 40
1.2700
  1
RESET
 50
90.0000
  0
LINE
  8
51
 10
-44.0950
 20
-55.1300
 30
0.0000
 11
-43.5450
 21
-55.1300
 31
0.0000
  0
LINE
  8
51
 10
-43.1450
 20
-55.1300
 30
0.0000
 11
-42.7450
 21
-55.1300
 31
0.0000
  0
LINE
  8
51
 10
-42.3450
 20
-55.1300
 30
0.0000
 11
-41.9450
 21
-55.1300
 31
0.0000
  0
LINE
  8
51
 10
-41.5450
 20
-55.1300
 30
0.0000
 11
-40.9950
 21
-55.1300
 31
0.0000
  0
LINE
  8
51
 10
-40.9950
 20
-55.1300
 30
0.0000
 11
-40.9950
 21
-56.6300
 31
0.0000
  0
LINE
  8
51
 10
-44.0950
 20
-56.6300
 30
0.0000
 11
-44.0950
 21
-55.1300
 31
0.0000
  0
ARC
  8
51
 10
-43.3450
 20
-55.1300
 30
0.0000
 40
0.2000
 50
180.0000
 51
0.0000
  0
ARC
  8
51
 10
-42.5450
 20
-55.1300
 30
0.0000
 40
0.2000
 50
180.0000
 51
0.0000
  0
ARC
  8
51
 10
-41.7450
 20
-55.1300
 30
0.0000
 40
0.2000
 50
180.0000
 51
0.0000
  0
LINE
  8
51
 10
-40.9950
 20
-56.6300
 30
0.0000
 11
-41.5450
 21
-56.6300
 31
0.0000
  0
LINE
  8
51
 10
-41.9450
 20
-56.6300
 30
0.0000
 11
-42.3450
 21
-56.6300
 31
0.0000
  0
LINE
  8
51
 10
-42.7450
 20
-56.6300
 30
0.0000
 11
-43.1450
 21
-56.6300
 31
0.0000
  0
LINE
  8
51
 10
-43.5450
 20
-56.6300
 30
0.0000
 11
-44.0950
 21
-56.6300
 31
0.0000
  0
ARC
  8
51
 10
-41.7450
 20
-56.6300
 30
0.0000
 40
0.2000
 50
0.0000
 51
180.0000
  0
ARC
  8
51
 10
-42.5450
 20
-56.6300
 30
0.0000
 40
0.2000
 50
0.0000
 51
180.0000
  0
ARC
  8
51
 10
-43.3450
 20
-56.6300
 30
0.0000
 40
0.2000
 50
0.0000
 51
180.0000
  0
LINE
  8
51
 10
35.3180
 20
-25.5530
 30
0.0000
 11
35.3180
 21
-25.0030
 31
0.0000
  0
LINE
  8
51
 10
35.3180
 20
-24.6030
 30
0.0000
 11
35.3180
 21
-24.2030
 31
0.0000
  0
LINE
  8
51
 10
35.3180
 20
-23.8030
 30
0.0000
 11
35.3180
 21
-23.4030
 31
0.0000
  0
LINE
  8
51
 10
35.3180
 20
-23.0030
 30
0.0000
 11
35.3180
 21
-22.4530
 31
0.0000
  0
LINE
  8
51
 10
35.3180
 20
-22.4530
 30
0.0000
 11
36.8180
 21
-22.4530
 31
0.0000
  0
LINE
  8
51
 10
36.8180
 20
-25.5530
 30
0.0000
 11
35.3180
 21
-25.5530
 31
0.0000
  0
ARC
  8
51
 10
35.3180
 20
-24.8030
 30
0.0000
 40
0.2000
 50
270.0000
 51
90.0000
  0
ARC
  8
51
 10
35.3180
 20
-24.0030
 30
0.0000
 40
0.2000
 50
270.0000
 51
90.0000
  0
ARC
  8
51
 10
35.3180
 20
-23.2030
 30
0.0000
 40
0.2000
 50
270.0000
 51
90.0000
  0
LINE
  8
51
 10
36.8180
 20
-22.4530
 30
0.0000
 11
36.8180
 21
-23.0030
 31
0.0000
  0
LINE
  8
51
 10
36.8180
 20
-23.4030
 30
0.0000
 11
36.8180
 21
-23.8030
 31
0.0000
  0
LINE
  8
51
 10
36.8180
 20
-24.2030
 30
0.0000
 11
36.8180
 21
-24.6030
 31
0.0000
  0
LINE
  8
51
 10
36.8180
 20
-25.0030
 30
0.0000
 11
36.8180
 21
-25.5530
 31
0.0000
  0
ARC
  8
51
 10
36.8180
 20
-23.2030
 30
0.0000
 40
0.2000
 50
90.0000
 51
270.0000
  0
ARC
  8
51
 10
36.8180
 20
-24.0030
 30
0.0000
 40
0.2000
 50
90.0000
 51
270.0000
  0
ARC
  8
51
 10
36.8180
 20
-24.8030
 30
0.0000
 40
0.2000
 50
90.0000
 51
270.0000
  0
LINE
  8
51
 10
29.2220
 20
-25.5530
 30
0.0000
 11
29.2220
 21
-25.0030
 31
0.0000
  0
LINE
  8
51
 10
29.2220
 20
-24.6030
 30
0.0000
 11
29.2220
 21
-24.2030
 31
0.0000
  0
LINE
  8
51
 10
29.2220
 20
-23.8030
 30
0.0000
 11
29.2220
 21
-23.4030
 31
0.0000
  0
LINE
  8
51
 10
29.2220
 20
-23.0030
 30
0.0000
 11
29.2220
 21
-22.4530
 31
0.0000
  0
LINE
  8
51
 10
29.2220
 20
-22.4530
 30
0.0000
 11
30.7220
 21
-22.4530
 31
0.0000
  0
LINE
  8
51
 10
30.7220
 20
-25.5530
 30
0.0000
 11
29.2220
 21
-25.5530
 31
0.0000
  0
ARC
  8
51
 10
29.2220
 20
-24.8030
 30
0.0000
 40
0.2000
 50
270.0000
 51
90.0000
  0
ARC
  8
51
 10
29.2220
 20
-24.0030
 30
0.0000
 40
0.2000
 50
270.0000
 51
90.0000
  0
ARC
  8
51
 10
29.2220
 20
-23.2030
 30
0.0000
 40
0.2000
 50
270.0000
 51
90.0000
  0
LINE
  8
51
 10
30.7220
 20
-22.4530
 30
0.0000
 11
30.7220
 21
-23.0030
 31
0.0000
  0
LINE
  8
51
 10
30.7220
 20
-23.4030
 30
0.0000
 11
30.7220
 21
-23.8030
 31
0.0000
  0
LINE
  8
51
 10
30.7220
 20
-24.2030
 30
0.0000
 11
30.7220
 21
-24.6030
 31
0.0000
  0
LINE
  8
51
 10
30.7220
 20
-25.0030
 30
0.0000
 11
30.7220
 21
-25.5530
 31
0.0000
  0
ARC
  8
51
 10
30.7220
 20
-23.2030
 30
0.0000
 40
0.2000
 50
90.0000
 51
270.0000
  0
ARC
  8
51
 10
30.7220
 20
-24.0030
 30
0.0000
 40
0.2000
 50
90.0000
 51
270.0000
  0
ARC
  8
51
 10
30.7220
 20
-24.8030
 30
0.0000
 40
0.2000
 50
90.0000
 51
270.0000
  0
LINE
  8
21
 10
-9.5250
 20
-68.0720
 30
0.0000
 11
-9.5250
 21
-78.2320
 31
0.0000
  0
LINE
  8
21
 10
-9.5250
 20
-78.2320
 30
0.0000
 11
-4.8895
 21
-78.2320
 31
0.0000
  0
LINE
  8
21
 10
-4.8895
 20
-78.2320
 30
0.0000
 11
9.7790
 21
-78.2320
 31
0.0000
  0
LINE
  8
21
 10
9.7790
 20
-68.0720
 30
0.0000
 11
9.7790
 21
-78.2320
 31
0.0000
  0
LINE
  8
21
 10
-9.5250
 20
-68.0720
 30
0.0000
 11
0.1905
 21
-68.0720
 31
0.0000
  0
LINE
  8
21
 10
0.1905
 20
-68.0720
 30
0.0000
 11
9.7790
 21
-68.0720
 31
0.0000
  0
LINE
  8
21
 10
0.1905
 20
-68.0720
 30
0.0000
 11
0.1905
 21
-66.2940
 31
0.0000
  0
LINE
  8
21
 10
-4.8895
 20
-78.2320
 30
0.0000
 11
-4.8895
 21
-86.7410
 31
0.0000
  0
LINE
  8
21
 10
-4.8895
 20
-86.7410
 30
0.0000
 11
0.1905
 21
-86.7410
 31
0.0000
  0
LINE
  8
21
 10
0.1905
 20
-78.2320
 30
0.0000
 11
0.1905
 21
-86.7410
 31
0.0000
  0
LINE
  8
21
 10
8.2550
 20
-69.3420
 30
0.0000
 11
8.2550
 21
-76.9620
 31
0.0000
  0
LINE
  8
21
 10
-8.2550
 20
-69.3420
 30
0.0000
 11
-8.2550
 21
-76.9620
 31
0.0000
  0
LINE
  8
21
 10
33.7820
 20
-23.4950
 30
0.0000
 11
32.2580
 21
-23.4950
 31
0.0000
  0
ARC
  8
21
 10
33.7820
 20
-22.2250
 30
0.0000
 40
0.2540
 50
0.0000
 51
90.0000
  0
ARC
  8
21
 10
32.2580
 20
-22.2250
 30
0.0000
 40
0.2540
 50
90.0000
 51
180.0000
  0
ARC
  8
21
 10
32.2580
 20
-23.2410
 30
0.0000
 40
0.2540
 50
180.0000
 51
270.0000
  0
ARC
  8
21
 10
33.7820
 20
-23.2410
 30
0.0000
 40
0.2540
 50
270.0000
 51
0.0000
  0
LINE
  8
21
 10
34.0360
 20
-23.2410
 30
0.0000
 11
34.0360
 21
-22.2250
 31
0.0000
  0
LINE
  8
21
 10
32.0040
 20
-23.2410
 30
0.0000
 11
32.0040
 21
-22.2250
 31
0.0000
  0
LINE
  8
21
 10
32.2580
 20
-21.9710
 30
0.0000
 11
33.7820
 21
-21.9710
 31
0.0000
  0
LINE
  8
21
 10
33.7820
 20
-26.0350
 30
0.0000
 11
32.2580
 21
-26.0350
 31
0.0000
  0
ARC
  8
21
 10
33.7820
 20
-24.7650
 30
0.0000
 40
0.2540
 50
0.0000
 51
90.0000
  0
ARC
  8
21
 10
32.2580
 20
-24.7650
 30
0.0000
 40
0.2540
 50
90.0000
 51
180.0000
  0
ARC
  8
21
 10
32.2580
 20
-25.7810
 30
0.0000
 40
0.2540
 50
180.0000
 51
270.0000
  0
ARC
  8
21
 10
33.7820
 20
-25.7810
 30
0.0000
 40
0.2540
 50
270.0000
 51
0.0000
  0
LINE
  8
21
 10
34.0360
 20
-25.7810
 30
0.0000
 11
34.0360
 21
-24.7650
 31
0.0000
  0
LINE
  8
21
 10
32.0040
 20
-25.7810
 30
0.0000
 11
32.0040
 21
-24.7650
 31
0.0000
  0
LINE
  8
21
 10
32.2580
 20
-24.5110
 30
0.0000
 11
33.7820
 21
-24.5110
 31
0.0000
  0
LINE
  8
21
 10
34.4170
 20
-16.6116
 30
0.0000
 11
34.4170
 21
-19.5072
 31
0.0000
  0
LINE
  8
21
 10
34.4170
 20
-19.5072
 30
0.0000
 11
33.6550
 21
-19.5072
 31
0.0000
  0
LINE
  8
21
 10
33.6550
 20
-19.5072
 30
0.0000
 11
33.6550
 21
-16.6116
 31
0.0000
  0
LINE
  8
21
 10
33.6550
 20
-16.6116
 30
0.0000
 11
34.4170
 21
-16.6116
 31
0.0000
  0
INSERT
  8
51
  2
RECT
 10
34.7218
 20
-19.0119
 30
0.0000
 41
0.3810
 42
0.5080
 43
1.0000
 50
270.0000
  0
INSERT
  8
51
  2
RECT
 10
34.7218
 20
-17.0815
 30
0.0000
 41
0.3810
 42
0.5080
 43
1.0000
 50
270.0000
  0
INSERT
  8
51
  2
RECT
 10
33.3502
 20
-18.0467
 30
0.0000
 41
0.3810
 42
0.5080
 43
1.0000
 50
270.0000
  0
LINE
  8
21
 10
30.3530
 20
-16.6116
 30
0.0000
 11
30.3530
 21
-19.5072
 31
0.0000
  0
LINE
  8
21
 10
30.3530
 20
-19.5072
 30
0.0000
 11
29.5910
 21
-19.5072
 31
0.0000
  0
LINE
  8
21
 10
29.5910
 20
-19.5072
 30
0.0000
 11
29.5910
 21
-16.6116
 31
0.0000
  0
LINE
  8
21
 10
29.5910
 20
-16.6116
 30
0.0000
 11
30.3530
 21
-16.6116
 31
0.0000
  0
INSERT
  8
51
  2
RECT
 10
30.6578
 20
-19.0119
 30
0.0000
 41
0.3810
 42
0.5080
 43
1.0000
 50
270.0000
  0
INSERT
  8
51
  2
RECT
 10
30.6578
 20
-17.0815
 30
0.0000
 41
0.3810
 42
0.5080
 43
1.0000
 50
270.0000
  0
INSERT
  8
51
  2
RECT
 10
29.2862
 20
-18.0467
 30
0.0000
 41
0.3810
 42
0.5080
 43
1.0000
 50
270.0000
  0
LINE
  8
21
 10
30.5816
 20
-40.6400
 30
0.0000
 11
33.4772
 21
-40.6400
 31
0.0000
  0
LINE
  8
21
 10
33.4772
 20
-40.6400
 30
0.0000
 11
33.4772
 21
-41.4020
 31
0.0000
  0
LINE
  8
21
 10
33.4772
 20
-41.4020
 30
0.0000
 11
30.5816
 21
-41.4020
 31
0.0000
  0
LINE
  8
21
 10
30.5816
 20
-41.4020
 30
0.0000
 11
30.5816
 21
-40.6400
 31
0.0000
  0
INSERT
  8
51
  2
RECT
 10
32.9819
 20
-40.3352
 30
0.0000
 41
0.3810
 42
0.5080
 43
1.0000
 50
0.0000
  0
INSERT
  8
51
  2
RECT
 10
31.0515
 20
-40.3352
 30
0.0000
 41
0.3810
 42
0.5080
 43
1.0000
 50
0.0000
  0
INSERT
  8
51
  2
RECT
 10
32.0167
 20
-41.7068
 30
0.0000
 41
0.3810
 42
0.5080
 43
1.0000
 50
0.0000
  0
LINE
  8
21
 10
-19.6596
 20
-20.9550
 30
0.0000
 11
-22.5552
 21
-20.9550
 31
0.0000
  0
LINE
  8
21
 10
-22.5552
 20
-20.9550
 30
0.0000
 11
-22.5552
 21
-20.1930
 31
0.0000
  0
LINE
  8
21
 10
-22.5552
 20
-20.1930
 30
0.0000
 11
-19.6596
 21
-20.1930
 31
0.0000
  0
LINE
  8
21
 10
-19.6596
 20
-20.1930
 30
0.0000
 11
-19.6596
 21
-20.9550
 31
0.0000
  0
INSERT
  8
51
  2
RECT
 10
-22.0599
 20
-21.2598
 30
0.0000
 41
0.3810
 42
0.5080
 43
1.0000
 50
180.0000
  0
INSERT
  8
51
  2
RECT
 10
-20.1295
 20
-21.2598
 30
0.0000
 41
0.3810
 42
0.5080
 43
1.0000
 50
180.0000
  0
INSERT
  8
51
  2
RECT
 10
-21.0947
 20
-19.8882
 30
0.0000
 41
0.3810
 42
0.5080
 43
1.0000
 50
180.0000
  0
LINE
  8
51
 10
-36.6030
 20
-33.4264
 30
0.0000
 11
-37.3142
 21
-33.4264
 31
0.0000
  0
LINE
  8
51
 10
-37.3142
 20
-33.4264
 30
0.0000
 11
-37.7714
 21
-32.9692
 31
0.0000
  0
LINE
  8
51
 10
-37.7714
 20
-32.9692
 30
0.0000
 11
-37.7714
 21
-28.7528
 31
0.0000
  0
LINE
  8
51
 10
-37.7714
 20
-28.7528
 30
0.0000
 11
-37.3142
 21
-28.2956
 31
0.0000
  0
LINE
  8
51
 10
-37.3142
 20
-28.2956
 30
0.0000
 11
-36.6030
 21
-28.2956
 31
0.0000
  0
LINE
  8
51
 10
-36.6030
 20
-28.2956
 30
0.0000
 11
-36.6030
 21
-33.4264
 31
0.0000
  0
LINE
  8
51
 10
-36.7620
 20
-33.4264
 30
0.0000
 11
-36.7620
 21
-28.2956
 31
0.0000
  0
LINE
  8
51
 10
-36.9618
 20
-33.4264
 30
0.0000
 11
-36.9618
 21
-28.2956
 31
0.0000
  0
LINE
  8
51
 10
-37.1616
 20
-33.4264
 30
0.0000
 11
-37.1616
 21
-28.2956
 31
0.0000
  0
LINE
  8
51
 10
-37.3614
 20
-33.3792
 30
0.0000
 11
-37.3614
 21
-28.3428
 31
0.0000
  0
LINE
  8
51
 10
-37.5612
 20
-33.1794
 30
0.0000
 11
-37.5612
 21
-28.5426
 31
0.0000
  0
LINE
  8
51
 10
-37.7610
 20
-32.9796
 30
0.0000
 11
-37.7610
 21
-28.7424
 31
0.0000
  0
LINE
  8
21
 10
-36.5014
 20
-27.5844
 30
0.0000
 11
-30.3070
 21
-27.5840
 31
0.0000
  0
LINE
  8
21
 10
-30.3070
 20
-27.5840
 30
0.0000
 11
-30.3070
 21
-34.1380
 31
0.0000
  0
LINE
  8
21
 10
-30.3070
 20
-34.1380
 30
0.0000
 11
-36.5014
 21
-34.1376
 31
0.0000
  0
LINE
  8
51
 10
-36.5010
 20
-34.1380
 30
0.0000
 11
-36.5006
 21
-27.5836
 31
0.0000
  0
LINE
  8
51
 10
-36.6030
 20
-33.4264
 30
0.0000
 11
-37.3142
 21
-33.4264
 31
0.0000
  0
LINE
  8
51
 10
-37.3142
 20
-33.4264
 30
0.0000
 11
-37.7714
 21
-32.9692
 31
0.0000
  0
LINE
  8
51
 10
-37.7714
 20
-32.9692
 30
0.0000
 11
-37.7714
 21
-28.7528
 31
0.0000
  0
LINE
  8
51
 10
-37.7714
 20
-28.7528
 30
0.0000
 11
-37.3142
 21
-28.2956
 31
0.0000
  0
LINE
  8
51
 10
-37.3142
 20
-28.2956
 30
0.0000
 11
-36.6030
 21
-28.2956
 31
0.0000
  0
LINE
  8
51
 10
-36.6030
 20
-28.2956
 30
0.0000
 11
-36.6030
 21
-33.4264
 31
0.0000
  0
INSERT
  8
51
  2
RECT
 10
-28.7576
 20
-33.1470
 30
0.0000
 41
0.8636
 42
2.8956
 43
1.0000
 50
90.0000
  0
INSERT
  8
51
  2
RECT
 10
-28.7576
 20
-28.5750
 30
0.0000
 41
0.8636
 42
2.8956
 43
1.0000
 50
90.0000
  0
INSERT
  8
21
  2
RECT
 10
-29.8244
 20
-30.8610
 30
0.0000
 41
0.8636
 42
0.7620
 43
1.0000
 50
90.0000
  0
LINE
  8
21
 10
-87.6300
 20
-3.8100
 30
0.0000
 11
-85.0900
 21
-3.8100
 31
0.0000
  0
LINE
  8
21
 10
-85.0900
 20
-11.4300
 30
0.0000
 11
-85.0900
 21
-3.8100
 31
0.0000
  0
LINE
  8
21
 10
-87.6300
 20
-3.8100
 30
0.0000
 11
-87.6300
 21
-11.4300
 31
0.0000
  0
LINE
  8
21
 10
-85.0900
 20
-3.8100
 30
0.0000
 11
-84.4550
 21
-3.8100
 31
0.0000
  0
LINE
  8
21
 10
-84.4550
 20
-11.4300
 30
0.0000
 11
-84.4550
 21
-3.8100
 31
0.0000
  0
LINE
  8
21
 10
-85.0900
 20
-11.4300
 30
0.0000
 11
-87.6300
 21
-11.4300
 31
0.0000
  0
LINE
  8
21
 10
-84.4550
 20
-11.4300
 30
0.0000
 11
-85.0900
 21
-11.4300
 31
0.0000
  0
INSERT
  8
21
  2
RECT
 10
-86.3600
 20
-10.1600
 30
0.0000
 41
0.5080
 42
0.5080
 43
1.0000
 50
270.0000
  0
INSERT
  8
21
  2
RECT
 10
-86.3600
 20
-7.6200
 30
0.0000
 41
0.5080
 42
0.5080
 43
1.0000
 50
270.0000
  0
INSERT
  8
21
  2
RECT
 10
-86.3600
 20
-5.0800
 30
0.0000
 41
0.5080
 42
0.5080
 43
1.0000
 50
270.0000
  0
LINE
  8
21
 10
-35.5600
 20
76.9620
 30
0.0000
 11
-35.5600
 21
74.4220
 31
0.0000
  0
LINE
  8
21
 10
-43.1800
 20
74.4220
 30
0.0000
 11
-35.5600
 21
74.4220
 31
0.0000
  0
LINE
  8
21
 10
-35.5600
 20
76.9620
 30
0.0000
 11
-43.1800
 21
76.9620
 31
0.0000
  0
LINE
  8
21
 10
-35.5600
 20
74.4220
 30
0.0000
 11
-35.5600
 21
73.7870
 31
0.0000
  0
LINE
  8
21
 10
-43.1800
 20
73.7870
 30
0.0000
 11
-35.5600
 21
73.7870
 31
0.0000
  0
LINE
  8
21
 10
-43.1800
 20
74.4220
 30
0.0000
 11
-43.1800
 21
76.9620
 31
0.0000
  0
LINE
  8
21
 10
-43.1800
 20
73.7870
 30
0.0000
 11
-43.1800
 21
74.4220
 31
0.0000
  0
INSERT
  8
21
  2
RECT
 10
-41.9100
 20
75.6920
 30
0.0000
 41
0.5080
 42
0.5080
 43
1.0000
 50
180.0000
  0
INSERT
  8
21
  2
RECT
 10
-39.3700
 20
75.6920
 30
0.0000
 41
0.5080
 42
0.5080
 43
1.0000
 50
180.0000
  0
INSERT
  8
21
  2
RECT
 10
-36.8300
 20
75.6920
 30
0.0000
 41
0.5080
 42
0.5080
 43
1.0000
 50
180.0000
  0
LINE
  8
21
 10
87.6300
 20
-11.4300
 30
0.0000
 11
85.0900
 21
-11.4300
 31
0.0000
  0
LINE
  8
21
 10
85.0900
 20
-3.8100
 30
0.0000
 11
85.0900
 21
-11.4300
 31
0.0000
  0
LINE
  8
21
 10
87.6300
 20
-11.4300
 30
0.0000
 11
87.6300
 21
-3.8100
 31
0.0000
  0
LINE
  8
21
 10
85.0900
 20
-11.4300
 30
0.0000
 11
84.4550
 21
-11.4300
 31
0.0000
  0
LINE
  8
21
 10
84.4550
 20
-3.8100
 30
0.0000
 11
84.4550
 21
-11.4300
 31
0.0000
  0
LINE
  8
21
 10
85.0900
 20
-3.8100
 30
0.0000
 11
87.6300
 21
-3.8100
 31
0.0000
  0
LINE
  8
21
 10
84.4550
 20
-3.8100
 30
0.0000
 11
85.0900
 21
-3.8100
 31
0.0000
  0
INSERT
  8
21
  2
RECT
 10
86.3600
 20
-5.0800
 30
0.0000
 41
0.5080
 42
0.5080
 43
1.0000
 50
90.0000
  0
INSERT
  8
21
  2
RECT
 10
86.3600
 20
-7.6200
 30
0.0000
 41
0.5080
 42
0.5080
 43
1.0000
 50
90.0000
  0
INSERT
  8
21
  2
RECT
 10
86.3600
 20
-10.1600
 30
0.0000
 41
0.5080
 42
0.5080
 43
1.0000
 50
90.0000
  0
LINE
  8
21
 10
43.1800
 20
76.9620
 30
0.0000
 11
43.1800
 21
74.4220
 31
0.0000
  0
LINE
  8
21
 10
35.5600
 20
74.4220
 30
0.0000
 11
43.1800
 21
74.4220
 31
0.0000
  0
LINE
  8
21
 10
43.1800
 20
76.9620
 30
0.0000
 11
35.5600
 21
76.9620
 31
0.0000
  0
LINE
  8
21
 10
43.1800
 20
74.4220
 30
0.0000
 11
43.1800
 21
73.7870
 31
0.0000
  0
LINE
  8
21
 10
35.5600
 20
73.7870
 30
0.0000
 11
43.1800
 21
73.7870
 31
0.0000
  0
LINE
  8
21
 10
35.5600
 20
74.4220
 30
0.0000
 11
35.5600
 21
76.9620
 31
0.0000
  0
LINE
  8
21
 10
35.5600
 20
73.7870
 30
0.0000
 11
35.5600
 21
74.4220
 31
0.0000
  0
INSERT
  8
21
  2
RECT
 10
36.8300
 20
75.6920
 30
0.0000
 41
0.5080
 42
0.5080
 43
1.0000
 50
180.0000
  0
INSERT
  8
21
  2
RECT
 10
39.3700
 20
75.6920
 30
0.0000
 41
0.5080
 42
0.5080
 43
1.0000
 50
180.0000
  0
INSERT
  8
21
  2
RECT
 10
41.9100
 20
75.6920
 30
0.0000
 41
0.5080
 42
0.5080
 43
1.0000
 50
180.0000
  0
LINE
  8
21
 10
49.5300
 20
-47.7520
 30
0.0000
 11
49.5300
 21
-45.2120
 31
0.0000
  0
LINE
  8
21
 10
59.6900
 20
-45.2120
 30
0.0000
 11
49.5300
 21
-45.2120
 31
0.0000
  0
LINE
  8
21
 10
59.6900
 20
-45.2120
 30
0.0000
 11
59.6900
 21
-47.7520
 31
0.0000
  0
LINE
  8
21
 10
49.5300
 20
-47.7520
 30
0.0000
 11
59.6900
 21
-47.7520
 31
0.0000
  0
LINE
  8
21
 10
49.5300
 20
-45.2120
 30
0.0000
 11
49.5300
 21
-44.5770
 31
0.0000
  0
LINE
  8
21
 10
59.6900
 20
-44.5770
 30
0.0000
 11
49.5300
 21
-44.5770
 31
0.0000
  0
LINE
  8
21
 10
59.6900
 20
-44.5770
 30
0.0000
 11
59.6900
 21
-45.2120
 31
0.0000
  0
INSERT
  8
21
  2
RECT
 10
53.3400
 20
-46.4820
 30
0.0000
 41
0.5080
 42
0.5080
 43
1.0000
 50
0.0000
  0
INSERT
  8
21
  2
RECT
 10
55.8800
 20
-46.4820
 30
0.0000
 41
0.5080
 42
0.5080
 43
1.0000
 50
0.0000
  0
INSERT
  8
21
  2
RECT
 10
58.4200
 20
-46.4820
 30
0.0000
 41
0.5080
 42
0.5080
 43
1.0000
 50
0.0000
  0
INSERT
  8
21
  2
RECT
 10
50.8000
 20
-46.4820
 30
0.0000
 41
0.5080
 42
0.5080
 43
1.0000
 50
0.0000
  0
LINE
  8
51
 10
-60.3400
 20
11.0000
 30
0.0000
 11
-46.3400
 21
11.0000
 31
0.0000
  0
LINE
  8
51
 10
-46.3400
 20
11.0000
 30
0.0000
 11
-46.3400
 21
3.0000
 31
0.0000
  0
LINE
  8
51
 10
-46.3400
 20
3.0000
 30
0.0000
 11
-46.3400
 21
-3.0000
 31
0.0000
  0
LINE
  8
51
 10
-46.3400
 20
-3.0000
 30
0.0000
 11
-46.3400
 21
-7.0000
 31
0.0000
  0
LINE
  8
51
 10
-46.3400
 20
-7.0000
 30
0.0000
 11
-46.3400
 21
-14.0000
 31
0.0000
  0
LINE
  8
51
 10
-46.3400
 20
-14.0000
 30
0.0000
 11
-15.3400
 21
-14.0000
 31
0.0000
  0
LINE
  8
51
 10
-15.3400
 20
-14.0000
 30
0.0000
 11
-15.3400
 21
-31.0000
 31
0.0000
  0
LINE
  8
51
 10
-60.3400
 20
11.0000
 30
0.0000
 11
-60.3400
 21
3.0000
 31
0.0000
  0
LINE
  8
51
 10
-60.3400
 20
3.0000
 30
0.0000
 11
-60.3400
 21
-3.0000
 31
0.0000
  0
LINE
  8
51
 10
-60.3400
 20
-3.0000
 30
0.0000
 11
-60.3400
 21
-8.0000
 31
0.0000
  0
LINE
  8
51
 10
-60.3400
 20
-8.0000
 30
0.0000
 11
-60.3400
 21
-12.0000
 31
0.0000
  0
LINE
  8
51
 10
-60.3400
 20
-12.0000
 30
0.0000
 11
-60.3400
 21
-31.0000
 31
0.0000
  0
LINE
  8
51
 10
-60.3400
 20
-31.0000
 30
0.0000
 11
-46.3400
 21
-31.0000
 31
0.0000
  0
LINE
  8
51
 10
-46.3400
 20
-31.0000
 30
0.0000
 11
-15.3400
 21
-31.0000
 31
0.0000
  0
LINE
  8
51
 10
-37.3400
 20
-12.0000
 30
0.0000
 11
-15.3400
 21
-12.0000
 31
0.0000
  0
LINE
  8
51
 10
-15.3400
 20
-12.0000
 30
0.0000
 11
-15.3400
 21
-14.0000
 31
0.0000
  0
LINE
  8
51
 10
-15.3400
 20
-31.0000
 30
0.0000
 11
-15.3400
 21
-32.0000
 31
0.0000
  0
LINE
  8
51
 10
-15.3400
 20
-32.0000
 30
0.0000
 11
-37.3400
 21
-32.0000
 31
0.0000
  0
LINE
  8
51
 10
-46.3400
 20
-7.0000
 30
0.0000
 11
-37.3400
 21
-7.0000
 31
0.0000
  0
LINE
  8
51
 10
-37.3400
 20
-7.0000
 30
0.0000
 11
-37.3400
 21
-12.0000
 31
0.0000
  0
LINE
  8
51
 10
-37.3400
 20
-37.0000
 30
0.0000
 11
-46.3400
 21
-37.0000
 31
0.0000
  0
LINE
  8
51
 10
-46.3400
 20
-37.0000
 30
0.0000
 11
-46.3400
 21
-31.0000
 31
0.0000
  0
LINE
  8
51
 10
-37.3400
 20
-32.0000
 30
0.0000
 11
-37.3400
 21
-37.0000
 31
0.0000
  0
LINE
  8
51
 10
-68.3400
 20
0.0000
 30
0.0000
 11
-33.3400
 21
0.0000
 31
0.0000
  0
LINE
  8
51
 10
-60.3400
 20
3.0000
 30
0.0000
 11
-68.3400
 21
3.0000
 31
0.0000
  0
LINE
  8
51
 10
-60.3400
 20
-3.0000
 30
0.0000
 11
-68.3400
 21
-3.0000
 31
0.0000
  0
LINE
  8
51
 10
-68.3400
 20
3.0000
 30
0.0000
 11
-68.3400
 21
0.0000
 31
0.0000
  0
LINE
  8
51
 10
-68.3400
 20
0.0000
 30
0.0000
 11
-68.3400
 21
-3.0000
 31
0.0000
  0
LINE
  8
51
 10
-46.3400
 20
-3.0000
 30
0.0000
 11
-33.3400
 21
-3.0000
 31
0.0000
  0
LINE
  8
51
 10
-46.3400
 20
3.0000
 30
0.0000
 11
-33.3400
 21
3.0000
 31
0.0000
  0
LINE
  8
51
 10
-33.3400
 20
3.0000
 30
0.0000
 11
-33.3400
 21
-3.0000
 31
0.0000
  0
LINE
  8
51
 10
-60.3400
 20
-8.0000
 30
0.0000
 11
-62.3400
 21
-8.0000
 31
0.0000
  0
LINE
  8
51
 10
-62.3400
 20
-8.0000
 30
0.0000
 11
-62.3400
 21
-12.0000
 31
0.0000
  0
LINE
  8
51
 10
-62.3400
 20
-12.0000
 30
0.0000
 11
-60.3400
 21
-12.0000
 31
0.0000
  0
LINE
  8
21
 10
-62.3400
 20
11.0000
 30
0.0000
 11
-62.3400
 21
-31.0000
 31
0.0000
  0
LINE
  8
21
 10
-44.3400
 20
11.0000
 30
0.0000
 11
-44.3400
 21
-31.0000
 31
0.0000
  0
ARC
  8
21
 10
-53.3400
 20
9.9375
 30
0.0000
 40
9.0625
 50
6.7329
 51
173.2671
  0
ARC
  8
21
 10
-53.3400
 20
-29.9375
 30
0.0000
 40
9.0625
 50
186.7329
 51
353.2671
  0
LINE
  8
51
 10
-53.3400
 20
19.0000
 30
0.0000
 11
-53.3400
 21
-39.0000
 31
0.0000
  0
CIRCLE
  8
20
 10
-53.3400
 20
0.0000
 30
0.0000
 40
1.6000
  0
CIRCLE
  8
20
 10
-53.3400
 20
-22.0000
 30
0.0000
 40
1.6000
  0
CIRCLE
  8
20
 10
-53.3400
 20
-35.0000
 30
0.0000
 40
1.6000
  0
CIRCLE
  8
20
 10
-53.3400
 20
15.0000
 30
0.0000
 40
1.6000
  0
LINE
  8
51
 10
0.0000
 20
74.9300
 30
0.0000
 11
0.0000
 21
-91.4400
 31
0.0000
  0
LINE
  8
51
 10
91.4400
 20
0.0000
 30
0.0000
 11
-91.4400
 21
0.0000
 31
0.0000
  0
ARC
  8
20
 10
0.0000
 20
121.2850
 30
0.0000
 40
46.3550
 50
228.8879
 51
311.1121
  0
ARC
  8
20
 10
0.0000
 20
0.0726
 30
0.0000
 40
91.5126
 50
109.4552
 51
70.5448
  0
CIRCLE
  8
20
 10
-86.3600
 20
0.0000
 30
0.0000
 40
1.6000
  0
CIRCLE
  8
20
 10
60.9600
 20
60.9600
 30
0.0000
 40
1.6000
  0
CIRCLE
  8
20
 10
-60.9600
 20
60.9600
 30
0.0000
 40
1.6000
  0
CIRCLE
  8
20
 10
86.3600
 20
0.0000
 30
0.0000
 40
1.6000
  0
CIRCLE
  8
20
 10
-60.9600
 20
-60.9600
 30
0.0000
 40
1.6000
  0
CIRCLE
  8
20
 10
60.9600
 20
-60.9600
 30
0.0000
 40
1.6000
  0
CIRCLE
  8
20
 10
-33.0200
 20
80.0100
 30
0.0000
 40
1.6000
  0
CIRCLE
  8
20
 10
33.0200
 20
80.0100
 30
0.0000
 40
1.6000
  0
CIRCLE
  8
20
 10
-33.0200
 20
-80.0100
 30
0.0000
 40
1.6000
  0
CIRCLE
  8
20
 10
33.0200
 20
-80.0100
 30
0.0000
 40
1.6000
  0
CIRCLE
  8
20
 10
-66.0400
 20
48.2600
 30
0.0000
 40
1.6000
  0
CIRCLE
  8
20
 10
-66.0400
 20
-48.2600
 30
0.0000
 40
1.6000
  0
CIRCLE
  8
20
 10
66.0400
 20
48.2600
 30
0.0000
 40
1.6000
  0
CIRCLE
  8
20
 10
66.0400
 20
-48.2600
 30
0.0000
 40
1.6000
  0
LINE
  8
51
 10
-3.5000
 20
-48.9660
 30
0.0000
 11
3.5000
 21
-48.9660
 31
0.0000
  0
LINE
  8
51
 10
3.5000
 20
-48.9660
 30
0.0000
 11
3.5000
 21
-41.9660
 31
0.0000
  0
LINE
  8
51
 10
3.5000
 20
-41.9660
 30
0.0000
 11
-3.5000
 21
-41.9660
 31
0.0000
  0
LINE
  8
51
 10
-3.5000
 20
-41.9660
 30
0.0000
 11
-3.5000
 21
-48.9660
 31
0.0000
  0
INSERT
  8
51
  2
RECT
 10
-1.7500
 20
-43.7160
 30
0.0000
 41
3.5000
 42
3.5000
 43
1.0000
 50
0.0000
  0
LINE
  8
21
 10
-4.8000
 20
-41.0660
 30
0.0000
 11
-4.4000
 21
-40.6660
 31
0.0000
  0
LINE
  8
21
 10
-4.4000
 20
-40.6660
 30
0.0000
 11
4.4000
 21
-40.6660
 31
0.0000
  0
LINE
  8
21
 10
4.4000
 20
-40.6660
 30
0.0000
 11
4.8000
 21
-41.0660
 31
0.0000
  0
LINE
  8
21
 10
4.8000
 20
-41.0660
 30
0.0000
 11
4.8000
 21
-49.8660
 31
0.0000
  0
LINE
  8
21
 10
4.8000
 20
-49.8660
 30
0.0000
 11
4.4000
 21
-50.2660
 31
0.0000
  0
LINE
  8
21
 10
4.4000
 20
-50.2660
 30
0.0000
 11
-4.4000
 21
-50.2660
 31
0.0000
  0
LINE
  8
21
 10
-4.4000
 20
-50.2660
 30
0.0000
 11
-4.8000
 21
-49.8660
 31
0.0000
  0
LINE
  8
21
 10
-4.8000
 20
-49.8660
 30
0.0000
 11
-4.8000
 21
-41.0660
 31
0.0000
  0
CIRCLE
  8
21
 10
-4.0000
 20
-41.4660
 30
0.0000
 40
0.2827
  0
INSERT
  8
51
  2
RECT
 10
-5.5251
 20
-41.4660
 30
0.0000
 41
1.1501
 42
0.3998
 43
1.0000
 50
0.0000
  0
INSERT
  8
51
  2
RECT
 10
-5.5251
 20
-42.2660
 30
0.0000
 41
1.1501
 42
0.4000
 43
1.0000
 50
0.0000
  0
INSERT
  8
51
  2
RECT
 10
-5.5251
 20
-43.0661
 30
0.0000
 41
1.1501
 42
0.4000
 43
1.0000
 50
0.0000
  0
INSERT
  8
51
  2
RECT
 10
-5.5251
 20
-43.8660
 30
0.0000
 41
1.1501
 42
0.4001
 43
1.0000
 50
0.0000
  0
INSERT
  8
51
  2
RECT
 10
-5.5251
 20
-44.6661
 30
0.0000
 41
1.1501
 42
0.4001
 43
1.0000
 50
0.0000
  0
INSERT
  8
51
  2
RECT
 10
-5.5251
 20
-45.4660
 30
0.0000
 41
1.1501
 42
0.3998
 43
1.0000
 50
0.0000
  0
INSERT
  8
51
  2
RECT
 10
-5.5251
 20
-46.2660
 30
0.0000
 41
1.1501
 42
0.4001
 43
1.0000
 50
0.0000
  0
INSERT
  8
51
  2
RECT
 10
-5.5251
 20
-47.0661
 30
0.0000
 41
1.1501
 42
0.4001
 43
1.0000
 50
0.0000
  0
INSERT
  8
51
  2
RECT
 10
-5.5251
 20
-47.8659
 30
0.0000
 41
1.1501
 42
0.4000
 43
1.0000
 50
0.0000
  0
INSERT
  8
51
  2
RECT
 10
-5.5251
 20
-48.6660
 30
0.0000
 41
1.1501
 42
0.4000
 43
1.0000
 50
0.0000
  0
INSERT
  8
51
  2
RECT
 10
-5.5251
 20
-49.4660
 30
0.0000
 41
1.1501
 42
0.3998
 43
1.0000
 50
0.0000
  0
INSERT
  8
51
  2
RECT
 10
-4.0000
 20
-50.9911
 30
0.0000
 41
0.3998
 42
1.1501
 43
1.0000
 50
0.0000
  0
INSERT
  8
51
  2
RECT
 10
-3.2000
 20
-50.9911
 30
0.0000
 41
0.4000
 42
1.1501
 43
1.0000
 50
0.0000
  0
INSERT
  8
51
  2
RECT
 10
-2.3999
 20
-50.9911
 30
0.0000
 41
0.4000
 42
1.1501
 43
1.0000
 50
0.0000
  0
INSERT
  8
51
  2
RECT
 10
-1.6000
 20
-50.9911
 30
0.0000
 41
0.4001
 42
1.1501
 43
1.0000
 50
0.0000
  0
INSERT
  8
51
  2
RECT
 10
-0.8000
 20
-50.9911
 30
0.0000
 41
0.4001
 42
1.1501
 43
1.0000
 50
0.0000
  0
INSERT
  8
51
  2
RECT
 10
0.0000
 20
-50.9911
 30
0.0000
 41
0.3998
 42
1.1501
 43
1.0000
 50
0.0000
  0
INSERT
  8
51
  2
RECT
 10
0.8000
 20
-50.9911
 30
0.0000
 41
0.4001
 42
1.1501
 43
1.0000
 50
0.0000
  0
INSERT
  8
51
  2
RECT
 10
1.6000
 20
-50.9911
 30
0.0000
 41
0.4001
 42
1.1501
 43
1.0000
 50
0.0000
  0
INSERT
  8
51
  2
RECT
 10
2.3999
 20
-50.9911
 30
0.0000
 41
0.4000
 42
1.1501
 43
1.0000
 50
0.0000
  0
INSERT
  8
51
  2
RECT
 10
3.2000
 20
-50.9911
 30
0.0000
 41
0.4000
 42
1.1501
 43
1.0000
 50
0.0000
  0
INSERT
  8
51
  2
RECT
 10
4.0000
 20
-50.9911
 30
0.0000
 41
0.3998
 42
1.1501
 43
1.0000
 50
0.0000
  0
INSERT
  8
51
  2
RECT
 10
5.5251
 20
-49.4660
 30
0.0000
 41
1.1501
 42
0.3998
 43
1.0000
 50
0.0000
  0
INSERT
  8
51
  2
RECT
 10
5.5251
 20
-48.6660
 30
0.0000
 41
1.1501
 42
0.4000
 43
1.0000
 50
0.0000
  0
INSERT
  8
51
  2
RECT
 10
5.5251
 20
-47.8659
 30
0.0000
 41
1.1501
 42
0.4000
 43
1.0000
 50
0.0000
  0
INSERT
  8
51
  2
RECT
 10
5.5251
 20
-47.0661
 30
0.0000
 41
1.1501
 42
0.4001
 43
1.0000
 50
0.0000
  0
INSERT
  8
51
  2
RECT
 10
5.5251
 20
-46.2660
 30
0.0000
 41
1.1501
 42
0.4001
 43
1.0000
 50
0.0000
  0
INSERT
  8
51
  2
RECT
 10
5.5251
 20
-45.4660
 30
0.0000
 41
1.1501
 42
0.3998
 43
1.0000
 50
0.0000
  0
INSERT
  8
51
  2
RECT
 10
5.5251
 20
-44.6661
 30
0.0000
 41
1.1501
 42
0.4001
 43
1.0000
 50
0.0000
  0
INSERT
  8
51
  2
RECT
 10
5.5251
 20
-43.8660
 30
0.0000
 41
1.1501
 42
0.4001
 43
1.0000
 50
0.0000
  0
INSERT
  8
51
  2
RECT
 10
5.5251
 20
-43.0661
 30
0.0000
 41
1.1501
 42
0.4000
 43
1.0000
 50
0.0000
  0
INSERT
  8
51
  2
RECT
 10
5.5251
 20
-42.2660
 30
0.0000
 41
1.1501
 42
0.4000
 43
1.0000
 50
0.0000
  0
INSERT
  8
51
  2
RECT
 10
5.5251
 20
-41.4660
 30
0.0000
 41
1.1501
 42
0.3998
 43
1.0000
 50
0.0000
  0
INSERT
  8
51
  2
RECT
 10
4.0000
 20
-39.9410
 30
0.0000
 41
0.3998
 42
1.1501
 43
1.0000
 50
0.0000
  0
INSERT
  8
51
  2
RECT
 10
3.2000
 20
-39.9410
 30
0.0000
 41
0.4000
 42
1.1501
 43
1.0000
 50
0.0000
  0
INSERT
  8
51
  2
RECT
 10
2.3999
 20
-39.9410
 30
0.0000
 41
0.4000
 42
1.1501
 43
1.0000
 50
0.0000
  0
INSERT
  8
51
  2
RECT
 10
1.6000
 20
-39.9410
 30
0.0000
 41
0.4001
 42
1.1501
 43
1.0000
 50
0.0000
  0
INSERT
  8
51
  2
RECT
 10
0.8000
 20
-39.9410
 30
0.0000
 41
0.4001
 42
1.1501
 43
1.0000
 50
0.0000
  0
INSERT
  8
51
  2
RECT
 10
0.0000
 20
-39.9410
 30
0.0000
 41
0.3998
 42
1.1501
 43
1.0000
 50
0.0000
  0
INSERT
  8
51
  2
RECT
 10
-0.8000
 20
-39.9410
 30
0.0000
 41
0.4001
 42
1.1501
 43
1.0000
 50
0.0000
  0
INSERT
  8
51
  2
RECT
 10
-1.6000
 20
-39.9410
 30
0.0000
 41
0.4001
 42
1.1501
 43
1.0000
 50
0.0000
  0
INSERT
  8
51
  2
RECT
 10
-2.3999
 20
-39.9410
 30
0.0000
 41
0.4000
 42
1.1501
 43
1.0000
 50
0.0000
  0
INSERT
  8
51
  2
RECT
 10
-3.2000
 20
-39.9410
 30
0.0000
 41
0.4000
 42
1.1501
 43
1.0000
 50
0.0000
  0
INSERT
  8
51
  2
RECT
 10
-4.0000
 20
-39.9410
 30
0.0000
 41
0.3998
 42
1.1501
 43
1.0000
 50
0.0000
  0
LINE
  8
51
 10
1.8030
 20
-30.6830
 30
0.0000
 11
1.8030
 21
-25.9590
 31
0.0000
  0
LINE
  8
21
 10
2.0000
 20
-25.8210
 30
0.0000
 11
-2.0000
 21
-25.8210
 31
0.0000
  0
LINE
  8
51
 10
-1.8030
 20
-25.9590
 30
0.0000
 11
-1.8030
 21
-30.6830
 31
0.0000
  0
LINE
  8
21
 10
-2.0000
 20
-30.8210
 30
0.0000
 11
2.0000
 21
-30.8210
 31
0.0000
  0
LINE
  8
21
 10
-2.0000
 20
-30.8210
 30
0.0000
 11
-2.0000
 21
-25.8210
 31
0.0000
  0
LINE
  8
21
 10
2.0000
 20
-30.8210
 30
0.0000
 11
2.0000
 21
-25.8210
 31
0.0000
  0
CIRCLE
  8
21
 10
0.9906
 20
-30.1244
 30
0.0000
 40
0.1436
  0
INSERT
  8
51
  2
RECT
 10
2.3622
 20
-30.2260
 30
0.0000
 41
0.3556
 42
1.0160
 43
1.0000
 50
90.0000
  0
INSERT
  8
51
  2
RECT
 10
2.3622
 20
-28.9560
 30
0.0000
 41
0.3556
 42
1.0160
 43
1.0000
 50
90.0000
  0
INSERT
  8
51
  2
RECT
 10
2.3622
 20
-27.6860
 30
0.0000
 41
0.3556
 42
1.0160
 43
1.0000
 50
90.0000
  0
INSERT
  8
51
  2
RECT
 10
2.3622
 20
-26.4160
 30
0.0000
 41
0.3556
 42
1.0160
 43
1.0000
 50
90.0000
  0
INSERT
  8
51
  2
RECT
 10
-2.3622
 20
-30.2260
 30
0.0000
 41
0.3556
 42
1.0160
 43
1.0000
 50
90.0000
  0
INSERT
  8
51
  2
RECT
 10
-2.3622
 20
-28.9560
 30
0.0000
 41
0.3556
 42
1.0160
 43
1.0000
 50
90.0000
  0
INSERT
  8
51
  2
RECT
 10
-2.3622
 20
-27.6860
 30
0.0000
 41
0.3556
 42
1.0160
 43
1.0000
 50
90.0000
  0
INSERT
  8
51
  2
RECT
 10
-2.3622
 20
-26.4160
 30
0.0000
 41
0.3556
 42
1.0160
 43
1.0000
 50
90.0000
  0
ARC
  8
20
 10
74.9300
 20
33.0200
 30
0.0000
 40
2.5400
 50
0.0000
 51
90.0000
  0
ARC
  8
20
 10
74.9300
 20
-33.0200
 30
0.0000
 40
2.5400
 50
270.0000
 51
0.0000
  0
ARC
  8
20
 10
64.7700
 20
-33.0200
 30
0.0000
 40
2.5400
 50
180.0000
 51
270.0000
  0
ARC
  8
20
 10
64.7700
 20
33.0200
 30
0.0000
 40
2.5400
 50
90.0000
 51
180.0000
  0
ARC
  8
20
 10
74.9300
 20
33.0200
 30
0.0000
 40
2.5400
 50
0.0000
 51
90.0000
  0
ARC
  8
20
 10
74.9300
 20
-33.0200
 30
0.0000
 40
2.5400
 50
270.0000
 51
0.0000
  0
ARC
  8
20
 10
64.7700
 20
-33.0200
 30
0.0000
 40
2.5400
 50
180.0000
 51
270.0000
  0
ARC
  8
20
 10
64.7700
 20
33.0200
 30
0.0000
 40
2.5400
 50
90.0000
 51
180.0000
  0
LINE
  8
51
 10
59.6900
 20
0.0000
 30
0.0000
 11
80.0100
 21
0.0000
 31
0.0000
  0
LINE
  8
20
 10
62.2300
 20
-33.0200
 30
0.0000
 11
62.2300
 21
33.0200
 31
0.0000
  0
ARC
  8
20
 10
64.7700
 20
33.0200
 30
0.0000
 40
2.5400
 50
90.0000
 51
180.0000
  0
LINE
  8
20
 10
64.7700
 20
35.5600
 30
0.0000
 11
74.9300
 21
35.5600
 31
0.0000
  0
ARC
  8
20
 10
74.9300
 20
33.0200
 30
0.0000
 40
2.5400
 50
0.0000
 51
90.0000
  0
LINE
  8
20
 10
77.4700
 20
33.0200
 30
0.0000
 11
77.4700
 21
-33.0200
 31
0.0000
  0
ARC
  8
20
 10
74.9300
 20
-33.0200
 30
0.0000
 40
2.5400
 50
270.0000
 51
0.0000
  0
LINE
  8
20
 10
74.9300
 20
-35.5600
 30
0.0000
 11
64.7700
 21
-35.5600
 31
0.0000
  0
ARC
  8
20
 10
64.7700
 20
-33.0200
 30
0.0000
 40
2.5400
 50
180.0000
 51
270.0000
  0
ARC
  8
20
 10
-64.7700
 20
33.0200
 30
0.0000
 40
2.5400
 50
0.0000
 51
90.0000
  0
ARC
  8
20
 10
-64.7700
 20
-33.0200
 30
0.0000
 40
2.5400
 50
270.0000
 51
0.0000
  0
ARC
  8
20
 10
-74.9300
 20
-33.0200
 30
0.0000
 40
2.5400
 50
180.0000
 51
270.0000
  0
ARC
  8
20
 10
-74.9300
 20
33.0200
 30
0.0000
 40
2.5400
 50
90.0000
 51
180.0000
  0
ARC
  8
20
 10
-64.7700
 20
33.0200
 30
0.0000
 40
2.5400
 50
0.0000
 51
90.0000
  0
ARC
  8
20
 10
-64.7700
 20
-33.0200
 30
0.0000
 40
2.5400
 50
270.0000
 51
0.0000
  0
ARC
  8
20
 10
-74.9300
 20
-33.0200
 30
0.0000
 40
2.5400
 50
180.0000
 51
270.0000
  0
ARC
  8
20
 10
-74.9300
 20
33.0200
 30
0.0000
 40
2.5400
 50
90.0000
 51
180.0000
  0
LINE
  8
51
 10
-80.0100
 20
0.0000
 30
0.0000
 11
-59.6900
 21
0.0000
 31
0.0000
  0
LINE
  8
20
 10
-77.4700
 20
-33.0200
 30
0.0000
 11
-77.4700
 21
33.0200
 31
0.0000
  0
ARC
  8
20
 10
-74.9300
 20
33.0200
 30
0.0000
 40
2.5400
 50
90.0000
 51
180.0000
  0
LINE
  8
20
 10
-74.9300
 20
35.5600
 30
0.0000
 11
-64.7700
 21
35.5600
 31
0.0000
  0
ARC
  8
20
 10
-64.7700
 20
33.0200
 30
0.0000
 40
2.5400
 50
0.0000
 51
90.0000
  0
LINE
  8
20
 10
-62.2300
 20
33.0200
 30
0.0000
 11
-62.2300
 21
-33.0200
 31
0.0000
  0
ARC
  8
20
 10
-64.7700
 20
-33.0200
 30
0.0000
 40
2.5400
 50
270.0000
 51
0.0000
  0
LINE
  8
20
 10
-64.7700
 20
-35.5600
 30
0.0000
 11
-74.9300
 21
-35.5600
 31
0.0000
  0
ARC
  8
20
 10
-74.9300
 20
-33.0200
 30
0.0000
 40
2.5400
 50
180.0000
 51
270.0000
  0
LINE
  8
21
 10
-1.2500
 20
-58.3440
 30
0.0000
 11
1.2500
 21
-58.3440
 31
0.0000
  0
LINE
  8
21
 10
1.2500
 20
-58.3440
 30
0.0000
 11
1.2500
 21
-61.5440
 31
0.0000
  0
LINE
  8
21
 10
1.2500
 20
-61.5440
 30
0.0000
 11
-1.2500
 21
-61.5440
 31
0.0000
  0
LINE
  8
21
 10
-1.2500
 20
-61.5440
 30
0.0000
 11
-1.2500
 21
-58.3440
 31
0.0000
  0
LINE
  8
21
 10
-43.3109
 20
-58.1644
 30
0.0000
 11
-51.6572
 21
-71.5212
 31
0.0000
  0
LINE
  8
21
 10
-51.6572
 20
-71.5212
 30
0.0000
 11
-41.6502
 21
-77.7742
 31
0.0000
  0
LINE
  8
21
 10
-41.6502
 20
-77.7742
 30
0.0000
 11
-33.3040
 21
-64.4175
 31
0.0000
  0
LINE
  8
21
 10
-33.3040
 20
-64.4175
 30
0.0000
 11
-43.3109
 21
-58.1644
 31
0.0000
  0
ENDSEC
  0
EOF
